<?xml version="1.0" encoding="UTF-8"?>
<svg xmlns="http://www.w3.org/2000/svg" width="312" height="200" viewBox="0 0 312 200" fill="none">
  <g clip-path="url(#clip0_9512_5429)">
    <path d="M87 132C87 141.389 79.3887 149 70 149C60.6113 149 53 141.389 53 132C53 122.611 60.6113 115 70 115C79.3887 115 87 122.611 87 132Z" fill="#F3F2F1"></path>
    <path d="M71.0533 130.791C72.5779 130.128 73.6617 128.498 73.6706 126.577C73.6804 124.06 71.8441 122.011 69.5679 122C67.2935 121.989 65.4403 124.021 65.4305 126.537C65.4225 128.476 66.5143 130.126 68.0558 130.791C61.7152 131.782 62.002 138.928 62.002 138.928L76.9967 139C76.9967 139 77.3387 131.776 71.0533 130.791Z" fill="white"></path>
    <path d="M271.562 95.2278C268.837 98.0509 268.915 102.548 271.738 105.273C274.561 107.998 279.058 107.919 281.783 105.097C284.508 102.273 284.429 97.7765 281.606 95.0517C278.784 92.3269 274.286 92.4054 271.562 95.2278ZM268.032 86.4078C269.284 85.6509 270.616 85.0778 271.991 84.6868L272.807 80.7684L279.428 80.6525L280.381 84.5397C281.768 84.8811 283.121 85.4078 284.398 86.1197L287.744 83.9269L292.509 88.5267L290.435 91.9473C291.192 93.1996 291.765 94.5327 292.155 95.9069L296.073 96.7224L296.19 103.344L292.302 104.297C291.961 105.684 291.434 107.036 290.722 108.314L292.915 111.66L288.316 116.424L284.894 114.35C283.643 115.107 282.31 115.68 280.935 116.07L280.119 119.99L273.498 120.105L272.546 116.218C271.158 115.876 269.806 115.349 268.528 114.638L265.182 116.831L260.418 112.231L262.492 108.811C261.735 107.558 261.162 106.225 260.771 104.85L256.853 104.035L256.736 97.4145L260.624 96.461C260.966 95.0738 261.493 93.7217 262.204 92.4435L260.011 89.0975L264.61 84.3331L268.032 86.4078Z" fill="#E7E8E5"></path>
    <path d="M211.335 163.173C207.387 167.262 207.501 173.777 211.59 177.724C215.679 181.673 222.195 181.558 226.142 177.468C230.09 173.379 229.976 166.865 225.887 162.917C221.798 158.97 215.282 159.084 211.335 163.173ZM206.222 150.395C208.036 149.299 209.966 148.468 211.957 147.902L213.138 142.225L222.73 142.057L224.111 147.688C226.121 148.184 228.08 148.946 229.931 149.978L234.779 146.8L241.681 153.464L238.676 158.42C239.772 160.234 240.603 162.165 241.168 164.157L246.845 165.337L247.014 174.93L241.382 176.311C240.886 178.32 240.123 180.279 239.092 182.13L242.269 186.978L235.606 193.88L230.65 190.874C228.836 191.97 226.906 192.801 224.914 193.367L223.732 199.044L214.141 199.213L212.76 193.58C210.75 193.085 208.792 192.323 206.94 191.291L202.093 194.468L195.191 187.805L198.196 182.849C197.1 181.035 196.268 179.105 195.703 177.113L190.026 175.931L189.857 166.34L195.49 164.959C195.985 162.949 196.748 160.99 197.78 159.139L194.602 154.291L201.265 147.39L206.222 150.395Z" fill="#F3F2F1"></path>
    <path d="M265.827 178.446L160.288 167.982C157.726 167.728 155.855 165.445 156.109 162.883L171.347 9.19495C171.601 6.63326 173.884 4.76286 176.446 5.01668L281.985 15.4807C284.547 15.7353 286.417 18.0172 286.163 20.5789L270.925 174.267C270.671 176.829 268.389 178.7 265.827 178.446Z" fill="#DADBD8"></path>
    <path d="M265.827 178.446C265.827 178.446 265.947 178.448 266.184 178.458C266.421 178.465 266.777 178.446 267.238 178.36C267.694 178.259 268.255 178.067 268.837 177.688C269.411 177.305 270.007 176.723 270.42 175.907C270.634 175.504 270.779 175.036 270.859 174.535C270.936 174.031 270.969 173.49 271.03 172.929C271.14 171.803 271.26 170.572 271.391 169.239C271.652 166.571 271.954 163.494 272.293 160.03C273.659 146.173 275.635 126.123 278.076 101.35C279.3 88.9618 280.641 75.3934 282.08 60.8281C282.8 53.5447 283.545 46.0128 284.312 38.2537C284.696 34.3742 285.086 30.4383 285.48 26.449C285.676 24.4552 285.871 22.4476 286.069 20.427C286.147 19.4339 285.864 18.4247 285.317 17.5894C284.755 16.7647 283.926 16.11 282.968 15.799C282.488 15.6382 281.991 15.5795 281.473 15.5345C280.959 15.4835 280.445 15.4324 279.93 15.3813C278.901 15.28 277.867 15.1771 276.831 15.075C274.759 14.8699 272.674 14.6634 270.577 14.4561C266.385 14.0407 262.143 13.6207 257.857 13.1962C249.284 12.3471 240.531 11.4805 231.62 10.5979C213.799 8.83115 195.347 7.00266 176.448 5.12921C175.292 5.01108 174.103 5.3533 173.193 6.06898C172.278 6.77629 171.654 7.84335 171.492 8.98434C171.237 11.3197 171.021 13.671 170.785 16.0018C170.321 20.6686 169.862 25.3057 169.405 29.9086C168.492 39.1142 167.592 48.185 166.708 57.098C164.938 74.9232 163.231 92.1173 161.605 108.497C159.977 124.876 158.43 140.44 156.983 155.007C156.802 156.827 156.623 158.632 156.445 160.421C156.36 161.315 156.257 162.21 156.19 163.091C156.132 163.963 156.347 164.843 156.773 165.595C157.199 166.35 157.842 166.97 158.597 167.378C158.977 167.578 159.383 167.722 159.799 167.816C160.216 167.894 160.651 167.929 161.082 167.973C162.806 168.144 164.513 168.314 166.204 168.482C172.965 169.155 179.453 169.801 185.647 170.417C210.418 172.888 230.462 174.888 244.317 176.27C251.242 176.966 256.62 177.506 260.267 177.873C262.089 178.058 263.478 178.2 264.414 178.294C265.349 178.391 265.827 178.446 265.827 178.446C265.827 178.446 265.347 178.407 264.412 178.317C263.475 178.227 262.085 178.093 260.263 177.917C256.614 177.56 251.235 177.035 244.308 176.356C230.452 174.991 210.405 173.016 185.631 170.574C179.437 169.962 172.948 169.321 166.186 168.654C164.496 168.487 162.789 168.318 161.065 168.147C160.635 168.104 160.203 168.071 159.763 167.989C159.331 167.892 158.908 167.742 158.514 167.535C157.729 167.112 157.06 166.468 156.617 165.683C156.174 164.902 155.951 163.987 156.009 163.08C156.077 162.184 156.18 161.3 156.264 160.404C156.44 158.614 156.619 156.809 156.799 154.988C158.24 140.421 159.78 124.856 161.4 108.476C163.023 92.0967 164.725 74.9018 166.49 57.0759C167.373 48.1629 168.272 39.0921 169.184 29.8865C169.641 25.2836 170.1 20.6473 170.563 15.9797C170.799 13.6436 171.014 11.3082 171.271 8.95155C171.442 7.75493 172.096 6.63452 173.056 5.89293C174.01 5.14293 175.26 4.78319 176.47 4.90742C195.368 6.78239 213.821 8.61238 231.642 10.3799C240.553 11.2648 249.306 12.1329 257.878 12.9843C262.164 13.4096 266.405 13.8311 270.599 14.2472C272.695 14.4553 274.779 14.6626 276.852 14.8676C277.888 14.9705 278.921 15.0734 279.951 15.1756C280.465 15.2266 280.98 15.2777 281.493 15.3288C282.001 15.373 282.535 15.4362 283.032 15.6039C284.035 15.9301 284.9 16.6138 285.487 17.4758C286.059 18.3478 286.355 19.4041 286.272 20.4407C286.073 22.4636 285.876 24.4727 285.681 26.4688C285.284 30.4581 284.893 34.394 284.508 38.2735C283.737 46.0318 282.988 53.5637 282.264 60.8464C280.815 75.411 279.465 88.9786 278.233 101.365C275.762 126.136 273.762 146.183 272.379 160.038C272.032 163.502 271.724 166.579 271.456 169.245C271.322 170.578 271.199 171.809 271.086 172.934C271.023 173.497 270.988 174.034 270.909 174.543C270.825 175.05 270.677 175.521 270.459 175.928C270.04 176.749 269.436 177.334 268.856 177.716C268.267 178.095 267.702 178.284 267.243 178.382C266.78 178.465 266.422 178.48 266.184 178.47C265.946 178.456 265.827 178.446 265.827 178.446Z" fill="#17282F"></path>
    <path d="M265.827 178.446C265.827 178.446 265.947 178.448 266.184 178.458C266.421 178.465 266.777 178.446 267.238 178.36C267.694 178.259 268.255 178.067 268.837 177.688C269.411 177.305 270.007 176.723 270.42 175.907C270.634 175.504 270.779 175.036 270.859 174.535C270.936 174.031 270.969 173.49 271.03 172.929C271.14 171.803 271.26 170.572 271.391 169.239C271.652 166.571 271.954 163.494 272.293 160.03C273.659 146.173 275.635 126.123 278.076 101.35C279.3 88.9618 280.641 75.3934 282.08 60.8281C282.8 53.5447 283.545 46.0128 284.312 38.2537C284.696 34.3742 285.086 30.4383 285.48 26.449C285.676 24.4552 285.871 22.4476 286.069 20.427C286.147 19.4339 285.864 18.4247 285.317 17.5894C284.755 16.7647 283.926 16.11 282.968 15.799C282.488 15.6382 281.991 15.5795 281.473 15.5345C280.959 15.4835 280.445 15.4324 279.93 15.3813C278.901 15.28 277.867 15.1771 276.831 15.075C274.759 14.8699 272.674 14.6634 270.577 14.4561C266.385 14.0407 262.143 13.6207 257.857 13.1962C249.284 12.3471 240.531 11.4805 231.62 10.5979C213.799 8.83115 195.347 7.00266 176.448 5.12921C175.292 5.01108 174.103 5.3533 173.193 6.06898C172.278 6.77629 171.654 7.84335 171.492 8.98434C171.237 11.3197 171.021 13.671 170.785 16.0018C170.321 20.6686 169.862 25.3057 169.405 29.9086C168.492 39.1142 167.592 48.185 166.708 57.098C164.938 74.9232 163.231 92.1173 161.605 108.497C159.977 124.876 158.43 140.44 156.983 155.007C156.802 156.827 156.623 158.632 156.445 160.421C156.36 161.315 156.257 162.21 156.19 163.091C156.132 163.963 156.347 164.843 156.773 165.595C157.199 166.35 157.842 166.97 158.597 167.378C158.977 167.578 159.383 167.722 159.799 167.816C160.216 167.894 160.651 167.929 161.082 167.973C162.806 168.144 164.513 168.314 166.204 168.482C172.965 169.155 179.453 169.801 185.647 170.417C210.418 172.888 230.462 174.888 244.317 176.27C251.242 176.966 256.62 177.506 260.267 177.873C262.089 178.058 263.478 178.2 264.414 178.294C265.349 178.391 265.827 178.446 265.827 178.446C265.827 178.446 265.347 178.407 264.412 178.317C263.475 178.227 262.085 178.093 260.263 177.917C256.614 177.56 251.235 177.035 244.308 176.356C230.452 174.991 210.405 173.016 185.631 170.574C179.437 169.962 172.948 169.321 166.186 168.654C164.496 168.487 162.789 168.318 161.065 168.147C160.635 168.104 160.203 168.071 159.763 167.989C159.331 167.892 158.908 167.742 158.514 167.535C157.729 167.112 157.06 166.468 156.617 165.683C156.174 164.902 155.951 163.987 156.009 163.08C156.077 162.184 156.18 161.3 156.264 160.404C156.44 158.614 156.619 156.809 156.799 154.988C158.24 140.421 159.78 124.856 161.4 108.476C163.023 92.0967 164.725 74.9018 166.49 57.0759C167.373 48.1629 168.272 39.0921 169.184 29.8865C169.641 25.2836 170.1 20.6473 170.563 15.9797C170.799 13.6436 171.014 11.3082 171.271 8.95155C171.442 7.75493 172.096 6.63452 173.056 5.89293C174.01 5.14293 175.26 4.78319 176.47 4.90742C195.368 6.78239 213.821 8.61238 231.642 10.3799C240.553 11.2648 249.306 12.1329 257.878 12.9843C262.164 13.4096 266.405 13.8311 270.599 14.2472C272.695 14.4553 274.779 14.6626 276.852 14.8676C277.888 14.9705 278.921 15.0734 279.951 15.1756C280.465 15.2266 280.98 15.2777 281.493 15.3288C282.001 15.373 282.535 15.4362 283.032 15.6039C284.035 15.9301 284.9 16.6138 285.487 17.4758C286.059 18.3478 286.355 19.4041 286.272 20.4407C286.073 22.4636 285.876 24.4727 285.681 26.4688C285.284 30.4581 284.893 34.394 284.508 38.2735C283.737 46.0318 282.988 53.5637 282.264 60.8464C280.815 75.411 279.465 88.9786 278.233 101.365C275.762 126.136 273.762 146.183 272.379 160.038C272.032 163.502 271.724 166.579 271.456 169.245C271.322 170.578 271.199 171.809 271.086 172.934C271.023 173.497 270.988 174.034 270.909 174.543C270.825 175.05 270.677 175.521 270.459 175.928C270.04 176.749 269.436 177.334 268.856 177.716C268.267 178.095 267.702 178.284 267.243 178.382C266.78 178.465 266.422 178.48 266.184 178.47C265.946 178.456 265.827 178.446 265.827 178.446Z" fill="#17282F"></path>
    <path d="M263.273 173.574L166.943 164.555L167.095 160.967C220.209 166.188 255.864 169.695 263.767 170.471L263.273 173.574Z" fill="#5D6163"></path>
    <path d="M265.417 170.633L162.225 160.401L176.968 11.697L280.161 21.9286L265.417 170.633Z" fill="white"></path>
    <path d="M265.417 170.633C265.502 169.776 271.42 109.684 280.065 21.9194L280.152 22.0246C248.851 18.924 213.834 15.4553 176.97 11.8037L176.958 11.8029L177.074 11.7077C171.529 67.5499 166.407 119.142 162.31 160.41L162.233 160.316C224.992 166.591 264.72 170.563 265.417 170.633C264.72 170.564 224.985 166.657 162.216 160.487L162.131 160.478L162.139 160.393C166.225 119.125 171.334 67.5308 176.863 11.6863L176.874 11.5811L176.979 11.5918L176.991 11.5926C213.855 15.2511 248.87 18.7259 280.171 21.8325L280.267 21.8417L280.258 21.9385C271.5 109.693 265.503 169.777 265.417 170.633Z" fill="#17282F"></path>
    <path d="M252.517 39.0027L205.162 34.3077C203.946 34.1873 203.058 33.1042 203.179 31.8885L203.217 31.5105C203.337 30.2955 204.421 29.4076 205.635 29.528L252.991 34.2238C254.206 34.3443 255.094 35.4273 254.973 36.6422L254.935 37.0203C254.815 38.236 253.732 39.1232 252.517 39.0027Z" fill="#3EB7BB"></path>
    <path d="M263.615 57.6684L207.938 52.1479C206.91 52.0458 206.159 51.1297 206.261 50.1022L206.293 49.7821C206.395 48.7539 207.311 48.0032 208.339 48.1053L264.016 53.6258C265.044 53.7279 265.795 54.6441 265.693 55.6715L265.661 55.9916C265.559 57.0198 264.643 57.7706 263.615 57.6684Z" fill="#DADBD8"></path>
    <path d="M233.96 61.9791L207.227 59.3282C206.199 59.2261 205.448 58.31 205.55 57.2825L205.582 56.9624C205.684 55.9342 206.6 55.1835 207.628 55.2856L234.361 57.9365C235.388 58.0379 236.139 58.954 236.038 59.9822L236.006 60.3015C235.904 61.3297 234.987 62.0805 233.96 61.9791Z" fill="#DADBD8"></path>
    <path d="M261.26 81.4419L205.582 75.9214C204.555 75.8192 203.804 74.9031 203.906 73.8757L203.938 73.5556C204.04 72.5274 204.955 71.7766 205.983 71.8788L261.661 77.3992C262.688 77.5014 263.439 78.4168 263.338 79.4449L263.306 79.7651C263.204 80.7933 262.287 81.544 261.26 81.4419Z" fill="#DADBD8"></path>
    <path d="M231.603 85.7524L204.87 83.1023C203.842 83.0002 203.091 82.084 203.193 81.0558L203.225 80.7365C203.327 79.7083 204.242 78.9576 205.271 79.0597L232.003 81.7106C233.032 81.8119 233.782 82.7281 233.68 83.7563L233.648 84.0756C233.547 85.1038 232.631 85.8546 231.603 85.7524Z" fill="#DADBD8"></path>
    <path d="M258.902 105.215L203.225 99.6949C202.197 99.5928 201.446 98.6767 201.548 97.6485L201.58 97.3291C201.682 96.3009 202.598 95.5502 203.626 95.6523L259.303 101.173C260.331 101.275 261.082 102.19 260.98 103.219L260.948 103.539C260.846 104.566 259.93 105.317 258.902 105.215Z" fill="#DADBD8"></path>
    <path d="M229.244 109.526L202.512 106.876C201.484 106.774 200.733 105.857 200.835 104.829L200.867 104.51C200.969 103.482 201.885 102.731 202.913 102.833L229.645 105.483C230.673 105.585 231.424 106.502 231.322 107.53L231.291 107.849C231.189 108.877 230.273 109.628 229.244 109.526Z" fill="#DADBD8"></path>
    <path d="M256.545 128.989L200.868 123.468C199.84 123.366 199.089 122.45 199.191 121.422L199.223 121.103C199.324 120.074 200.24 119.324 201.269 119.426L256.945 124.946C257.974 125.048 258.724 125.964 258.622 126.992L258.591 127.312C258.489 128.339 257.573 129.09 256.545 128.989Z" fill="#DADBD8"></path>
    <path d="M226.888 133.297L200.155 130.647C199.127 130.545 198.376 129.629 198.478 128.601L198.51 128.281C198.611 127.253 199.528 126.502 200.556 126.605L227.289 129.255C228.317 129.357 229.068 130.273 228.965 131.301L228.933 131.621C228.832 132.649 227.916 133.399 226.888 133.297Z" fill="#DADBD8"></path>
    <path d="M253.259 149.631L197.583 144.111C196.554 144.009 195.804 143.093 195.906 142.064L195.937 141.745C196.039 140.717 196.955 139.966 197.984 140.068L253.66 145.589C254.688 145.691 255.439 146.606 255.337 147.634L255.305 147.955C255.204 148.982 254.288 149.733 253.259 149.631Z" fill="#DADBD8"></path>
    <path d="M257.068 24.4082L204.156 19.1621L205.426 6.3536C205.565 4.95194 206.814 3.92833 208.216 4.06705L256.052 8.81011C257.453 8.94883 258.477 10.198 258.338 11.5997L257.068 24.4082Z" fill="#17282F"></path>
    <path d="M239.44 1.33482L225.973 -0.000526428L226.403 11.699L236.546 12.7051L239.44 1.33482Z" fill="#17282F"></path>
    <path d="M255.19 8.72574C255.184 8.78747 244.855 7.8134 232.123 6.55046C219.386 5.28828 209.07 4.21513 209.076 4.15339C209.082 4.09242 219.408 5.06573 232.145 6.32867C244.877 7.59085 255.196 8.66476 255.19 8.72574Z" fill="#33535F"></path>
    <path d="M205.587 16.8047C205.525 16.7986 205.691 14.6225 205.957 11.9458C206.222 9.26744 206.487 7.10207 206.548 7.10817C206.609 7.11427 206.444 9.28954 206.179 11.9671C205.913 14.6446 205.648 16.8108 205.587 16.8047Z" fill="#33535F"></path>
    <path d="M255.715 20.6152C255.654 20.6091 255.8 18.6328 256.041 16.2022C256.281 13.7708 256.527 11.8051 256.589 11.8112C256.649 11.8173 256.504 13.7929 256.263 16.2243C256.021 18.6549 255.777 20.6206 255.715 20.6152Z" fill="#33535F"></path>
    <path d="M252.96 22.4036C252.954 22.4646 242.352 21.4638 229.282 20.1681C216.209 18.8717 205.619 17.7718 205.625 17.7101C205.631 17.6491 216.231 18.6498 229.305 19.9463C242.374 21.242 252.967 22.3426 252.96 22.4036Z" fill="#33535F"></path>
    <path d="M259.613 19.793C258.924 19.7251 258.237 19.6565 257.545 19.5879L258.153 13.4539L259.613 19.793Z" fill="#8F9192"></path>
    <path d="M259.386 23.3477L257.195 23.1304L257.528 19.7844C258.241 19.8553 258.951 19.9255 259.662 19.9956L259.701 20.1655L259.386 23.3477Z" fill="#A7A9A8"></path>
    <path d="M259.661 19.9961C258.951 19.926 258.241 19.8559 257.527 19.785L257.546 19.5883C258.238 19.6569 258.926 19.7255 259.615 19.7933L259.661 19.9961Z" fill="#0F191D"></path>
    <path d="M257.195 23.1309L256.916 23.1034L258.155 13.4542L257.546 19.5882L257.527 19.7849L257.195 23.1309Z" fill="#0F191D"></path>
    <path d="M194.213 58.42L186.193 57.6243C184.684 57.4749 183.583 56.1312 183.732 54.6228L184.528 46.6031C184.677 45.0948 186.021 43.9934 187.53 44.1428L195.549 44.9378C197.058 45.0871 198.159 46.4316 198.01 47.94L197.215 55.9597C197.065 57.4681 195.721 58.5694 194.213 58.42Z" fill="#3EB7BB"></path>
    <path d="M186.197 51.0144L187.69 49.7911L190.078 52.3787L194.888 48.4222L196.014 49.9047L189.625 54.9785L186.197 51.0144Z" fill="white"></path>
    <path d="M191.336 82.2833L183.315 81.4883C181.807 81.3382 180.705 79.9945 180.855 78.4861L181.65 70.4664C181.8 68.958 183.144 67.8567 184.652 68.0061L192.672 68.801C194.18 68.9512 195.281 70.2949 195.132 71.8033L194.337 79.823C194.188 81.3313 192.844 82.4327 191.336 82.2833Z" fill="#3EB7BB"></path>
    <path d="M183.32 74.8777L184.813 73.6544L187.201 76.242L192.01 72.2855L193.136 73.7679L186.747 78.8418L183.32 74.8777Z" fill="white"></path>
    <path d="M188.785 105.936L180.765 105.141C179.257 104.991 178.155 103.648 178.305 102.139L179.1 94.1187C179.25 92.6104 180.593 91.509 182.102 91.6584L190.121 92.4541C191.63 92.6035 192.731 93.9473 192.582 95.4556L191.787 103.475C191.637 104.984 190.293 106.085 188.785 105.936Z" fill="#3EB7BB"></path>
    <path d="M180.768 98.53L182.261 97.3067L184.649 99.8943L189.458 95.9378L190.584 97.421L184.195 102.494L180.768 98.53Z" fill="white"></path>
    <path d="M186.661 129.427C186.663 129.403 186.837 129.429 187.16 129.389C187.479 129.351 187.962 129.238 188.459 128.88C188.95 128.533 189.44 127.893 189.54 127.036C189.622 126.143 189.712 125.137 189.813 124.031C189.917 122.912 190.03 121.692 190.15 120.385C190.181 120.057 190.212 119.724 190.244 119.386C190.274 119.04 190.322 118.712 190.281 118.389C190.21 117.737 189.864 117.097 189.318 116.671C189.048 116.458 188.73 116.297 188.389 116.208C188.056 116.12 187.665 116.107 187.28 116.064C186.509 115.989 185.722 115.913 184.921 115.835C183.318 115.677 181.659 115.514 179.96 115.347C179.17 115.27 178.362 115.575 177.842 116.15C177.58 116.433 177.381 116.772 177.271 117.135C177.16 117.49 177.151 117.897 177.103 118.301C176.941 119.903 176.784 121.448 176.633 122.922C176.558 123.657 176.484 124.374 176.412 125.073C176.38 125.425 176.323 125.765 176.346 126.076C176.367 126.395 176.446 126.704 176.574 126.985C176.829 127.549 177.283 127.995 177.804 128.24C178.316 128.506 178.905 128.499 179.466 128.572C181.654 128.816 183.442 129.015 184.735 129.158C185.323 129.232 185.797 129.291 186.165 129.337C186.492 129.383 186.663 129.413 186.661 129.427C186.66 129.441 186.487 129.437 186.158 129.417C185.788 129.39 185.311 129.355 184.719 129.312C183.424 129.199 181.632 129.043 179.437 128.851C179.158 128.825 178.872 128.798 178.58 128.771C178.273 128.741 177.966 128.651 177.673 128.517C177.086 128.25 176.571 127.757 176.276 127.124C176.127 126.808 176.034 126.46 176.008 126.099C175.979 125.73 176.037 125.383 176.065 125.038C176.131 124.34 176.2 123.621 176.27 122.885C176.412 121.411 176.562 119.865 176.716 118.262C176.764 117.869 176.766 117.454 176.896 117.021C177.022 116.6 177.251 116.208 177.553 115.881C178.151 115.218 179.087 114.862 179.999 114.952C181.698 115.122 183.356 115.288 184.959 115.448C185.76 115.529 186.546 115.609 187.318 115.687C187.7 115.733 188.082 115.742 188.485 115.847C188.876 115.952 189.238 116.138 189.546 116.384C190.166 116.876 190.553 117.608 190.628 118.351C190.671 118.727 190.613 119.089 190.582 119.419C190.547 119.757 190.512 120.09 190.478 120.418C190.34 121.723 190.211 122.941 190.093 124.059C189.97 125.166 189.859 126.172 189.76 127.064C189.629 127.99 189.079 128.66 188.547 129.007C188.007 129.365 187.498 129.456 187.167 129.468C186.831 129.483 186.661 129.427 186.661 129.427Z" fill="#17282F"></path>
    <path d="M184.441 151.829C184.441 151.806 184.616 151.831 184.939 151.79C185.259 151.753 185.74 151.64 186.237 151.283C186.729 150.935 187.219 150.294 187.319 149.438C187.4 148.545 187.492 147.54 187.592 146.433C187.696 145.314 187.809 144.094 187.929 142.787C187.96 142.459 187.992 142.126 188.023 141.788C188.053 141.442 188.101 141.115 188.06 140.791C187.989 140.139 187.643 139.5 187.098 139.073C186.827 138.859 186.509 138.699 186.168 138.61C185.836 138.522 185.444 138.509 185.059 138.466C184.288 138.391 183.501 138.315 182.7 138.237C181.097 138.08 179.438 137.916 177.739 137.75C176.949 137.673 176.141 137.977 175.621 138.552C175.359 138.835 175.16 139.173 175.05 139.538C174.939 139.892 174.93 140.299 174.882 140.703C174.72 142.304 174.563 143.849 174.413 145.323C174.336 146.059 174.263 146.777 174.191 147.475C174.159 147.827 174.102 148.167 174.125 148.479C174.145 148.797 174.224 149.105 174.353 149.387C174.609 149.951 175.062 150.397 175.583 150.642C176.096 150.908 176.683 150.902 177.244 150.974C179.433 151.217 181.221 151.416 182.514 151.56C183.102 151.633 183.576 151.693 183.945 151.739C184.271 151.784 184.441 151.815 184.441 151.829C184.439 151.842 184.265 151.839 183.936 151.819C183.566 151.792 183.089 151.757 182.499 151.714C181.203 151.601 179.411 151.444 177.217 151.253C176.937 151.227 176.651 151.2 176.359 151.172C176.052 151.143 175.745 151.053 175.452 150.919C174.865 150.652 174.35 150.159 174.054 149.525C173.907 149.211 173.813 148.861 173.787 148.502C173.759 148.133 173.816 147.784 173.843 147.44C173.91 146.742 173.978 146.024 174.048 145.288C174.191 143.813 174.34 142.267 174.496 140.665C174.542 140.271 174.545 139.855 174.675 139.423C174.801 139.003 175.03 138.61 175.332 138.284C175.93 137.619 176.866 137.264 177.778 137.354C179.477 137.524 181.135 137.69 182.738 137.85C183.539 137.931 184.326 138.011 185.097 138.089C185.48 138.135 185.861 138.144 186.264 138.25C186.654 138.354 187.018 138.541 187.326 138.787C187.945 139.278 188.332 140.01 188.407 140.753C188.451 141.129 188.392 141.492 188.361 141.821C188.326 142.16 188.291 142.493 188.257 142.82C188.119 144.124 187.99 145.343 187.871 146.461C187.749 147.568 187.638 148.574 187.54 149.467C187.408 150.393 186.858 151.062 186.326 151.409C185.786 151.767 185.277 151.858 184.946 151.87C184.611 151.886 184.441 151.829 184.441 151.829Z" fill="#17282F"></path>
    <path d="M120.585 54.8639C121.895 57.8751 120.516 61.3772 117.506 62.6871C114.495 63.997 110.993 62.6182 109.683 59.607C108.373 56.5971 109.752 53.0943 112.763 51.7844C115.773 50.4752 119.275 51.854 120.585 54.8639Z" fill="#E7E8E5"></path>
    <path d="M94.2109 66.4434L136.126 48.1912L131.791 46.1268C129.105 44.8479 126.971 42.6417 125.784 39.914L120.834 28.5469C117.161 20.1115 107.345 16.2511 98.9093 19.9247C90.4744 23.5974 86.6133 33.4135 90.2869 41.8489L95.048 52.7829C96.1512 55.3152 96.3719 58.1444 95.6761 60.8173L94.2109 66.4434Z" fill="#E7E8E5"></path>
    <path d="M100.395 23.8186L99.8605 24.0517C98.8724 24.4816 97.7226 24.0292 97.2926 23.0411L95.0451 17.881C94.6151 16.8929 95.0676 15.743 96.0556 15.3124L96.5897 15.0799C97.5778 14.65 98.7276 15.1024 99.1576 16.0905L101.405 21.2507C101.835 22.2388 101.383 23.3886 100.395 23.8186Z" fill="#E7E8E5"></path>
    <path d="M136.175 48.283C136.212 48.3699 126.922 52.4958 115.426 57.4971C103.926 62.5007 94.5762 66.4845 94.5386 66.3976C94.501 66.3107 103.789 62.1859 115.29 57.183C126.785 52.1817 136.137 48.196 136.175 48.283Z" fill="#DADBD8"></path>
    <path d="M109.76 59.7756C109.76 59.7756 112.845 60.6715 115.854 59.3627C119.427 57.8083 120.658 55.034 120.658 55.034L109.76 59.7756Z" fill="#DADBD8"></path>
    <path d="M117.888 27.478C117.652 27.0046 117.398 26.5144 116.971 26.2012C116.544 25.8888 115.889 25.8194 115.512 26.191C115.027 26.5329 114.847 27.1661 115.082 27.7109C115.86 29.5093 117.568 33.4893 118.497 35.8918C119.261 37.8726 119.886 40.0673 119.283 42.1032C118.817 43.6753 117.616 44.9444 116.246 45.8456C114.877 46.7473 113.328 47.3327 111.815 47.9654C109.901 48.7658 108.008 49.6608 106.347 50.9041C105.902 51.2364 105.46 51.6149 105.252 52.1293C105.046 52.6437 105.156 53.3265 105.634 53.6075C106.073 53.8652 106.628 53.7114 107.11 53.55C112.071 51.8933 117.041 50.1397 121.557 47.5008C122.496 46.9529 123.464 46.3101 123.904 45.3159C124.402 44.1875 124.106 42.8819 123.761 41.6979C122.326 36.7671 120.184 32.0714 117.888 27.478Z" fill="#DADBD8"></path>
    <path d="M95.4766 24.5156L95.5557 24.4542L95.5096 24.4928L95.4766 24.5156Z" fill="#ECECEA"></path>
    <path d="M108.989 18.8032C108.976 18.8721 107.934 18.6374 106.23 18.6143C105.379 18.5929 104.366 18.6718 103.255 18.837C102.149 19.0287 100.947 19.3274 99.7307 19.7787C98.5196 20.245 97.421 20.8182 96.4647 21.4075C95.5215 22.0169 94.711 22.6308 94.0855 23.2081C92.8225 24.3517 92.1939 25.2147 92.1391 25.171C92.1205 25.1572 92.2693 24.9375 92.5579 24.5504C92.6985 24.3542 92.88 24.1211 93.1152 23.8719C93.3472 23.62 93.597 23.3175 93.9204 23.0305C94.5346 22.4213 95.3427 21.7766 96.2944 21.1415C97.2586 20.5269 98.3748 19.9337 99.6095 19.4583C100.848 18.998 102.077 18.7023 103.207 18.525C104.341 18.3734 105.373 18.3189 106.237 18.3726C106.669 18.3743 107.057 18.435 107.398 18.4719C107.739 18.5033 108.029 18.5576 108.264 18.6129C108.736 18.7138 108.993 18.7796 108.989 18.8032Z" fill="#DADBD8"></path>
    <path d="M96.5263 59.7411C96.4232 59.7204 96.73 58.2441 96.601 56.4149C96.489 54.5839 95.9904 53.161 96.09 53.1271C96.1644 53.0871 96.8257 54.4997 96.9432 56.3923C97.0751 58.2835 96.6058 59.7709 96.5263 59.7411Z" fill="white"></path>
    <path d="M95.927 15.9924C96.0182 16.0346 95.6997 16.7464 95.819 17.6554C95.9175 18.5663 96.3958 19.1823 96.3169 19.245C96.2661 19.3224 95.5968 18.7288 95.4789 17.6957C95.3493 16.6647 95.8593 15.9298 95.927 15.9924Z" fill="white"></path>
    <path d="M118.349 103.821L114.839 106.594L110.512 101.117L114.021 98.3443L118.349 103.821Z" fill="#17282F"></path>
    <path d="M117.197 98.496L109.969 104.207L105.305 98.3042C107.342 95.6816 109.73 93.734 112.532 92.5941L117.197 98.496Z" fill="#33535F"></path>
    <path d="M111.179 103.251C111.064 103.343 109.875 102.047 108.524 100.356C107.172 98.6655 106.169 97.2196 106.284 97.1276C106.4 97.0356 107.589 98.3314 108.94 100.023C110.292 101.713 111.294 103.159 111.179 103.251Z" fill="#17282F"></path>
    <path d="M112.556 102.162C112.437 102.25 111.269 100.881 109.936 99.1133C108.601 97.3419 107.606 95.8563 107.684 95.7875C107.827 95.6616 109.03 97.0223 110.363 98.7907C111.697 100.561 112.675 102.074 112.556 102.162Z" fill="#17282F"></path>
    <path d="M114.391 100.713C114.273 100.801 113.097 99.4122 111.759 97.6186C110.419 95.8221 109.426 94.3084 109.518 94.2328C109.654 94.1214 110.849 95.5044 112.188 97.299C113.526 99.0945 114.51 100.626 114.391 100.713Z" fill="#17282F"></path>
    <path d="M116.063 99.353C115.947 99.444 114.768 98.1317 113.427 96.4233C112.088 94.713 111.096 93.2545 111.212 93.1635C111.329 93.0724 112.508 94.3837 113.849 96.0931C115.188 97.8024 116.18 99.2619 116.063 99.353Z" fill="#17282F"></path>
    <path d="M168.654 109.496L165.701 106.136L170.943 101.529L173.896 104.888L168.654 109.496Z" fill="#17282F"></path>
    <path d="M173.912 108.068L167.83 101.149L173.48 96.1824C176.206 98.0796 178.276 100.361 179.562 103.101L173.912 108.068Z" fill="#33535F"></path>
    <path d="M168.847 102.307C168.749 102.197 169.981 100.941 171.599 99.5029C173.217 98.0638 174.608 96.9878 174.706 97.0982C174.804 97.2086 173.572 98.4638 171.954 99.902C170.337 101.34 168.945 102.417 168.847 102.307Z" fill="#17282F"></path>
    <path d="M170.007 103.624C169.913 103.511 171.219 102.273 172.915 100.849C174.614 99.4223 176.044 98.3502 176.118 98.4248C176.25 98.5623 174.955 99.8339 173.259 101.258C171.561 102.683 170.101 103.738 170.007 103.624Z" fill="#17282F"></path>
    <path d="M171.55 105.38C171.456 105.266 172.781 104.02 174.502 102.589C176.225 101.158 177.685 100.086 177.765 100.174C177.883 100.304 176.565 101.57 174.843 103C173.121 104.431 171.644 105.494 171.55 105.38Z" fill="#17282F"></path>
    <path d="M172.996 106.98C172.899 106.869 174.147 105.622 175.784 104.194C177.42 102.767 178.826 101.699 178.923 101.811C179.019 101.922 177.771 103.169 176.134 104.597C174.498 106.025 173.092 107.091 172.996 106.98Z" fill="#17282F"></path>
    <path d="M145.702 96.5293L140.412 96.3095L140.756 88.0533L146.046 88.2741L145.702 96.5293Z" fill="#17282F"></path>
    <path d="M148.78 90.8613L137.885 90.4071L138.255 81.5098C142.108 80.7292 145.754 80.8232 149.15 81.9631L148.78 90.8613Z" fill="#3EB7BB"></path>
    <path d="M149.276 82.005C149.353 82.1096 146.929 83.3144 143.685 83.1788C140.439 83.0762 138.111 81.6961 138.196 81.5973C138.257 81.4395 140.594 82.5513 143.705 82.6452C146.812 82.7798 149.226 81.8433 149.276 82.005Z" fill="#17282F"></path>
    <path d="M141.484 90.5332C141.336 90.5264 141.288 88.8132 141.376 86.7068C141.463 84.5994 141.654 82.8968 141.801 82.9026C141.949 82.9094 141.998 84.6217 141.91 86.729C141.822 88.8355 141.632 90.539 141.484 90.5332Z" fill="#17282F"></path>
    <path d="M143.556 90.6699C143.408 90.6641 143.36 88.9431 143.449 86.827C143.537 84.71 143.727 82.9996 143.875 83.0055C144.022 83.0122 144.07 84.7322 143.982 86.8493C143.894 88.9654 143.703 90.6767 143.556 90.6699Z" fill="#17282F"></path>
    <path d="M145.63 90.7207C145.482 90.7149 145.435 88.9949 145.523 86.8778C145.611 84.7607 145.802 83.0504 145.949 83.0562C146.096 83.063 146.144 84.783 146.056 86.9001C145.968 89.0162 145.777 90.7275 145.63 90.7207Z" fill="#17282F"></path>
    <path d="M147.356 90.7949C147.209 90.7881 147.166 88.9296 147.262 86.6412C147.357 84.3536 147.554 82.5048 147.701 82.5106C147.848 82.5164 147.891 84.3759 147.796 86.6634C147.7 88.951 147.503 90.8007 147.356 90.7949Z" fill="#17282F"></path>
    <path d="M139.526 90.416C139.379 90.4092 139.337 88.5498 139.431 86.2622C139.527 83.9747 139.724 82.1249 139.871 82.1308C140.018 82.1375 140.061 83.997 139.966 86.2845C139.87 88.572 139.674 90.4218 139.526 90.416Z" fill="#17282F"></path>
    <path d="M179.405 133.928C178.521 155.182 160.573 171.695 139.319 170.81C118.064 169.926 101.552 151.978 102.436 130.723C103.321 109.469 121.269 92.9566 142.523 93.8408C163.777 94.7259 180.29 112.673 179.405 133.928Z" fill="#3EB7BB"></path>
    <path d="M173.254 133.364C172.511 151.215 157.439 165.083 139.588 164.341C121.737 163.597 107.869 148.524 108.613 130.674C109.355 112.823 124.429 98.9555 142.278 99.6983C160.129 100.441 173.998 115.514 173.254 133.364Z" fill="white"></path>
    <path d="M173.255 133.363C173.255 133.363 173.235 133.185 173.223 132.838C173.214 132.47 173.2 131.959 173.183 131.3C173.176 130.96 173.168 130.584 173.16 130.169C173.132 129.753 173.062 129.301 173.009 128.811C172.894 127.83 172.793 126.694 172.471 125.451C172.003 122.933 170.955 119.938 169.242 116.739C167.513 113.552 164.97 110.193 161.438 107.286C157.917 104.405 153.427 101.892 148.171 100.734C146.851 100.491 145.521 100.162 144.132 100.097C143.441 100.045 142.746 99.948 142.044 99.9306C141.34 99.9374 140.63 99.9451 139.915 99.9529C139.559 99.9626 139.198 99.9451 138.84 99.9781L137.764 100.098C137.044 100.187 136.315 100.241 135.591 100.36C134.159 100.687 132.68 100.913 131.262 101.438C129.804 101.839 128.421 102.494 127.003 103.103C126.311 103.442 125.644 103.843 124.957 104.214C124.258 104.566 123.614 105.014 122.967 105.466C121.625 106.307 120.44 107.379 119.201 108.408C118.073 109.556 116.892 110.677 115.906 111.993C113.886 114.563 112.099 117.439 110.955 120.635C109.776 123.808 109.071 127.203 108.88 130.679C108.782 134.16 109.2 137.602 110.11 140.865C110.984 144.146 112.528 147.16 114.325 149.89C115.199 151.284 116.283 152.5 117.312 153.739C118.461 154.867 119.555 156.034 120.821 156.983C121.428 157.489 122.033 157.988 122.7 158.398C123.354 158.824 123.986 159.279 124.648 159.674C126.011 160.4 127.335 161.168 128.754 161.689C130.124 162.33 131.578 162.678 132.979 163.123C133.691 163.301 134.413 163.416 135.123 163.564L136.186 163.774C136.54 163.836 136.9 163.849 137.255 163.888C137.966 163.955 138.673 164.021 139.374 164.087C139.827 164.113 140.278 164.106 140.728 164.099C140.976 164.095 141.223 164.092 141.469 164.094C142.86 164.145 144.212 163.927 145.548 163.795C150.882 163.077 155.565 160.946 159.313 158.367C163.075 155.763 165.888 152.627 167.876 149.595C169.848 146.55 171.141 143.652 171.816 141.183C172.241 139.97 172.435 138.847 172.632 137.879C172.726 137.395 172.833 136.95 172.895 136.539C172.938 136.126 172.976 135.751 173.011 135.413C173.083 134.759 173.139 134.25 173.18 133.884C173.221 133.539 173.255 133.363 173.255 133.363C173.255 133.363 173.257 133.541 173.234 133.887C173.207 134.255 173.168 134.765 173.119 135.424C173.091 135.765 173.061 136.143 173.027 136.557C172.974 136.973 172.874 137.42 172.788 137.908C172.607 138.883 172.427 140.016 172.016 141.242C171.366 143.736 170.092 146.669 168.125 149.758C166.144 152.834 163.321 156.022 159.53 158.677C155.752 161.306 151.016 163.486 145.61 164.233C144.258 164.373 142.886 164.597 141.477 164.551C141.229 164.55 140.98 164.555 140.73 164.558C140.272 164.566 139.812 164.575 139.351 164.55C138.64 164.485 137.924 164.42 137.201 164.355C136.841 164.315 136.476 164.303 136.117 164.242L135.037 164.032C134.317 163.883 133.583 163.769 132.861 163.59C131.438 163.143 129.96 162.791 128.567 162.144C127.124 161.617 125.778 160.841 124.392 160.106C123.719 159.706 123.077 159.245 122.412 158.814C121.734 158.399 121.118 157.892 120.5 157.38C119.213 156.417 118.099 155.234 116.931 154.089C115.883 152.833 114.781 151.597 113.891 150.182C112.061 147.41 110.49 144.346 109.6 141.011C108.671 137.695 108.245 134.195 108.347 130.656C108.539 127.123 109.257 123.672 110.458 120.446C111.623 117.197 113.442 114.276 115.497 111.666C116.501 110.33 117.702 109.191 118.851 108.027C120.11 106.983 121.317 105.896 122.68 105.044C123.338 104.585 123.994 104.132 124.704 103.774C125.402 103.4 126.081 102.995 126.785 102.651C128.226 102.034 129.633 101.374 131.114 100.969C132.556 100.44 134.057 100.211 135.511 99.8851C136.246 99.766 136.987 99.7127 137.717 99.6246L138.81 99.5064C139.045 99.4851 139.282 99.4851 139.517 99.4861C139.645 99.4861 139.773 99.4861 139.9 99.4832C140.626 99.4774 141.345 99.4725 142.059 99.4677C142.772 99.488 143.477 99.5868 144.177 99.643C145.585 99.7137 146.933 100.051 148.27 100.302C153.595 101.496 158.133 104.062 161.679 106.996C165.237 109.955 167.785 113.367 169.505 116.597C171.209 119.839 172.235 122.869 172.674 125.409C172.983 126.664 173.069 127.808 173.167 128.796C173.212 129.289 173.275 129.743 173.293 130.161C173.292 130.578 173.291 130.956 173.29 131.298C173.285 131.959 173.281 132.47 173.278 132.84C173.272 133.187 173.255 133.363 173.255 133.363Z" fill="#17282F"></path>
    <path d="M168.555 132.663C165.605 132.586 163.214 132.345 163.215 132.126C163.216 131.905 165.609 131.686 168.56 131.636C171.509 131.586 173.901 131.826 173.899 132.172C173.897 132.519 171.504 132.739 168.555 132.663Z" fill="#17282F"></path>
    <path d="M160.122 151.899C158.078 149.769 156.547 147.916 156.702 147.762C156.857 147.607 158.712 149.134 160.846 151.173C162.978 153.211 164.51 155.064 164.264 155.31C164.019 155.556 162.163 154.028 160.122 151.899Z" fill="#17282F"></path>
    <path d="M140.595 159.645C140.64 156.694 140.855 154.301 141.074 154.301C141.293 154.304 141.538 156.687 141.622 159.638C141.704 162.585 141.49 164.987 141.143 164.986C140.796 164.986 140.551 162.594 140.595 159.645Z" fill="#17282F"></path>
    <path d="M121.267 151.424C123.375 149.357 125.211 147.807 125.367 147.959C125.524 148.112 124.017 149.984 122 152.141C119.987 154.295 118.151 155.846 117.902 155.604C117.654 155.361 119.161 153.489 121.267 151.424Z" fill="#17282F"></path>
    <path d="M113.304 131.984C116.257 131.996 118.647 132.184 118.652 132.404C118.658 132.624 116.271 132.895 113.322 133.01C110.375 133.124 107.977 132.936 107.969 132.588C107.962 132.242 110.356 131.971 113.304 131.984Z" fill="#17282F"></path>
    <path d="M121.314 112.565C123.403 114.65 124.975 116.468 124.824 116.627C124.672 116.785 122.784 115.298 120.606 113.306C118.43 111.316 116.858 109.497 117.098 109.246C117.339 108.995 119.227 110.481 121.314 112.565Z" fill="#17282F"></path>
    <path d="M140.665 104.39C140.685 107.34 140.522 109.737 140.302 109.744C140.082 109.751 139.786 107.367 139.64 104.419C139.493 101.473 139.656 99.0745 140.003 99.0639C140.35 99.0532 140.646 101.44 140.665 104.39Z" fill="#17282F"></path>
    <path d="M160.171 112.187C158.109 114.298 156.307 115.889 156.147 115.74C155.987 115.59 157.453 113.686 159.421 111.487C161.388 109.288 163.189 107.697 163.443 107.934C163.698 108.172 162.231 110.077 160.171 112.187Z" fill="#17282F"></path>
    <path d="M150.658 115.218C150.623 119.962 150.281 124.706 149.637 129.407C149.404 131.107 149.124 132.826 148.411 134.389C147.698 135.951 146.495 137.359 144.889 137.963C143.282 138.568 141.262 138.205 140.211 136.847L150.658 115.218Z" fill="#DADBD8"></path>
    <path d="M140.338 129.441L152.908 110.148L144.888 132.184L141.221 133.117L140.338 129.441Z" fill="#3EB7BB"></path>
    <path d="M144.889 132.184L143.355 129.997L152.908 110.148L144.889 132.184Z" fill="#093E8E"></path>
    <path d="M145.003 133.274C144.915 135.362 143.153 136.984 141.065 136.897C138.977 136.81 137.355 135.047 137.441 132.959C137.528 130.871 139.292 129.249 141.38 129.335C143.467 129.422 145.089 131.186 145.003 133.274Z" fill="#FAFAF9"></path>
    <path d="M145.003 133.275C144.955 133.274 144.965 132.936 144.821 132.368C144.679 131.81 144.322 130.994 143.514 130.353C142.734 129.71 141.436 129.324 140.157 129.748C138.888 130.133 137.76 131.419 137.709 132.97C137.63 134.52 138.648 135.897 139.88 136.387C141.12 136.915 142.445 136.639 143.276 136.062C144.135 135.49 144.559 134.707 144.746 134.163C144.937 133.609 144.955 133.271 145.003 133.275C145.027 133.273 145.083 133.617 144.946 134.222C144.809 134.814 144.412 135.697 143.493 136.372C142.605 137.049 141.119 137.418 139.693 136.842C138.278 136.313 137.083 134.736 137.175 132.949C137.232 131.159 138.554 129.688 140.008 129.278C141.477 128.822 142.927 129.313 143.756 130.063C144.616 130.811 144.938 131.725 145.024 132.325C145.112 132.94 145.027 133.278 145.003 133.275Z" fill="#17282F"></path>
    <path d="M144.036 133.235C143.972 134.789 142.659 135.996 141.105 135.931C139.551 135.867 138.344 134.555 138.409 133.001C138.473 131.446 139.785 130.239 141.339 130.304C142.894 130.369 144.1 131.68 144.036 133.235Z" fill="#33535F"></path>
    <path d="M58.5779 94.0703L57.9844 54.2412L58.5735 54.2325C58.5748 67.6455 58.5765 80.9375 58.5779 94.0703Z" fill="#A7A9A8"></path>
    <path d="M87.7891 11.857H15.9159C12.2247 11.857 9.23242 14.927 9.23242 18.7149V92.4663C9.23242 96.2542 12.2247 99.3242 15.9159 99.3242H17.9774H38.0286H87.7891C91.4804 99.3242 94.473 96.2542 94.473 92.4663V18.7149C94.473 14.927 91.4804 11.857 87.7891 11.857Z" fill="white"></path>
    <path d="M9.32188 39.4727H94.3834L94.473 39.383V17.008C94.473 14.1634 92.1661 11.8566 89.3215 11.8566H14.1792C11.4473 11.8566 9.23242 14.0712 9.23242 16.8035V39.383L9.32188 39.4727Z" fill="#3EB7BB"></path>
    <path d="M46.2107 50.7739V80.3201L46.1187 80.4141H39.5964L39.5046 80.3201V56.2961L39.4128 56.2021H33.8011L33.709 56.1081V50.7739L33.8011 50.68H46.1187L46.2107 50.7739Z" fill="#17282F"></path>
    <path d="M73.9478 50.7739V55.1205L73.9399 55.1588L63.2082 80.3566L63.1244 80.4141H56.0399L55.9559 80.2809L66.2321 56.4197L66.1482 56.2874H56.7774L56.6854 56.3814V61.036L56.5936 61.13H50.8163L50.7246 61.036V50.7739L50.8163 50.68H73.8555L73.9478 50.7739Z" fill="#17282F"></path>
    <path d="M39.9473 27.5217C39.9473 27.6774 45.804 27.8027 53.0271 27.8027C60.2528 27.8027 66.1082 27.6774 66.1082 27.5217C66.1082 27.3676 60.2528 27.2423 53.0271 27.2423C45.804 27.2423 39.9473 27.3676 39.9473 27.5217Z" fill="#17282F"></path>
    <path d="M87.8811 11.8554C87.8811 11.8554 88.1709 11.8363 88.7321 11.8937C89.2908 11.9503 90.1357 12.1286 91.1104 12.6699C92.0684 13.2146 93.1762 14.1597 93.8836 15.672C94.2378 16.4195 94.4832 17.2984 94.5345 18.2573C94.5737 19.2128 94.5519 20.2178 94.5632 21.289C94.5806 29.8586 94.6059 42.2387 94.6372 57.5339C94.6459 65.1862 94.6555 73.567 94.6659 82.5638C94.6677 84.8123 94.6694 87.1 94.6711 89.4252C94.6642 90.5921 94.692 91.7477 94.6555 92.9503C94.6059 94.1677 94.2038 95.3668 93.5495 96.4023C92.8786 97.4239 91.9518 98.2949 90.8449 98.8309C89.759 99.4087 88.4746 99.5758 87.2789 99.5384C84.8772 99.5402 82.4433 99.5419 79.9781 99.5428C60.2602 99.5489 38.5842 99.5549 15.8313 99.5619C12.858 99.6037 10.0541 97.4282 9.27707 94.5253C9.05613 93.8135 9.00679 93.0503 9 92.3255V90.1744C9.00035 88.7421 9.00035 87.3158 9.0007 85.894C9.00174 80.2073 9.00305 74.6042 9.00409 69.0994C9.00888 58.0882 9.01366 47.4676 9.01766 37.3491C9.02115 32.2907 9.02454 27.3577 9.02758 22.5647C9.02854 21.3665 9.02924 20.177 9.03028 18.9961C9.0201 18.4122 9.06491 17.7918 9.17273 17.2044L9.17473 17.1948C9.31509 16.6118 9.47799 16.0305 9.75601 15.5032C10.2648 14.4224 11.082 13.5261 12.0178 12.8518C12.9743 12.2026 14.0763 11.7919 15.2007 11.6892C24.0028 11.6335 32.1465 11.6901 39.6104 11.6866C54.516 11.7188 66.5796 11.7449 74.9302 11.7623C79.0923 11.7823 82.3259 11.7971 84.5335 11.8075C85.623 11.818 86.4557 11.8258 87.0301 11.831C87.5931 11.8389 87.8811 11.8554 87.8811 11.8554C87.8811 11.8554 87.5931 11.8719 87.0301 11.8798C86.4557 11.8859 85.623 11.8937 84.5335 11.9033C82.3259 11.9146 79.0923 11.9294 74.9302 11.9485C66.5796 11.9668 54.516 11.992 39.6104 12.0242C32.1618 12.0495 23.9678 12.0147 15.2357 12.0843C14.1756 12.1826 13.1388 12.5724 12.238 13.185C11.358 13.8229 10.5884 14.6678 10.1123 15.6868C9.85051 16.1819 9.69989 16.7302 9.56771 17.2784L9.56527 17.2879C9.46642 17.8501 9.42386 18.4027 9.43448 18.9961C9.43509 20.177 9.43613 21.3665 9.43718 22.5647C9.44022 27.3577 9.44362 32.2907 9.44666 37.3491C9.4511 47.4676 9.45589 58.0882 9.46024 69.0994C9.46163 74.6042 9.46268 80.2073 9.46398 85.894C9.46398 87.3158 9.46433 88.7421 9.46433 90.1744C9.50688 91.6076 9.32736 93.0642 9.72373 94.3913C10.4477 97.0958 13.0606 99.1233 15.8313 99.0842C38.5842 99.0911 60.2602 99.0972 79.9781 99.1025C82.4433 99.1042 84.8772 99.1059 87.2789 99.1077C88.4754 99.1425 89.6276 98.9893 90.6639 98.4481C91.7038 97.9468 92.5749 97.1289 93.2084 96.1708C93.8236 95.1979 94.2047 94.0728 94.2517 92.9268C94.29 91.7703 94.2639 90.5816 94.2735 89.4252C94.2752 87.1 94.2769 84.8123 94.2795 82.5638C94.2891 73.567 94.2987 65.1862 94.3074 57.5339C94.3387 42.2387 94.364 29.8586 94.3814 21.289C94.377 20.2213 94.4066 19.2041 94.3744 18.2652C94.3318 17.3288 94.0986 16.4691 93.7592 15.7338C93.0796 14.2467 92.0023 13.3042 91.0642 12.7543C90.1114 12.2069 89.2786 12.0138 88.7261 11.9424C88.4502 11.8876 88.2361 11.8989 88.0952 11.8789C87.9533 11.8676 87.8811 11.8554 87.8811 11.8554Z" fill="#17282F"></path>
    <path d="M39.2249 23.0391C40.7566 23.0391 41.9982 21.7642 41.9982 20.1927V6.1297C41.9982 4.55729 40.7569 3.28334 39.2249 3.28334H39.2245C37.6929 3.28334 36.4512 4.55726 36.4512 6.12881V20.1927C36.4512 21.7642 37.6933 23.0391 39.2249 23.0391Z" fill="#DADBD8"></path>
    <path d="M39.1331 23.0382C39.1572 22.9634 38.4383 23.0782 37.5569 22.3734C37.1381 22.0218 36.7211 21.4267 36.631 20.6426C36.5919 19.8577 36.6439 18.8805 36.6446 17.8467C36.6612 15.7269 36.6813 13.2469 36.703 10.5094C36.7081 9.12489 36.7132 7.67691 36.719 6.17672C36.6956 5.47187 36.9379 4.79572 37.4223 4.29363C37.909 3.79153 38.5804 3.52875 39.3159 3.56269C40.0176 3.56008 40.6933 3.88901 41.1383 4.41808C41.6005 4.95759 41.7726 5.6259 41.7314 6.36469C41.7369 7.86488 41.7423 9.31372 41.7474 10.6982C41.7692 13.4358 41.7888 15.9158 41.8059 18.0356C41.8127 18.5542 41.8191 19.051 41.8252 19.5253C41.8235 20.0004 41.8664 20.4425 41.7926 20.8184C41.6461 21.5946 41.1909 22.1576 40.7514 22.4813C39.8248 23.1209 39.1127 22.959 39.1331 23.0382C39.1341 23.0556 39.2877 23.0817 39.5954 23.08C39.8989 23.0669 40.3626 22.9826 40.8701 22.6623C41.3636 22.3412 41.8963 21.7469 42.0914 20.8828C42.19 20.4433 42.1563 19.9891 42.1722 19.5253C42.1784 19.051 42.1848 18.5542 42.1916 18.0356C42.2086 15.9158 42.2284 13.4358 42.2501 10.6982C42.2552 9.31372 42.2603 7.86488 42.2661 6.36469C42.3218 5.61024 42.1124 4.68175 41.5488 4.05348C41.0078 3.4052 40.1743 2.99796 39.3159 3.00319C38.4988 2.95881 37.6113 3.28598 37.0368 3.9012C36.4454 4.50162 36.15 5.38137 36.1843 6.17672C36.1897 7.67691 36.1952 9.12489 36.2 10.5094C36.2221 13.2469 36.2418 15.7269 36.2587 17.8467C36.2839 18.8996 36.255 19.816 36.3284 20.6844C36.4611 21.5607 36.9536 22.1933 37.4267 22.5448C37.9063 22.9077 38.3696 23.0139 38.6691 23.0513C38.974 23.087 39.1341 23.0487 39.1331 23.0382Z" fill="#17282F"></path>
    <path d="M65.2464 23.0391H65.2466C66.7783 23.0391 68.0201 21.7651 68.0201 20.1927V6.1297C68.0201 4.55729 66.7783 3.28334 65.2466 3.28334H65.2464C63.7147 3.28334 62.4727 4.55729 62.4727 6.1297V20.1927C62.4727 21.7642 63.7147 23.0391 65.2464 23.0391Z" fill="#DADBD8"></path>
    <path d="M65.1549 23.0382C65.1786 22.9634 64.4598 23.0782 63.5787 22.3734C63.1599 22.0218 62.7425 21.4267 62.6524 20.6426C62.6137 19.8577 62.6656 18.8805 62.666 17.8467C62.6831 15.7269 62.7027 13.2469 62.7245 10.5094C62.7296 9.12489 62.735 7.67691 62.7405 6.17672C62.7173 5.47187 62.9593 4.79572 63.4438 4.29363C63.9312 3.79153 64.6021 3.52875 65.3377 3.56269C66.039 3.56008 66.7151 3.88901 67.1601 4.41808C67.6223 4.95759 67.7943 5.6259 67.7528 6.36469C67.7586 7.86488 67.7637 9.31372 67.7692 10.6982C67.7909 13.4358 67.8106 15.9158 67.8277 18.0356C67.8344 18.5542 67.8405 19.051 67.8466 19.5253C67.8453 20.0004 67.8881 20.4425 67.814 20.8184C67.6679 21.5946 67.2123 22.1576 66.7729 22.4813C65.8462 23.1209 65.1344 22.959 65.1549 23.0382C65.1556 23.0556 65.3092 23.0817 65.6168 23.08C65.9207 23.0669 66.3844 22.9826 66.8915 22.6623C67.3854 22.3412 67.9177 21.7469 68.1128 20.8828C68.2114 20.4433 68.1777 19.9891 68.1937 19.5253C68.2002 19.051 68.2066 18.5542 68.2131 18.0356C68.2301 15.9158 68.2498 13.4358 68.2715 10.6982C68.277 9.31372 68.2824 7.86488 68.2875 6.36469C68.3436 5.61024 68.1339 4.68175 67.5707 4.05348C67.0292 3.4052 66.1957 2.99796 65.3377 3.00319C64.5203 2.95881 63.6331 3.28598 63.0583 3.9012C62.4668 4.50162 62.1718 5.38137 62.2058 6.17672C62.2112 7.67691 62.2166 9.12489 62.2218 10.5094C62.2435 13.2469 62.2632 15.7269 62.2802 17.8467C62.3057 18.8996 62.2765 19.816 62.3502 20.6844C62.4825 21.5607 62.9753 22.1933 63.4482 22.5448C63.9278 22.9077 64.391 23.0139 64.6909 23.0513C64.9958 23.087 65.1556 23.0487 65.1549 23.0382Z" fill="#17282F"></path>
    <path d="M59.8633 41.0389C59.8633 41.0389 60.0173 41.0267 60.3191 41.0249C60.6203 41.0267 61.0707 41.018 61.6597 41.038C62.8277 41.1564 64.5782 41.353 66.6837 42.1545C68.7793 42.9472 71.2089 44.3473 73.5062 46.5706C74.6366 47.6914 75.7626 48.9967 76.6824 50.5613C77.6091 52.1111 78.4419 53.8654 78.9083 55.8302C79.8803 59.7443 79.5453 64.3528 77.7536 68.7376C75.9419 73.0973 72.8397 77.3159 68.5624 80.4912C64.3155 83.683 59.0006 85.9116 53.2564 86.6399C47.5298 87.3378 41.3349 86.5694 35.8065 83.8475C33.0515 82.4943 30.5331 80.7035 28.4871 78.5089C26.4354 76.3221 24.8725 73.7334 23.9452 70.9784C23.0115 68.2303 22.682 65.3135 23.0852 62.5367C23.4778 59.7565 24.575 57.1799 26.0027 54.9383C28.8916 50.4325 32.9621 47.1893 37.0469 44.8686C41.1826 42.5808 45.4383 41.2495 49.3932 40.616C53.3557 39.979 57.0199 40.0356 60.1726 40.4393C63.326 40.8561 66.0015 41.5366 68.0886 42.3468C68.6114 42.546 69.1195 42.6974 69.57 42.9072C70.0203 43.1125 70.4423 43.3057 70.8348 43.485C71.2246 43.6651 71.5849 43.8322 71.9164 43.9853C72.2314 44.1628 72.5177 44.3256 72.7761 44.4709C73.2739 44.7563 73.6602 44.9782 73.9378 45.1366C74.198 45.2888 74.3251 45.3767 74.3251 45.3767C74.3251 45.3767 74.1815 45.3158 73.9143 45.1766C73.6315 45.0278 73.2391 44.8198 72.7326 44.5518C72.4724 44.4117 72.1835 44.2568 71.8659 44.0863C71.5326 43.9401 71.1706 43.78 70.7791 43.6077C70.3849 43.4354 69.9621 43.2491 69.5108 43.0507C69.06 42.8488 68.5515 42.7053 68.0291 42.513C65.9434 41.7324 63.2767 41.0815 60.1421 40.6908C57.0077 40.3132 53.3706 40.2801 49.4442 40.9319C45.5257 41.581 41.3155 42.9185 37.2315 45.1957C33.198 47.5052 29.1819 50.7292 26.3555 55.1619C24.9578 57.367 23.8915 59.8888 23.5138 62.5976C23.1253 65.3013 23.4493 68.1485 24.3653 70.8348C25.2756 73.5289 26.8056 76.0594 28.8162 78.2009C30.822 80.3502 33.2949 82.1089 36.0061 83.4402C41.4471 86.1195 47.5512 86.8818 53.201 86.1987C58.8687 85.4869 64.1163 83.2967 68.3119 80.157C72.5342 77.0374 75.606 72.884 77.4055 68.5949C79.185 64.2832 79.5314 59.7539 78.5968 55.9068C77.6344 52.0528 75.5642 48.9514 73.3278 46.7516C71.0758 44.5379 68.6858 43.1291 66.6198 42.3189C64.5443 41.4992 62.812 41.2764 61.6526 41.1285C61.0809 41.1041 60.6376 41.085 60.3191 41.0711C60.0183 41.058 59.8633 41.0389 59.8633 41.0389Z" fill="#17282F"></path>
    <path d="M64 154.5C64 165.269 55.2694 174 44.5 174C33.7306 174 25 165.269 25 154.5C25 143.731 33.7306 135 44.5 135C55.2694 135 64 143.731 64 154.5Z" fill="#3EB7BB"></path>
    <path d="M45.864 153.343C47.6935 152.563 48.994 150.644 49.0047 148.384C49.0164 145.424 46.8129 143.013 44.0815 143C41.3522 142.987 39.1284 145.377 39.1166 148.338C39.107 150.619 40.4171 152.559 42.2669 153.343C34.6583 154.509 35.0024 162.915 35.0024 162.915L52.996 163C52.996 163 53.4064 154.501 45.864 153.343Z" fill="white"></path>
  </g>
  <defs>
    <clipPath id="clip0_9512_5429">
      <rect width="312" height="200" fill="white"></rect>
    </clipPath>
  </defs>
</svg>
