<?xml version="1.0" encoding="UTF-8"?>
<svg xmlns="http://www.w3.org/2000/svg" width="312" height="200" viewBox="0 0 312 200" fill="none">
  <path d="M293.366 196.363H18.3507C8.90314 196.363 1.24609 188.705 1.24609 179.259V15.8718C1.24609 9.97813 6.02496 5.19928 11.9187 5.19928H298.562C305.138 5.19928 310.471 10.5315 310.471 17.1091V179.259C310.471 188.705 302.813 196.363 293.366 196.363Z" fill="white"></path>
  <path d="M310.037 36.8105H1.24609V13.6164C1.24609 8.96805 5.01343 5.19939 9.66177 5.19939H300.384C305.715 5.19939 310.037 9.52144 310.037 14.8523V36.8105Z" fill="#DADBD8"></path>
  <path d="M310.037 36.8092C310.037 37.005 241.004 37.1641 155.866 37.1641C70.6979 37.1641 1.67969 37.005 1.67969 36.8092C1.67969 36.6148 70.6979 36.4557 155.866 36.4557C241.004 36.4557 310.037 36.6148 310.037 36.8092Z" fill="#17282F"></path>
  <path d="M18.1148 21.6913C18.1148 23.2997 16.8096 24.6035 15.2012 24.6035C13.5929 24.6035 12.2891 23.2997 12.2891 21.6913C12.2891 20.0816 13.5929 18.7778 15.2012 18.7778C16.8096 18.7778 18.1148 20.0816 18.1148 21.6913Z" fill="#17282F"></path>
  <path d="M27.4156 21.6913C27.4156 23.2997 26.1118 24.6035 24.502 24.6035C22.8937 24.6035 21.5898 23.2997 21.5898 21.6913C21.5898 20.0816 22.8937 18.7778 24.502 18.7778C26.1118 18.7778 27.4156 20.0816 27.4156 21.6913Z" fill="#17282F"></path>
  <path d="M36.9033 21.6913C36.9033 23.2997 35.5994 24.6035 33.9897 24.6035C32.3814 24.6035 31.0762 23.2997 31.0762 21.6913C31.0762 20.0816 32.3814 18.7778 33.9897 18.7778C35.5994 18.7778 36.9033 20.0816 36.9033 21.6913Z" fill="#17282F"></path>
  <path d="M35.6889 175.445H25.4922V133.639H35.6889V175.445Z" fill="#E7E8E5"></path>
  <path d="M71.3765 175.445H60.1602V133.639H71.3765V175.445Z" fill="#E7E8E5"></path>
  <path d="M54.0426 175.445H42.8262V96.9306H54.0426V175.445Z" fill="#F3F2F1"></path>
  <path d="M88.7123 175.445H78.5156V96.9306H88.7123V175.445Z" fill="#F3F2F1"></path>
  <path d="M107.066 175.445H96.8691V98.9699H107.066V175.445Z" fill="#E7E8E5"></path>
  <path d="M142.754 175.445H131.537V98.9699H142.754V175.445Z" fill="#E7E8E5"></path>
  <path d="M178.443 175.445H168.246V98.9699H178.443V175.445Z" fill="#E7E8E5"></path>
  <path d="M125.42 175.445H114.203V58.183H125.42V175.445Z" fill="#F3F2F1"></path>
  <path d="M161.109 175.445H150.912V69.3994H161.109V175.445Z" fill="#F3F2F1"></path>
  <path d="M231.466 175.445H221.27V98.9699H231.466V175.445Z" fill="#E7E8E5"></path>
  <path d="M214.13 175.445H202.914V113.245H214.13V175.445Z" fill="#F3F2F1"></path>
  <path d="M269.193 175.445H257.977V57.1633H269.193V175.445Z" fill="#E7E8E5"></path>
  <path d="M251.859 175.445H240.643V113.245H251.859V175.445Z" fill="#F3F2F1"></path>
  <path d="M286.529 175.445H276.332V113.245H286.529V175.445Z" fill="#F3F2F1"></path>
  <path d="M196.796 175.445H185.58V85.7142H196.796V175.445Z" fill="#E7E8E5"></path>
  <path d="M138.259 106.838L138.138 102.185L139.299 102.204L137.129 99.5533L134.961 102.229L136.163 102.236L136.282 106.826L138.259 106.838Z" fill="#E7E8E5"></path>
  <path d="M208.458 119.221L191.698 104.069L136.084 133.677L29.0552 154.785L28.5508 153.523L136.004 132.32L191.836 102.396L208.681 117.566L247.801 88.9227L281.745 58.0702V59.4297L248.28 90.2021L208.458 119.221Z" fill="black"></path>
  <path d="M208.458 139.613L154.99 141.796L101.416 154.069L29.0552 164.98L28.5508 163.719L101.335 152.712L155.128 140.122L208.013 138.227L247.801 122.57L281.745 119.249V120.609L248.28 123.85L208.458 139.613Z" fill="#3EB7BB"></path>
  <path d="M210.587 138.862C210.587 140.167 209.531 141.225 208.226 141.225C206.92 141.225 205.861 140.167 205.861 138.862C205.861 137.558 206.92 136.499 208.226 136.499C209.531 136.499 210.587 137.558 210.587 138.862Z" fill="#3EB7BB"></path>
  <path d="M208.226 135.005C206.049 135.005 204.279 136.775 204.279 138.951C204.279 141.127 206.049 142.897 208.226 142.897C210.401 142.897 212.171 141.127 212.171 138.951C212.171 136.775 210.401 135.005 208.226 135.005ZM208.226 143.242C205.859 143.242 203.934 141.317 203.934 138.951C203.934 136.584 205.859 134.659 208.226 134.659C210.591 134.659 212.517 136.584 212.517 138.951C212.517 141.317 210.591 143.242 208.226 143.242Z" fill="#3EB7BB"></path>
  <path d="M250.355 122.545C250.355 123.85 249.298 124.908 247.993 124.908C246.688 124.908 245.629 123.85 245.629 122.545C245.629 121.24 246.688 120.182 247.993 120.182C249.298 120.182 250.355 121.24 250.355 122.545Z" fill="#3EB7BB"></path>
  <path d="M247.993 118.69C245.817 118.69 244.047 120.46 244.047 122.637C244.047 124.812 245.817 126.582 247.993 126.582C250.167 126.582 251.939 124.812 251.939 122.637C251.939 120.46 250.167 118.69 247.993 118.69ZM247.993 126.928C245.626 126.928 243.701 125.003 243.701 122.637C243.701 120.27 245.626 118.345 247.993 118.345C250.359 118.345 252.284 120.27 252.284 122.637C252.284 125.003 250.359 126.928 247.993 126.928Z" fill="#3EB7BB"></path>
  <path d="M248.131 153.875L248.004 149.038L249.213 149.058L246.956 146.301L244.701 149.084L245.951 149.091L246.076 153.863L248.131 153.875Z" fill="#E7E8E5"></path>
  <path d="M294.137 196.364C294.137 196.364 294.38 196.339 294.864 196.309C295.109 196.294 295.408 196.275 295.765 196.255C296.123 196.198 296.536 196.134 297.007 196.061C297.946 195.899 299.094 195.575 300.407 195.054C301.693 194.478 303.145 193.689 304.573 192.496C305.996 191.306 307.391 189.71 308.465 187.684C309.535 185.663 310.264 183.202 310.343 180.489C310.34 175.032 310.337 168.737 310.333 161.653C310.306 133.295 310.268 92.2756 310.222 41.5898C310.208 16.2434 310.193 59.8595 310.178 30.0552C310.177 26.3314 310.175 22.5735 310.174 18.7858C310.163 16.8797 310.271 14.9926 309.708 13.2115C309.158 11.4414 308.167 9.78683 306.802 8.5034C305.447 7.20911 303.753 6.26283 301.913 5.82776C300.094 5.3356 298.13 5.55858 296.172 5.50691C292.262 5.50827 288.322 5.50969 284.352 5.51105C268.478 5.51648 252.138 5.52055 235.384 5.52599C168.363 5.53551 94.6806 5.54364 17.3419 5.55452C14.9409 5.57899 12.4706 5.49876 10.139 5.60889C7.82227 5.84816 5.62658 6.98071 4.07668 8.70328C2.51726 10.4177 1.61316 12.7072 1.60364 15.0211C1.60228 17.4167 1.60092 19.8068 1.59956 22.1928C1.5982 31.7438 1.5982 41.2308 1.5982 50.6499C1.59548 69.4852 1.59412 16.6676 1.59276 34.9047C1.58596 71.3805 1.57916 106.562 1.57236 140.078C1.56964 148.457 1.56693 156.731 1.56421 164.895C1.56285 168.978 1.56149 173.032 1.56013 177.059C1.58596 179.08 1.44456 181.084 1.84563 183.002C2.21 184.927 2.93193 186.776 3.95568 188.431C5.99366 191.751 9.25661 194.25 12.9288 195.366C14.7724 195.96 16.6785 196.071 18.6158 196.059C20.5559 196.059 22.4892 196.061 24.4144 196.061C32.1149 196.065 39.6931 196.067 47.1449 196.07C76.9506 196.086 104.713 196.1 130.059 196.114C180.744 196.161 221.76 196.199 250.115 196.226C264.283 196.255 275.285 196.277 282.757 196.293C286.481 196.308 289.324 196.32 291.245 196.327C293.156 196.339 294.137 196.364 294.137 196.364C294.137 196.364 293.156 196.388 291.245 196.4C289.324 196.409 286.481 196.419 282.757 196.436C275.285 196.451 264.283 196.472 250.115 196.501C221.76 196.528 180.744 196.566 130.059 196.614C104.713 196.627 76.9506 196.641 47.1449 196.657C39.6931 196.66 32.1149 196.664 24.4144 196.667C22.4892 196.667 20.5559 196.668 18.6158 196.668C16.6826 196.686 14.6486 196.569 12.7507 195.955C8.9344 194.796 5.54636 192.205 3.42544 188.758C2.36091 187.04 1.61044 185.119 1.22976 183.118C0.812378 181.1 0.959201 179.054 0.93065 177.059C0.92929 173.032 0.927927 168.978 0.926567 164.895C0.923848 156.731 0.922498 148.457 0.919779 140.078C0.912982 106.562 0.90618 71.3805 0.899383 34.9047C0.896663 16.6676 0.895299 69.4852 0.893939 50.6499C0.892579 41.2308 0.892578 31.7438 0.892578 22.1928C0.893938 19.8055 0.895301 17.4126 0.896661 15.0157C0.906178 12.5318 1.87691 10.0683 3.55189 8.22876C5.21464 6.37976 7.5762 5.16164 10.0642 4.90468C12.5454 4.78777 14.9083 4.87201 17.3419 4.84618C94.6806 4.8557 168.363 4.86525 235.384 4.87341C252.138 4.87885 268.478 4.88425 284.352 4.88968C288.322 4.88968 292.262 4.89104 296.172 4.8924L299.099 4.8938C300.086 4.90331 301.098 4.9794 302.06 5.235C304.003 5.69725 305.791 6.69791 307.221 8.06427C308.659 9.42111 309.706 11.1682 310.284 13.0376C310.878 14.9355 310.76 16.9191 310.77 18.7858C310.768 22.5735 310.765 26.3314 310.764 30.0552C310.749 59.8595 310.736 16.2434 310.722 41.5898C310.674 92.2756 310.635 133.295 310.609 161.653C310.587 168.74 310.57 175.036 310.553 180.495C310.462 183.241 309.713 185.729 308.62 187.769C307.524 189.811 306.108 191.415 304.665 192.605C303.216 193.801 301.747 194.585 300.448 195.155C299.122 195.668 297.965 195.98 297.019 196.131C296.546 196.198 296.13 196.258 295.771 196.308C295.412 196.323 295.11 196.335 294.865 196.346C294.38 196.364 294.137 196.364 294.137 196.364Z" fill="#17282F"></path>
  <path d="M87.2089 156.196C87.2089 157.501 86.1525 158.559 84.8473 158.559C83.5421 158.559 82.4844 157.501 82.4844 156.196C82.4844 154.891 83.5421 153.833 84.8473 153.833C86.1525 153.833 87.2089 154.891 87.2089 156.196Z" fill="#3EB7BB"></path>
  <path d="M84.8468 152.339C82.6715 152.339 80.9 154.109 80.9 156.284C80.9 158.461 82.6715 160.231 84.8468 160.231C87.0221 160.231 88.7923 158.461 88.7923 156.284C88.7923 154.109 87.0221 152.339 84.8468 152.339ZM84.8468 160.576C82.4798 160.576 80.5547 158.651 80.5547 156.284C80.5547 153.918 82.4798 151.993 84.8468 151.993C87.2125 151.993 89.1376 153.918 89.1376 156.284C89.1376 158.651 87.2125 160.576 84.8468 160.576Z" fill="#3EB7BB"></path>
  <path d="M158.585 139.971C158.585 141.276 157.527 142.334 156.222 142.334C154.918 142.334 153.859 141.276 153.859 139.971C153.859 138.666 154.918 137.608 156.222 137.608C157.527 137.608 158.585 138.666 158.585 139.971Z" fill="#3EB7BB"></path>
  <path d="M156.225 136.025C154.048 136.025 152.278 137.796 152.278 139.972C152.278 142.147 154.048 143.918 156.225 143.918C158.4 143.918 160.171 142.147 160.171 139.972C160.171 137.796 158.4 136.025 156.225 136.025ZM156.225 144.264C153.858 144.264 151.932 142.339 151.932 139.972C151.932 137.606 153.858 135.679 156.225 135.679C158.591 135.679 160.516 137.606 160.516 139.972C160.516 142.339 158.591 144.264 156.225 144.264Z" fill="#3EB7BB"></path>
  <path d="M179.106 68.7461H87.9153C84.426 68.7461 81.5977 65.9188 81.5977 62.4306V6.59458C81.5977 3.10637 84.426 0.27803 87.9153 0.27803H179.106C182.594 0.27803 185.421 3.10637 185.421 6.59458V62.4306C185.421 65.9188 182.594 68.7461 179.106 68.7461Z" fill="white"></path>
  <path d="M179.104 68.7471C179.103 68.7289 179.397 68.7353 179.959 68.6549C180.515 68.5755 181.36 68.3823 182.303 67.8062C183.241 67.2471 184.28 66.2536 184.883 64.7579C185.544 63.2621 185.262 61.3372 185.311 59.2364C185.29 50.7761 185.26 38.5636 185.223 23.4755C185.217 19.7008 185.211 15.7459 185.204 11.6257C185.203 10.5956 185.202 9.55488 185.2 8.50444C185.176 7.45401 185.27 6.37889 185.073 5.3746C184.66 3.35421 183.14 1.52374 181.093 0.849915C180.083 0.458282 178.988 0.516212 177.851 0.515137C176.722 0.516212 175.585 0.517288 174.438 0.518356C172.144 0.520508 169.816 0.523727 167.45 0.524803C162.722 0.528023 157.855 0.532295 152.866 0.536591C132.901 0.54303 110.956 0.551605 87.9205 0.55912C86.5428 0.567703 85.178 1.03767 84.1147 1.90677C83.0546 2.77265 82.296 3.99477 82.0127 5.32525C81.8689 5.99156 81.8732 6.66645 81.8754 7.38749V9.50981C81.8754 10.9218 81.8754 12.3296 81.8754 13.733C81.8732 19.3435 81.8722 24.8714 81.8711 30.3028C81.8647 41.1666 81.8593 51.6462 81.8539 61.6291C81.8121 62.8855 81.9322 64.0604 82.4923 65.1302C83.0127 66.1913 83.8561 67.0819 84.8647 67.6677C85.8754 68.2622 87.0321 68.5336 88.2069 68.4982C89.4054 68.4993 90.5964 68.5004 91.7789 68.5014C96.5074 68.5068 101.099 68.5111 105.537 68.5165C114.414 68.5272 122.683 68.539 130.234 68.5497C145.321 68.5873 157.533 68.6173 165.993 68.6388C170.203 68.6613 173.476 68.6795 175.715 68.6914C176.815 68.7032 177.657 68.7117 178.243 68.7192C178.812 68.7289 179.104 68.7471 179.104 68.7471C179.104 68.7471 178.812 68.7665 178.243 68.7761C177.657 68.7826 176.815 68.7911 175.715 68.804C173.476 68.8158 170.203 68.8341 165.993 68.8566C157.533 68.8781 145.321 68.9081 130.234 68.9446C122.683 68.9553 114.414 68.9671 105.537 68.9789C101.099 68.9832 96.5074 68.9886 91.7789 68.9929C90.5964 68.9939 89.4054 68.995 88.2069 68.9961C86.9848 69.0379 85.6962 68.7461 84.6104 68.1023C83.5181 67.4692 82.6039 66.5079 82.0363 65.3577C81.429 64.2278 81.2949 62.8555 81.34 61.6291C81.3346 51.6462 81.3292 41.1666 81.3228 30.3028C81.3217 24.8714 81.3207 19.3435 81.3185 13.733C81.3185 12.3296 81.3185 10.9218 81.3185 9.50981L81.3174 7.38749C81.3142 6.69328 81.3089 5.93683 81.4666 5.20829C81.7778 3.75227 82.605 2.41858 83.7617 1.47223C84.9215 0.523727 86.4183 0.00868988 87.9205 0.000106812C110.956 0.00762177 132.901 0.0151291 152.866 0.0226364C157.855 0.025856 162.722 0.030159 167.45 0.0333786C169.816 0.0355225 172.144 0.037674 174.438 0.0398178C175.585 0.0408936 176.722 0.043045 177.851 0.0441132C178.954 0.0473328 180.158 -0.0116882 181.244 0.41214C183.446 1.14497 185.075 3.11387 185.512 5.28555C185.72 6.39392 185.615 7.45831 185.641 8.50444C185.64 9.55488 185.638 10.5956 185.636 11.6257C185.63 15.7459 185.624 19.7008 185.618 23.4755C185.581 38.5636 185.551 50.7761 185.529 59.2364C185.525 60.2922 185.521 61.2879 185.516 62.2235C185.524 63.1688 185.355 64.0604 185.038 64.8201C184.402 66.3491 183.323 67.3491 182.361 67.9016C181.391 68.4735 180.53 68.6506 179.966 68.7107C179.397 68.774 179.104 68.7471 179.104 68.7471Z" fill="#17282F"></path>
  <path d="M132.113 40.0354H128.129V55.8906H132.113V40.0354Z" fill="#3EB7BB"></path>
  <path d="M98.8355 37.7382H94.8516V55.8906H98.8355V37.7382Z" fill="#3EB7BB"></path>
  <path d="M107.155 33.9549H103.17V55.8906H107.155V33.9549Z" fill="#3EB7BB"></path>
  <path d="M115.474 35.1588H111.49V55.8906H115.474V35.1588Z" fill="#3EB7BB"></path>
  <path d="M123.793 28.1448H119.809V55.8906H123.793V28.1448Z" fill="#3EB7BB"></path>
  <path d="M140.431 28.28H136.447V55.8906H140.431V28.28Z" fill="#3EB7BB"></path>
  <path d="M148.751 37.3487H144.768V55.8906H148.751V37.3487Z" fill="#3EB7BB"></path>
  <path d="M157.07 29.4957H153.086V55.8906H157.07V29.4957Z" fill="#3EB7BB"></path>
  <path d="M165.39 23.5504H161.406V55.8906H165.39V23.5504Z" fill="#3EB7BB"></path>
  <path d="M173.707 29.3605H169.725V55.8906H173.707V29.3605Z" fill="#3EB7BB"></path>
  <path d="M95.1843 9.7043C95.1843 11.0895 94.0609 12.2129 92.6757 12.2129C91.2894 12.2129 90.166 11.0895 90.166 9.7043C90.166 8.3191 91.2894 7.1957 92.6757 7.1957C94.0609 7.1957 95.1843 8.3191 95.1843 9.7043Z" fill="#DADBD8"></path>
  <path d="M101.662 9.7043C101.662 11.0895 100.538 12.2129 99.1531 12.2129C97.7679 12.2129 96.6445 11.0895 96.6445 9.7043C96.6445 8.3191 97.7679 7.1957 99.1531 7.1957C100.538 7.1957 101.662 8.3191 101.662 9.7043Z" fill="#DADBD8"></path>
  <path d="M108.141 9.7043C108.141 11.0895 107.018 12.2129 105.632 12.2129C104.246 12.2129 103.123 11.0895 103.123 9.7043C103.123 8.3191 104.246 7.1957 105.632 7.1957C107.018 7.1957 108.141 8.3191 108.141 9.7043Z" fill="#DADBD8"></path>
  <path d="M38.4976 81.5V63C48.6477 63 57 71.3512 57 81.5C57 91.6488 48.6477 100 38.4976 100C28.5089 100 20.2305 91.9129 20 81.9275L38.4976 81.5Z" fill="#3EB7BB"></path>
  <path d="M34 76.5802L16 77C16 72.1598 17.8309 67.0858 21.0993 63.6174C24.3684 60.1482 29.0351 58.1318 33.7205 58L34 76.5802Z" fill="#1E9799"></path>
</svg>
