<svg xmlns="http://www.w3.org/2000/svg" xmlns:xlink="http://www.w3.org/1999/xlink" width="500" zoomAndPan="magnify" viewBox="0 0 375 299.999988" height="400" preserveAspectRatio="xMidYMid meet" version="1.0"><defs><clipPath id="c0f3a75286"><path d="M 34 9.5 L 374 9.5 L 374 287 L 34 287 Z M 34 9.5 " clip-rule="nonzero"/></clipPath><clipPath id="1f3d419444"><path d="M 2.519531 182 L 38 182 L 38 194 L 2.519531 194 Z M 2.519531 182 " clip-rule="nonzero"/></clipPath></defs><g clip-path="url(#c0f3a75286)"><path fill="#3eb7bb" d="M 110.769531 178.175781 L 113.015625 178.175781 L 127.121094 202.597656 L 143.613281 202.597656 L 143.613281 207.757812 L 101.507812 207.757812 L 101.507812 218.074219 L 136.035156 218.074219 L 151.371094 244.671875 L 165.40625 244.671875 L 165.40625 249.832031 L 101.296875 249.832031 L 101.296875 254.988281 L 101.332031 254.988281 L 101.332031 260.148438 L 160.28125 260.148438 L 160.386719 260.320312 C 166.878906 271.585938 178.074219 278.042969 191.058594 278.042969 L 222.179688 278.042969 C 222.882812 278.042969 223.585938 278.007812 224.285156 277.972656 C 231.9375 277.550781 238.882812 274.882812 244.5 270.253906 C 247.761719 267.585938 250.605469 264.21875 252.851562 260.320312 L 254.957031 256.671875 L 255.097656 256.460938 L 279.519531 214.144531 L 285.519531 203.757812 L 336.398438 203.757812 L 309.90625 249.621094 C 307.378906 254.007812 303.589844 256.355469 298.644531 256.636719 C 295.167969 250.074219 288.257812 245.585938 280.324219 245.585938 C 268.886719 245.585938 259.621094 254.847656 259.621094 266.289062 C 259.621094 277.726562 268.886719 286.992188 280.324219 286.992188 C 287.414062 286.992188 293.660156 283.410156 297.414062 278.007812 L 297.730469 278.007812 C 310.75 278.007812 321.90625 271.550781 328.398438 260.285156 L 355.066406 214.109375 L 361.066406 203.722656 L 373.035156 182.984375 C 370.859375 182.597656 368.578125 182.386719 366.261719 182.386719 L 273.167969 182.386719 L 260.851562 203.757812 L 242.746094 235.09375 L 234.359375 249.621094 C 234.078125 250.144531 233.761719 250.601562 233.410156 251.058594 C 230.742188 254.742188 226.953125 256.636719 222.179688 256.636719 L 191.054688 256.636719 C 185.6875 256.636719 181.582031 254.25 178.878906 249.621094 L 125.542969 157.261719 C 122.839844 152.597656 122.839844 147.859375 125.542969 143.191406 L 174.5625 58.308594 L 178.703125 51.152344 C 189.582031 50.519531 198.214844 41.5 198.214844 30.484375 C 198.214844 19.042969 188.953125 9.78125 177.511719 9.78125 C 166.074219 9.78125 156.808594 19.042969 156.808594 30.484375 C 156.808594 34.414062 157.898438 38.097656 159.828125 41.21875 L 158.351562 43.78125 L 152.773438 53.464844 L 164.667969 53.464844 L 164.667969 58.625 L 109.15625 58.625 L 109.15625 68.941406 L 143.859375 68.941406 L 136.773438 81.1875 L 152.878906 81.1875 L 152.878906 86.347656 L 84.980469 86.347656 L 84.980469 96.664062 L 127.824219 96.664062 L 113.261719 121.855469 L 129.648438 121.855469 L 129.648438 127.015625 L 84.945312 127.015625 L 84.945312 137.332031 L 104.734375 137.332031 C 101.367188 145.648438 101.296875 154.5625 104.558594 162.878906 L 116.628906 162.878906 L 116.628906 168.035156 L 34.765625 168.035156 L 34.765625 178.351562 L 110.734375 178.351562 Z M 110.769531 178.175781 " fill-opacity="1" fill-rule="evenodd"/></g><path fill="#3eb7bb" d="M 248.992188 22.375 L 224.320312 22.375 L 212.003906 43.746094 L 202.742188 59.816406 L 187.476562 86.277344 L 175.546875 106.945312 L 160.808594 132.453125 C 160.316406 133.296875 159.863281 134.136719 159.476562 134.980469 C 154.773438 144.769531 154.773438 155.542969 159.476562 165.332031 C 159.898438 166.175781 160.316406 167.019531 160.808594 167.859375 L 175.546875 193.371094 L 187.476562 214.039062 L 188.882812 216.460938 C 187.125 219.511719 186.144531 223.019531 186.144531 226.777344 C 186.144531 238.214844 195.40625 247.480469 206.847656 247.480469 C 218.285156 247.480469 227.550781 238.214844 227.550781 226.777344 C 227.550781 215.582031 218.636719 206.457031 207.550781 206.074219 L 179.300781 157.15625 C 176.601562 152.492188 176.601562 147.753906 179.300781 143.085938 L 224.25 65.257812 L 233.480469 49.253906 L 236.707031 43.675781 L 297.765625 43.675781 C 303.132812 43.675781 307.238281 46.0625 309.941406 50.695312 L 338.046875 99.363281 L 287.203125 99.363281 L 279.589844 86.207031 L 275.554688 79.222656 C 276.675781 76.660156 277.308594 73.855469 277.308594 70.871094 C 277.308594 59.433594 268.042969 50.167969 256.605469 50.167969 C 245.164062 50.167969 235.902344 59.433594 235.902344 70.871094 C 235.902344 82.308594 245.164062 91.574219 256.605469 91.574219 C 257.097656 91.574219 257.550781 91.574219 258.007812 91.539062 L 262.535156 99.363281 L 274.851562 120.734375 L 375.035156 120.734375 L 362.71875 99.363281 L 355.101562 86.207031 L 328.433594 40.027344 C 321.941406 28.761719 310.785156 22.304688 297.765625 22.304688 L 249.027344 22.304688 Z M 248.992188 22.375 " fill-opacity="1" fill-rule="evenodd"/><path fill="#d9d9d9" d="M 50.382812 67.816406 L 89.050781 67.816406 L 89.050781 78.101562 L 50.382812 78.101562 Z M 50.382812 67.816406 " fill-opacity="1" fill-rule="evenodd"/><path fill="#d9d9d9" d="M 36.308594 111.433594 L 77.785156 111.433594 L 77.785156 121.714844 L 36.308594 121.714844 Z M 36.308594 111.433594 " fill-opacity="1" fill-rule="evenodd"/><path fill="#d9d9d9" d="M 59.46875 190.703125 L 94.945312 190.703125 L 94.945312 201.019531 L 59.46875 201.019531 Z M 59.46875 190.703125 " fill-opacity="1" fill-rule="evenodd"/><path fill="#d9d9d9" d="M 59.925781 236.285156 L 105.226562 236.285156 L 105.226562 246.601562 L 59.925781 246.601562 Z M 59.925781 236.285156 " fill-opacity="1" fill-rule="evenodd"/><g clip-path="url(#1f3d419444)"><path fill="#d9d9d9" d="M 2.519531 182.984375 L 37.609375 182.984375 L 37.609375 193.265625 L 2.519531 193.265625 Z M 2.519531 182.984375 " fill-opacity="1" fill-rule="evenodd"/></g></svg>