<?xml version="1.0" standalone="no"?>
<!DOCTYPE svg PUBLIC "-//W3C//DTD SVG 20010904//EN"
 "http://www.w3.org/TR/2001/REC-SVG-20010904/DTD/svg10.dtd">
<svg version="1.0" xmlns="http://www.w3.org/2000/svg"
 width="256.000000pt" height="256.000000pt" viewBox="0 0 256.000000 256.000000"
 preserveAspectRatio="xMidYMid meet">

<g transform="translate(0.000000,256.000000) scale(0.100000,-0.100000)"
fill="#66c9cc" stroke="none">
<path d="M1140 2554 c-185 -27 -297 -61 -442 -136 -353 -181 -589 -495 -675
-899 -24 -116 -24 -362 0 -479 72 -342 270 -639 547 -822 228 -150 436 -212
710 -212 224 0 394 39 584 137 382 195 645 578 690 1005 l7 62 -226 0 c-172 0
-226 -3 -229 -12 -2 -7 -13 -53 -25 -103 -55 -239 -217 -443 -436 -551 -135
-66 -195 -79 -365 -79 -166 1 -228 14 -356 75 -164 79 -305 219 -383 383 -62
129 -75 190 -76 357 0 170 13 230 79 365 108 219 312 381 551 436 50 12 96 23
103 25 9 3 12 57 12 229 l0 225 -22 -1 c-13 -1 -34 -3 -48 -5z"/>
<path d="M1360 2333 l0 -230 73 -12 c159 -28 304 -106 428 -230 124 -124 202
-269 230 -428 l12 -73 230 0 229 0 -7 53 c-37 305 -161 563 -370 772 -209 209
-467 333 -772 370 l-53 7 0 -229z"/>
<path d="M1200 1949 c-255 -30 -470 -204 -557 -451 -34 -99 -43 -254 -19 -360
45 -200 176 -368 360 -458 111 -55 204 -74 335 -67 248 12 456 149 570 374 66
132 82 330 39 478 -94 319 -401 523 -728 484z m160 -309 c0 -50 3 -60 18 -60
23 0 122 -47 122 -58 0 -5 -12 -32 -28 -59 l-27 -51 -37 19 c-84 43 -178 47
-199 8 -20 -38 11 -65 108 -94 169 -51 209 -93 201 -211 -3 -56 -8 -68 -38
-99 -18 -19 -53 -42 -76 -51 -43 -16 -43 -16 -46 -73 l-3 -56 -72 -3 -73 -3 0
60 0 60 -42 12 c-24 6 -64 22 -90 35 l-48 24 30 61 c17 33 34 59 38 57 104
-55 197 -76 240 -56 35 17 40 51 11 72 -13 9 -66 30 -118 47 -74 25 -105 41
-133 69 -36 36 -38 41 -38 102 0 81 31 135 102 173 l48 26 0 55 0 54 75 0 75
0 0 -60z"/>
</g>
</svg>
