<?xml version="1.0" encoding="UTF-8"?>
<svg xmlns="http://www.w3.org/2000/svg" width="100" height="100" viewBox="0 0 100 100" fill="none">
  <g clip-path="url(#clip0_5144_1459)">
    <path d="M67.9983 0H0V68.3331L31.6669 100H100V32.0017L67.9983 0Z" fill="white"></path>
    <path d="M67.1631 2.08213L97.914 32.833V97.914H32.4982L2.08213 67.498V2.08213H67.1631ZM67.9983 0H0V68.3331L31.6669 100H100V32.0017L67.9983 0Z" fill="#242E3D"></path>
    <path d="M16.2501 56.333V60.0008H14.168V50.0019H18.0012C18.9172 49.9211 19.7485 50.2559 20.5029 50.8371C21.7537 52.1687 21.7537 54.1701 20.5029 55.5017C19.8409 56.0867 18.9172 56.4177 18.0012 56.3369H16.2539L16.2501 56.333ZM16.2501 54.7473H17.7511C18.1667 54.7473 18.5862 54.6665 18.8326 54.3317C19.3329 53.6697 19.3329 52.6652 18.8326 52.0032C18.4977 51.7492 18.1706 51.5876 17.7511 51.5876H16.2501V54.7512V54.7473ZM30.163 60.0008L29.5011 57.7532H26.0873L25.4176 60.0008H23.17L26.6685 50.0019H29.0854L32.4992 60.0008H30.163ZM26.4991 56.1675H29.0007L27.7499 51.9994L26.4991 56.1675ZM35.4973 60.0008V50.0019H39.3306C40.2504 49.9211 41.0856 50.2559 41.8322 50.8371C42.4172 51.4182 42.7521 52.2534 42.7521 53.0847C42.7521 53.6697 42.5827 54.17 42.2479 54.6704C41.9207 55.1707 41.4127 55.5055 40.9162 55.7557L43.4179 60.0855H41.1702L39.0034 56.1714H37.5833V60.0046H35.5012L35.4973 60.0008ZM37.5794 54.5857H39.0804C39.8309 54.6665 40.4967 54.17 40.5775 53.4196V53.0039C40.6661 52.2534 40.1619 51.5876 39.4961 51.5068H37.6603V54.5896H37.5794V54.5857ZM48.4943 60.0008V51.7492H45.4115V50.0019H53.663V51.7492H50.5764V60.0008H48.4943ZM58.9126 53.0809V60.0008H56.9998V50.0019H59.3283L63.4117 57.0027V50.0019H65.3322V60.0008H62.9961L58.9126 53.0809ZM69.1655 60.0008V50.0019H75.7506V51.6684H71.3323V54.0046H74.9192V55.671H71.3323V58.3343H75.7506V60.0008H69.1655ZM79.5838 60.0008V50.0019H83.4171C84.3331 49.9211 85.1644 50.2559 85.9187 50.8371C86.5037 51.4182 86.8347 52.2534 86.8347 53.0847C86.8347 53.6697 86.6692 54.17 86.3344 54.6704C85.9996 55.1707 85.4992 55.5055 85.0028 55.7557L87.5044 60.0855H85.2568L83.0861 56.1714H81.6698V60.0046H79.5877L79.5838 60.0008ZM81.666 54.5857H83.1669C83.9136 54.6665 84.5833 54.17 84.6641 53.4196V53.0039C84.7449 52.2534 84.2484 51.5876 83.5826 51.5068H81.6621V54.5896L81.666 54.5857Z" fill="#242E3D"></path>
    <path d="M22.2499 22.9149C22.2499 23.2497 22.2499 23.5846 22.4192 23.9117C22.5 24.1657 22.6655 24.4967 22.7541 24.7469C22.8349 24.8354 22.8349 24.9162 22.8349 25.0009C22.8349 25.1664 22.7541 25.2549 22.5809 25.3357L21.8304 25.836H21.5841C21.4147 25.836 21.3301 25.7552 21.2492 25.6706C21.0837 25.5012 20.9144 25.3357 20.8336 25.1664C20.7528 25.0009 20.5796 24.7507 20.4987 24.5044C19.6636 25.5012 18.4974 26.0901 17.1658 26.0901C16.3306 26.1709 15.4993 25.836 14.9182 25.2549C14.3332 24.6699 14.083 23.9156 14.083 23.0842C14.083 22.1683 14.4178 21.337 15.0798 20.7558C15.8303 20.1708 16.8271 19.8398 17.8316 19.8398C18.2473 19.8398 18.6668 19.8398 18.9978 19.9206L20.2486 20.167V19.3318C20.3294 18.6698 20.1601 18.0002 19.7444 17.4998C19.2441 17.0842 18.5821 16.9187 17.9124 16.9995C17.4968 16.9995 17.0773 17.0803 16.6616 17.165C16.246 17.2497 15.8265 17.419 15.4108 17.5806C15.2453 17.6615 15.1568 17.6615 14.9951 17.75H14.8296C14.6603 17.75 14.5756 17.6615 14.5756 17.4152V16.8302C14.5756 16.6647 14.5756 16.5838 14.6565 16.4145C14.7373 16.3337 14.8258 16.249 14.9913 16.1682C15.407 15.9142 15.9073 15.7525 16.4076 15.6679C16.9926 15.4985 17.5738 15.4138 18.1626 15.4138C19.2441 15.333 20.2447 15.6679 21.0799 16.3298C21.7419 17.0803 22.0767 18.0771 21.9959 19.0816L22.2422 22.9149H22.2499ZM17.6661 24.5814C18.0818 24.5814 18.4166 24.5006 18.8323 24.4159C19.2479 24.2465 19.5828 24.0002 19.9176 23.6654C20.0831 23.4961 20.2524 23.2497 20.3332 22.9149C20.4141 22.5801 20.4141 22.2452 20.4141 21.9181V21.4139C20.0792 21.3331 19.7444 21.2484 19.4173 21.2484C19.0824 21.1676 18.7476 21.1676 18.3319 21.1676C17.7508 21.0868 17.1658 21.2484 16.6655 21.5833C15.9958 22.2452 15.915 23.3306 16.5 24.0849C16.8271 24.5006 17.2466 24.6661 17.6623 24.5852L17.6661 24.5814ZM26.749 25.8322C26.5835 25.8322 26.4141 25.8322 26.3333 25.7514C26.2525 25.6706 26.1678 25.4974 26.087 25.3357L23.416 16.5877C23.3352 16.4183 23.3352 16.2529 23.3352 16.172C23.3352 16.0027 23.416 15.918 23.5007 15.918H24.6668C24.8362 15.918 25.0017 15.918 25.0825 15.9988C25.1633 16.0874 25.2518 16.2529 25.3365 16.4145L27.2493 23.8309L29.0043 16.4145C29.0043 16.249 29.0851 16.0874 29.2506 15.9988C29.42 15.918 29.5855 15.918 29.6663 15.918H30.5823C30.7516 15.918 30.9171 15.918 30.9979 15.9988C31.0864 16.0874 31.1673 16.2529 31.2519 16.4145L32.9992 24.0041L34.9197 16.4145C34.9197 16.249 35.0005 16.0874 35.166 15.9988C35.3354 15.918 35.42 15.918 35.5817 15.918H36.667C36.8325 15.918 36.921 15.9988 36.921 16.0874V16.3337C36.921 16.4145 36.8325 16.503 36.8325 16.5877L34.1692 25.2549C34.1692 25.4204 34.0884 25.582 33.9152 25.6706C33.8344 25.836 33.6689 25.836 33.4995 25.836H32.5027C32.3372 25.836 32.1679 25.836 32.0871 25.7552C32.0063 25.5859 31.9216 25.5012 31.8331 25.3396L30.0858 18.0848L28.3385 25.3396C28.3385 25.5051 28.2577 25.6744 28.0845 25.7552C28.0036 25.836 27.8382 25.836 27.7573 25.836H26.7528L26.749 25.8322ZM41.2508 26.167C40.6696 26.167 40.0846 26.0862 39.5035 25.9977C39.0878 25.9169 38.5875 25.7514 38.1718 25.582C37.9178 25.5012 37.7562 25.2549 37.7562 24.9201V24.3351C37.7562 24.0887 37.837 24.0079 38.0025 24.0079H38.1718C38.2527 24.0079 38.3373 24.0887 38.4181 24.0887C38.8338 24.2542 39.2533 24.4236 39.669 24.5044C40.0846 24.5852 40.585 24.6699 41.0006 24.6699C41.5856 24.6699 42.1668 24.5891 42.6671 24.2542C43.0019 24.0079 43.2521 23.5923 43.2521 23.1728C43.2521 22.8379 43.1713 22.5878 42.9172 22.4223C42.5824 22.1683 42.1668 21.9219 41.7511 21.8373L40.0846 21.337C39.4227 21.1715 38.753 20.7558 38.2527 20.1708C37.9178 19.6705 37.6677 19.0893 37.6677 18.5043C37.6677 18.0887 37.7562 17.6692 38.0025 17.2535C38.1718 16.9264 38.5028 16.5915 38.8377 16.3375C39.1725 16.0912 39.5881 15.8372 40.0038 15.7564C40.5041 15.587 40.9198 15.587 41.4201 15.587C41.6741 15.587 41.9243 15.587 42.1706 15.6756C42.4246 15.6756 42.6709 15.7564 42.9211 15.841C43.1713 15.9257 43.3367 15.9219 43.5908 16.0065C43.7563 16.0951 43.9179 16.0951 44.0911 16.1759C44.2566 16.2567 44.3374 16.3414 44.4259 16.4222C44.5067 16.5107 44.5067 16.6762 44.5067 16.8379V17.342C44.5067 17.5883 44.4259 17.6692 44.2527 17.6692C44.0795 17.6692 43.9179 17.5883 43.8371 17.5037C43.1751 17.1688 42.4208 17.088 41.6703 17.088C41.1699 17.088 40.6735 17.1688 40.1693 17.4229C39.8422 17.5883 39.5881 18.004 39.669 18.4197C39.669 18.7545 39.7498 19.0047 40.0038 19.2548C40.3386 19.5897 40.7543 19.7551 41.2546 19.8398L42.8403 20.3401C43.5022 20.5056 44.0911 20.9213 44.5876 21.4216C44.9224 21.8373 45.0879 22.4261 45.0879 23.0073C45.0879 23.4229 45.0071 23.9233 44.7531 24.3389C44.5876 24.7546 44.2527 25.0894 43.9179 25.3434C43.5908 25.5897 43.0827 25.8437 42.6671 26.0054C42.3399 26.0939 41.7511 26.1747 41.2508 26.1747V26.167Z" fill="#242E3D"></path>
    <path d="M43.3328 31.5822C39.5842 34.3302 34.2499 35.7503 29.5815 35.7503C23.412 35.7503 17.4158 33.4988 12.832 29.3307C12.4972 29.0036 12.832 28.5841 13.2477 28.8304C18.3279 31.8285 24.1625 33.3333 29.9971 33.3333C34.4154 33.3333 38.7451 32.4174 42.8324 30.7509C43.4136 30.4969 43.9986 31.1665 43.3328 31.5861V31.5822ZM43.9139 34.0838C43.7484 34.4187 44.0833 34.5842 44.4181 34.3302C46.4155 32.6637 46.9197 29.1652 46.5002 28.6688C46.0846 28.1684 42.5784 27.7528 40.4963 29.2499C40.1615 29.5039 40.25 29.8349 40.5771 29.7502C41.7433 29.5847 44.4142 29.2499 44.9146 29.9196C45.4149 30.5815 44.3296 33.0024 43.9101 34.0877L43.9139 34.0838Z" fill="#FF9900"></path>
    <path d="M49.5522 66.5088C49.0827 66.328 48.7402 66.1163 48.5246 65.87C48.3168 65.6198 48.2129 65.3081 48.2129 64.9463C48.2129 64.4267 48.3938 64.0111 48.7594 63.7109C49.125 63.4068 49.61 63.2567 50.2296 63.2567C50.7415 63.2567 51.261 63.3568 51.7922 63.5569V64.3651C51.2495 64.1996 50.7569 64.1188 50.3066 64.1188C49.5676 64.1188 49.1982 64.3651 49.1982 64.8616C49.1982 65.054 49.2636 65.208 49.3944 65.3311C49.5291 65.4505 49.7716 65.5736 50.1103 65.6968L50.8261 65.9585C51.288 66.1317 51.619 66.3395 51.8268 66.5858C52.0346 66.8283 52.1385 67.14 52.1385 67.5249C52.1385 68.0791 51.9384 68.5217 51.5381 68.8411C51.1456 69.1606 50.6106 69.3222 49.9256 69.3222C49.6292 69.3222 49.3329 69.2876 49.0404 69.2299C48.744 69.1683 48.4861 69.0875 48.2706 68.9835V68.1753C48.5362 68.2638 48.821 68.3293 49.1173 68.3831C49.4214 68.437 49.6908 68.4601 49.9256 68.4601C50.3143 68.4601 50.6145 68.3908 50.8223 68.2523C51.034 68.106 51.1494 67.9021 51.1494 67.6403C51.1494 67.4518 51.084 67.2978 50.9531 67.1708C50.8261 67.0515 50.6106 66.9322 50.2912 66.8052L49.5484 66.5204L49.5522 66.5088Z" fill="#242E3D"></path>
    <path d="M53.8545 67.2785C53.8699 67.7057 53.9892 68.0175 54.2047 68.2176C54.4318 68.4062 54.7704 68.5024 55.2207 68.5024C55.6364 68.5024 56.0867 68.4331 56.5601 68.283V68.9719C56.3676 69.0682 56.1444 69.149 55.8827 69.2067C55.621 69.2683 55.3516 69.2991 55.0745 69.2991C54.3817 69.2991 53.8506 69.1105 53.485 68.7372C53.1194 68.3562 52.9385 67.8019 52.9385 67.0707C52.9385 66.3395 53.1117 65.8045 53.4734 65.4042C53.8275 65.004 54.324 64.8038 54.959 64.8038C55.4978 64.8038 55.9135 64.9501 56.2098 65.2464C56.5023 65.5389 56.6524 65.9623 56.6524 66.5088C56.6524 66.7936 56.6255 67.0515 56.5755 67.2785H53.8545ZM54.909 65.5197C54.6126 65.5197 54.3663 65.6198 54.1816 65.8199C53.9892 66.02 53.8814 66.2894 53.8545 66.6281H55.7826V66.5627C55.7826 66.224 55.7095 65.97 55.5633 65.7968C55.4093 65.6159 55.1976 65.5235 54.9128 65.5235L54.909 65.5197Z" fill="#242E3D"></path>
    <path d="M59.2585 69.099C59.0584 69.1798 58.8428 69.2183 58.6081 69.2183C58.2771 69.2183 58.0269 69.1259 57.8537 68.945C57.6882 68.7526 57.6074 68.4832 57.6074 68.1253V62.995H58.5965V68.0483C58.5965 68.1869 58.6235 68.2869 58.6774 68.3485C58.7312 68.4101 58.8121 68.4409 58.9391 68.4409C59.0353 68.4409 59.143 68.437 59.2662 68.4139V69.1028L59.2585 69.099Z" fill="#242E3D"></path>
    <path d="M60.8007 67.2785C60.8161 67.7057 60.9355 68.0175 61.151 68.2176C61.378 68.4062 61.7167 68.5024 62.167 68.5024C62.5827 68.5024 63.0291 68.4331 63.5064 68.283V68.9719C63.3139 69.0682 63.0907 69.149 62.829 69.2067C62.5673 69.2683 62.2979 69.2991 62.0208 69.2991C61.328 69.2991 60.7969 69.1105 60.4313 68.7372C60.0657 68.3562 59.8848 67.8019 59.8848 67.0707C59.8848 66.3395 60.058 65.8045 60.4197 65.4042C60.7738 65.004 61.2703 64.8038 61.9053 64.8038C62.4441 64.8038 62.8598 64.9501 63.1561 65.2464C63.4448 65.5389 63.5987 65.9623 63.5987 66.5088C63.5987 66.7936 63.5718 67.0515 63.5218 67.2785H60.8007ZM61.8553 65.5197C61.5589 65.5197 61.3126 65.6198 61.1279 65.8199C60.9355 66.02 60.8277 66.2894 60.8007 66.6281H62.7289V66.5627C62.7289 66.224 62.6558 65.97 62.5096 65.7968C62.3556 65.6159 62.1439 65.5235 61.8591 65.5235L61.8553 65.5197Z" fill="#242E3D"></path>
    <path d="M67.5371 68.995C67.2061 69.1682 66.8173 69.2567 66.3632 69.2567C65.7128 69.2567 65.2086 69.0681 64.8545 68.6948C64.5081 68.3138 64.335 67.7788 64.335 67.0822C64.335 66.3856 64.5158 65.8199 64.8815 65.4273C65.2471 65.027 65.7551 64.8269 66.4055 64.8269C66.7981 64.8269 67.1714 64.9154 67.514 65.0732V65.7775C67.1406 65.6698 66.825 65.6082 66.5633 65.6082C66.1477 65.6082 65.8398 65.7198 65.6397 65.9469C65.4395 66.1739 65.3395 66.528 65.3395 67.0014V67.1053C65.3395 67.5749 65.4395 67.9212 65.6397 68.1483C65.8398 68.3638 66.1477 68.4754 66.5633 68.4754C66.8558 68.4754 67.183 68.4177 67.5409 68.3061V68.995H67.5371Z" fill="#242E3D"></path>
    <path d="M70.8701 69.0605C70.5853 69.1644 70.2774 69.2183 69.9464 69.2183C69.5038 69.2183 69.1728 69.1221 68.9573 68.9181C68.7495 68.7103 68.6455 68.3947 68.6455 67.9675V65.6737H67.9297V65.0502L68.684 64.9463L68.8264 63.7609H69.6346V64.9193H70.847V65.6737H69.6346V67.9251C69.6346 68.106 69.677 68.2446 69.7655 68.3292C69.8617 68.4062 70.0195 68.4447 70.235 68.4447C70.4698 68.4447 70.6815 68.4293 70.8739 68.3793V69.0566L70.8701 69.0605Z" fill="#242E3D"></path>
    <path d="M75.1761 69.1644V64.215H73.3672V63.3799H78.001V64.215H76.1921V69.1644H75.1761Z" fill="#242E3D"></path>
    <path d="M78.7523 69.1644V64.9193H79.7299V69.1644H78.7523ZM79.2334 64.215C79.0525 64.215 78.9101 64.1688 78.8062 64.0726C78.7023 63.9687 78.6484 63.8301 78.6484 63.6569C78.6484 63.4761 78.7023 63.3375 78.8062 63.2413C78.9101 63.1374 79.0525 63.0835 79.2334 63.0835C79.4143 63.0835 79.5721 63.1374 79.676 63.2413C79.7799 63.3375 79.8338 63.4761 79.8338 63.6569C79.8338 63.8378 79.7799 63.9687 79.676 64.0726C79.5721 64.1688 79.4182 64.215 79.2334 64.215Z" fill="#242E3D"></path>
    <path d="M81.6533 67.2785C81.6726 67.7057 81.7881 68.0175 82.0074 68.2176C82.2345 68.4062 82.5693 68.5024 83.0235 68.5024C83.4391 68.5024 83.8856 68.4331 84.3628 68.283V68.9719C84.1704 69.0682 83.9472 69.149 83.6854 69.2067C83.4237 69.2683 83.1582 69.2991 82.8772 69.2991C82.1845 69.2991 81.6534 69.1105 81.2877 68.7372C80.9221 68.3562 80.7412 67.8019 80.7412 67.0707C80.7412 66.3395 80.9144 65.8045 81.2762 65.4042C81.6341 65.004 82.1267 64.8038 82.7618 64.8038C83.3006 64.8038 83.7162 64.9501 84.0126 65.2464C84.3051 65.5389 84.4552 65.9623 84.4552 66.5088C84.4552 66.7936 84.4282 67.0515 84.3782 67.2785H81.6572H81.6533ZM82.7079 65.5197C82.4115 65.5197 82.1652 65.6198 81.9766 65.8199C81.7842 66.02 81.6764 66.2894 81.6495 66.6281H83.5777V66.5627C83.5777 66.224 83.5046 65.97 83.3545 65.7968C83.2044 65.6159 82.9888 65.5235 82.704 65.5235L82.7079 65.5197Z" fill="#242E3D"></path>
    <path d="M85.4062 69.1644V64.9193H86.226L86.3569 65.5582C86.5839 65.3157 86.7918 65.1502 86.9804 65.0501C87.1728 64.9462 87.3845 64.8923 87.6192 64.8923C87.7231 64.8923 87.8309 64.9 87.9579 64.9193V65.816C87.8001 65.7891 87.6423 65.7775 87.4768 65.7775C87.0689 65.7775 86.7109 65.8814 86.3954 66.0893V69.1644H85.4062Z" fill="#242E3D"></path>
    <path d="M58.9624 74.8412C58.4928 74.6604 58.1503 74.4487 57.9348 74.2024C57.727 73.9522 57.623 73.6405 57.623 73.2787C57.623 72.7591 57.8039 72.3435 58.1696 72.0433C58.5352 71.7392 59.0201 71.5891 59.6398 71.5891C60.1516 71.5891 60.6712 71.6892 61.2023 71.8893V72.6975C60.6596 72.532 60.1632 72.4512 59.7167 72.4512C58.9778 72.4512 58.6083 72.6975 58.6083 73.194C58.6083 73.3864 58.6737 73.5404 58.8046 73.6635C58.9393 73.7829 59.1818 73.906 59.5204 74.0292L60.2363 74.2909C60.6981 74.4641 61.0291 74.6719 61.2369 74.9182C61.4448 75.1607 61.5487 75.4724 61.5487 75.8573C61.5487 76.4115 61.3486 76.8541 60.9483 77.1735C60.5596 77.493 60.0208 77.6546 59.3357 77.6546C59.0394 77.6546 58.7469 77.62 58.4505 77.5622C58.1542 77.5007 57.8963 77.4198 57.6846 77.3159V76.5077C57.9502 76.5962 58.235 76.6617 58.5313 76.7155C58.8354 76.7694 59.1048 76.7925 59.3396 76.7925C59.7321 76.7925 60.0285 76.7232 60.2401 76.5847C60.4518 76.4384 60.5673 76.2345 60.5673 75.9727C60.5673 75.7842 60.5019 75.6302 60.371 75.5032C60.244 75.3839 60.0285 75.2646 59.7052 75.1376L58.9624 74.8528V74.8412Z" fill="#242E3D"></path>
    <path d="M63.2646 75.6109C63.28 76.0381 63.3993 76.3499 63.6148 76.55C63.8419 76.7386 64.1806 76.8348 64.6309 76.8348C65.0465 76.8348 65.493 76.7655 65.9702 76.6154V77.3043C65.7778 77.4006 65.5546 77.4814 65.2929 77.5391C65.0312 77.6007 64.7618 77.6315 64.4846 77.6315C63.7919 77.6315 63.2608 77.4429 62.8951 77.0696C62.5295 76.6886 62.3486 76.1343 62.3486 75.4031C62.3486 74.6718 62.5218 74.1369 62.8836 73.7366C63.2377 73.3364 63.7342 73.1362 64.3692 73.1362C64.908 73.1362 65.3237 73.2825 65.62 73.5788C65.9087 73.8713 66.0626 74.2947 66.0626 74.8412C66.0626 75.126 66.0357 75.3839 65.9856 75.6109H63.2646ZM64.3192 73.8521C64.0228 73.8521 63.7765 73.9521 63.5879 74.1523C63.3993 74.3524 63.2877 74.6218 63.2646 74.9605H65.1928V74.8951C65.1928 74.5564 65.1197 74.3024 64.9734 74.1292C64.8195 73.9483 64.6078 73.8559 64.323 73.8559L64.3192 73.8521Z" fill="#242E3D"></path>
    <path d="M67.0166 77.5007V73.2556H67.8364L67.9672 73.8945C68.1943 73.652 68.4021 73.4865 68.5907 73.3864C68.7831 73.2825 68.9948 73.2286 69.2296 73.2286C69.3335 73.2286 69.4413 73.2363 69.5683 73.2556V74.1523C69.4143 74.1254 69.2527 74.1138 69.0872 74.1138C68.6792 74.1138 68.3174 74.2177 68.0057 74.4256V77.5007H67.0166Z" fill="#242E3D"></path>
    <path d="M71.3405 77.5006L69.6855 73.2555H70.7401L71.8216 76.6154L72.9146 73.2555H73.9152L72.2873 77.5006H71.3366H71.3405Z" fill="#242E3D"></path>
    <path d="M74.6108 77.5007V73.2556H75.5883V77.5007H74.6108ZM75.0918 72.5513C74.9109 72.5513 74.7647 72.5051 74.6608 72.4089C74.5569 72.305 74.5068 72.1664 74.5068 71.9932C74.5068 71.8124 74.5569 71.6738 74.6608 71.5776C74.7647 71.4737 74.9071 71.4198 75.0918 71.4198C75.2766 71.4198 75.4305 71.4737 75.5344 71.5776C75.6383 71.6738 75.6922 71.8124 75.6922 71.9932C75.6922 72.1741 75.6383 72.305 75.5344 72.4089C75.4305 72.5051 75.2804 72.5513 75.0918 72.5513Z" fill="#242E3D"></path>
    <path d="M79.8066 77.3313C79.4756 77.5045 79.0869 77.593 78.6327 77.593C77.9823 77.593 77.4781 77.4044 77.1241 77.0311C76.7777 76.6501 76.6045 76.1151 76.6045 75.4185C76.6045 74.7219 76.7854 74.1562 77.151 73.7636C77.5166 73.3633 78.0247 73.1632 78.6751 73.1632C79.0676 73.1632 79.441 73.2517 79.7835 73.4095V74.1138C79.4102 74.0061 79.0946 73.9445 78.8329 73.9445C78.4172 73.9445 78.1093 74.0561 77.9092 74.2832C77.7091 74.5102 77.609 74.8643 77.609 75.3377V75.4416C77.609 75.9112 77.7091 76.2575 77.9092 76.4846C78.1093 76.7001 78.4172 76.8117 78.8329 76.8117C79.1254 76.8117 79.4525 76.754 79.8104 76.6424V77.3313H79.8066Z" fill="#242E3D"></path>
    <path d="M81.3809 75.6109C81.4001 76.0381 81.5156 76.3499 81.735 76.55C81.962 76.7386 82.2969 76.8348 82.751 76.8348C83.1667 76.8348 83.6131 76.7655 84.0904 76.6154V77.3043C83.8979 77.4006 83.6747 77.4814 83.413 77.5391C83.1513 77.6007 82.8857 77.6315 82.6048 77.6315C81.912 77.6315 81.3809 77.4429 81.0153 77.0696C80.6496 76.6886 80.4688 76.1343 80.4688 75.4031C80.4688 74.6718 80.6419 74.1369 81.0037 73.7366C81.3616 73.3364 81.8543 73.1362 82.4893 73.1362C83.0281 73.1362 83.4438 73.2825 83.7401 73.5788C84.0326 73.8713 84.1827 74.2947 84.1827 74.8412C84.1827 75.126 84.1558 75.3839 84.1057 75.6109H81.3847H81.3809ZM82.4354 73.8521C82.1391 73.8521 81.8928 73.9521 81.708 74.1523C81.5156 74.3524 81.4078 74.6218 81.3809 74.9605H83.3091V74.8951C83.3091 74.5564 83.2359 74.3024 83.0858 74.1292C82.9357 73.9483 82.7202 73.8559 82.4354 73.8559V73.8521Z" fill="#242E3D"></path>
    <path d="M87.0489 76.3538C87.0489 76.2306 87.0104 76.1344 86.9296 76.0536C86.8526 75.9766 86.7102 75.8996 86.5024 75.8188L85.8096 75.5571C85.1861 75.3146 84.8744 74.9221 84.8744 74.3833C84.8744 73.9945 85.0168 73.6905 85.3016 73.4711C85.5979 73.2441 85.9828 73.1324 86.46 73.1324C86.9373 73.1324 87.3452 73.221 87.7108 73.3942V74.0831C87.2875 73.9484 86.8911 73.8752 86.5254 73.8752C86.2714 73.8752 86.0867 73.9137 85.9635 73.9945C85.8365 74.0715 85.7827 74.1908 85.7827 74.3448C85.7827 74.4718 85.825 74.5641 85.9135 74.645C85.9943 74.7142 86.1521 74.7951 86.3677 74.8913L87.0181 75.1376C87.3491 75.2685 87.5838 75.4224 87.7339 75.6071C87.8802 75.7803 87.9533 76.0074 87.9533 76.2691C87.9533 76.6848 87.7994 77.0196 87.4992 77.2582C87.2028 77.5007 86.7872 77.6238 86.2483 77.6238C85.9866 77.6238 85.7326 77.5931 85.4825 77.5315C85.24 77.4776 85.0206 77.4006 84.832 77.2967V76.6078C85.3593 76.7848 85.8327 76.8695 86.2522 76.8695C86.5293 76.8695 86.7256 76.8233 86.8526 76.7386C86.9834 76.6578 87.0489 76.527 87.0489 76.3499V76.3538Z" fill="#242E3D"></path>
  </g>
  <defs>
    <clipPath id="clip0_5144_1459">
      <rect width="100" height="100" fill="white"></rect>
    </clipPath>
  </defs>
</svg>
