<?xml version="1.0" encoding="UTF-8"?>
<svg xmlns="http://www.w3.org/2000/svg" width="348" height="70" viewBox="0 0 348 70" fill="none">
  <path d="M329.371 20.5548H328.313V16.1601C328.313 15.6599 328.183 15.2803 327.924 15.0212C327.674 14.7532 327.343 14.6193 326.933 14.6193C326.423 14.6193 325.981 14.8158 325.606 15.2088C325.24 15.6018 325.057 16.1467 325.057 16.8434V20.5548H324.012V13.7618H325.057V14.9408C325.459 14.0923 326.173 13.668 327.201 13.668C327.862 13.668 328.389 13.8689 328.782 14.2709C329.175 14.6729 329.371 15.2088 329.371 15.8787V20.5548Z" fill="#353535"></path>
  <path d="M322.6 17.1784C322.6 18.1877 322.314 19.0229 321.743 19.6839C321.171 20.3449 320.385 20.6754 319.385 20.6754C318.411 20.6754 317.638 20.3493 317.067 19.6973C316.504 19.0363 316.223 18.2056 316.223 17.2052C316.223 16.1958 316.513 15.3562 317.094 14.6863C317.683 14.0074 318.447 13.668 319.385 13.668C320.412 13.668 321.202 13.9985 321.756 14.6595C322.319 15.3204 322.6 16.1601 322.6 17.1784ZM317.321 17.1918C317.321 17.8974 317.509 18.5003 317.884 19.0006C318.259 19.4918 318.759 19.7375 319.385 19.7375C320.064 19.7375 320.586 19.4963 320.952 19.014C321.319 18.5227 321.502 17.9153 321.502 17.1918C321.502 16.4415 321.327 15.8251 320.979 15.3428C320.631 14.8515 320.099 14.6059 319.385 14.6059C318.742 14.6059 318.237 14.856 317.871 15.3562C317.504 15.8564 317.321 16.4682 317.321 17.1918Z" fill="#353535"></path>
  <path d="M314.743 20.5537H313.684V13.7607H314.743V20.5537ZM314.703 11.1346C314.836 11.2686 314.903 11.4338 314.903 11.6303C314.903 11.8268 314.836 11.9921 314.703 12.1261C314.569 12.2511 314.403 12.3136 314.207 12.3136C314.01 12.3136 313.845 12.2511 313.711 12.1261C313.586 11.9921 313.523 11.8268 313.523 11.6303C313.523 11.4338 313.586 11.2686 313.711 11.1346C313.845 11.0006 314.01 10.9336 314.207 10.9336C314.403 10.9336 314.569 11.0006 314.703 11.1346Z" fill="#353535"></path>
  <path d="M312.223 20.3774C311.928 20.5381 311.598 20.6185 311.232 20.6185C309.892 20.6185 309.222 19.9352 309.222 18.5686V14.616H308.137V13.7585H309.222V12.0703H310.28V13.7585H312.156V14.616H310.28V18.5954C310.28 19.3189 310.62 19.6806 311.299 19.6806C311.647 19.6806 311.955 19.5779 312.223 19.3725V20.3774Z" fill="#353535"></path>
  <path d="M304.433 19.7352C304.915 19.7352 305.299 19.6013 305.585 19.3333C305.871 19.0564 306.014 18.708 306.014 18.2882V17.4173H304.835C304.263 17.4173 303.834 17.529 303.549 17.7523C303.263 17.9756 303.12 18.257 303.12 18.5964C303.12 18.9358 303.232 19.2127 303.455 19.4271C303.678 19.6325 304.004 19.7352 304.433 19.7352ZM306.027 19.7486C305.679 20.3292 305.045 20.6195 304.125 20.6195C303.491 20.6195 302.977 20.432 302.584 20.0568C302.2 19.6817 302.008 19.2082 302.008 18.6366C302.008 17.9845 302.253 17.4798 302.745 17.1225C303.245 16.7563 303.924 16.5732 304.781 16.5732H306.014V16.2248C306.014 15.6889 305.893 15.287 305.652 15.019C305.411 14.7421 305.005 14.6036 304.433 14.6036C303.709 14.6036 303.066 14.7957 302.504 15.1798V14.1213C303.013 13.8087 303.683 13.6523 304.513 13.6523C306.219 13.6523 307.072 14.5188 307.072 16.2516V20.5526H306.027V19.7486Z" fill="#353535"></path>
  <path d="M299.164 20.5553H298.105L298.119 13.7623H299.164V14.9548C299.521 14.1151 300.138 13.6953 301.013 13.6953C301.174 13.6953 301.299 13.7042 301.388 13.7221V14.7672C301.201 14.7047 301.008 14.6734 300.812 14.6734C300.339 14.6734 299.946 14.8922 299.633 15.3299C299.32 15.7676 299.164 16.2723 299.164 16.844V20.5553Z" fill="#353535"></path>
  <path d="M296.38 20.0054C296.38 21.0416 296.094 21.8187 295.523 22.3368C294.951 22.8638 294.214 23.1273 293.312 23.1273C292.49 23.1273 291.789 22.9888 291.208 22.7119V21.6535C291.78 21.9839 292.45 22.1492 293.218 22.1492C293.87 22.1492 294.384 21.975 294.759 21.6267C295.134 21.2783 295.322 20.7334 295.322 19.992V19.2283C294.875 19.9965 294.21 20.3806 293.325 20.3806C292.548 20.3806 291.883 20.0948 291.329 19.5231C290.784 18.9514 290.512 18.1565 290.512 17.1382C290.512 16.1288 290.766 15.2981 291.275 14.6461C291.785 13.994 292.45 13.668 293.272 13.668C294.201 13.668 294.884 14.0744 295.322 14.8872V13.7618H296.38V20.0054ZM291.61 17.1114C291.61 17.8706 291.798 18.4512 292.173 18.8532C292.548 19.2462 292.973 19.4427 293.446 19.4427C293.937 19.4427 294.37 19.2551 294.746 18.88C295.13 18.4959 295.322 17.9287 295.322 17.1784C295.322 16.3119 295.139 15.6688 294.772 15.249C294.406 14.8292 293.982 14.6193 293.5 14.6193C292.919 14.6193 292.459 14.8515 292.12 15.316C291.78 15.7715 291.61 16.37 291.61 17.1114Z" fill="#353535"></path>
  <path d="M288.992 20.2047C288.465 20.4816 287.822 20.6201 287.063 20.6201C286.036 20.6201 285.205 20.3075 284.571 19.6822C283.945 19.048 283.633 18.2128 283.633 17.1767C283.633 16.0959 283.914 15.2428 284.477 14.6176C285.04 13.9923 285.763 13.6797 286.647 13.6797C287.496 13.6797 288.17 13.9521 288.671 14.497C289.171 15.0419 289.421 15.8145 289.421 16.8149C289.421 17.1008 289.399 17.3643 289.354 17.6054H284.718C284.798 18.2754 285.053 18.789 285.482 19.1463C285.911 19.5036 286.473 19.6822 287.17 19.6822C287.929 19.6822 288.537 19.5259 288.992 19.2133V20.2047ZM286.647 14.6042C286.138 14.6042 285.705 14.7873 285.348 15.1535C284.991 15.5197 284.781 16.0423 284.718 16.7211H288.362V16.4532C288.362 15.8904 288.211 15.4438 287.907 15.1133C287.603 14.7739 287.183 14.6042 286.647 14.6042Z" fill="#353535"></path>
  <path d="M282.626 20.3774C282.331 20.5381 282 20.6185 281.634 20.6185C280.294 20.6185 279.624 19.9352 279.624 18.5686V14.616H278.539V13.7585H279.624V12.0703H280.683V13.7585H282.559V14.616H280.683V18.5954C280.683 19.3189 281.022 19.6806 281.701 19.6806C282.049 19.6806 282.358 19.5779 282.626 19.3725V20.3774Z" fill="#353535"></path>
  <path d="M277.48 20.5548H276.422V16.1601C276.422 15.6599 276.292 15.2803 276.033 15.0212C275.783 14.7532 275.453 14.6193 275.042 14.6193C274.533 14.6193 274.091 14.8158 273.716 15.2088C273.349 15.6018 273.166 16.1467 273.166 16.8434V20.5548H272.121V13.7618H273.166V14.9408C273.568 14.0923 274.283 13.668 275.31 13.668C275.971 13.668 276.498 13.8689 276.891 14.2709C277.284 14.6729 277.48 15.2088 277.48 15.8787V20.5548Z" fill="#353535"></path>
  <path d="M270.163 20.554H269.078V11.5234H270.163V20.554Z" fill="#353535"></path>
  <path d="M264.066 20.5548H263.008V16.1601C263.008 15.6599 262.878 15.2803 262.619 15.0212C262.369 14.7532 262.039 14.6193 261.628 14.6193C261.119 14.6193 260.677 14.8158 260.301 15.2088C259.935 15.6018 259.752 16.1467 259.752 16.8434V20.5548H258.707V13.7618H259.752V14.9408C260.154 14.0923 260.869 13.668 261.896 13.668C262.557 13.668 263.084 13.8689 263.477 14.2709C263.87 14.6729 264.066 15.2088 264.066 15.8787V20.5548Z" fill="#353535"></path>
  <path d="M257.292 17.1784C257.292 18.1877 257.006 19.0229 256.434 19.6839C255.863 20.3449 255.077 20.6754 254.076 20.6754C253.102 20.6754 252.33 20.3493 251.758 19.6973C251.195 19.0363 250.914 18.2056 250.914 17.2052C250.914 16.1958 251.204 15.3562 251.785 14.6863C252.374 14.0074 253.138 13.668 254.076 13.668C255.103 13.668 255.894 13.9985 256.448 14.6595C257.01 15.3204 257.292 16.1601 257.292 17.1784ZM252.013 17.1918C252.013 17.8974 252.2 18.5003 252.575 19.0006C252.951 19.4918 253.451 19.7375 254.076 19.7375C254.755 19.7375 255.277 19.4963 255.644 19.014C256.01 18.5227 256.193 17.9153 256.193 17.1918C256.193 16.4415 256.019 15.8251 255.671 15.3428C255.322 14.8515 254.791 14.6059 254.076 14.6059C253.433 14.6059 252.928 14.856 252.562 15.3562C252.196 15.8564 252.013 16.4682 252.013 17.1918Z" fill="#353535"></path>
  <path d="M249.438 20.5537H248.38V13.7607H249.438V20.5537ZM249.398 11.1346C249.532 11.2686 249.599 11.4338 249.599 11.6303C249.599 11.8268 249.532 11.9921 249.398 12.1261C249.264 12.2511 249.099 12.3136 248.902 12.3136C248.706 12.3136 248.54 12.2511 248.406 12.1261C248.281 11.9921 248.219 11.8268 248.219 11.6303C248.219 11.4338 248.281 11.2686 248.406 11.1346C248.54 11.0006 248.706 10.9336 248.902 10.9336C249.099 10.9336 249.264 11.0006 249.398 11.1346Z" fill="#353535"></path>
  <path d="M246.915 20.3774C246.62 20.5381 246.289 20.6185 245.923 20.6185C244.583 20.6185 243.913 19.9352 243.913 18.5686V14.616H242.828V13.7585H243.913V12.0703H244.972V13.7585H246.848V14.616H244.972V18.5954C244.972 19.3189 245.311 19.6806 245.99 19.6806C246.339 19.6806 246.647 19.5779 246.915 19.3725V20.3774Z" fill="#353535"></path>
  <path d="M239.128 19.7352C239.611 19.7352 239.995 19.6013 240.281 19.3333C240.566 19.0564 240.709 18.708 240.709 18.2882V17.4173H239.53C238.959 17.4173 238.53 17.529 238.244 17.7523C237.958 17.9756 237.815 18.257 237.815 18.5964C237.815 18.9358 237.927 19.2127 238.15 19.4271C238.373 19.6325 238.699 19.7352 239.128 19.7352ZM240.723 19.7486C240.374 20.3292 239.74 20.6195 238.82 20.6195C238.186 20.6195 237.672 20.432 237.279 20.0568C236.895 19.6817 236.703 19.2082 236.703 18.6366C236.703 17.9845 236.949 17.4798 237.44 17.1225C237.94 16.7563 238.619 16.5732 239.477 16.5732H240.709V16.2248C240.709 15.6889 240.589 15.287 240.348 15.019C240.106 14.7421 239.7 14.6036 239.128 14.6036C238.405 14.6036 237.762 14.7957 237.199 15.1798V14.1213C237.708 13.8087 238.378 13.6523 239.209 13.6523C240.915 13.6523 241.768 14.5188 241.768 16.2516V20.5526H240.723V19.7486Z" fill="#353535"></path>
  <path d="M235.555 20.3131C235.126 20.5721 234.599 20.7016 233.974 20.7016C232.902 20.7016 232.049 20.3622 231.414 19.6833C230.789 18.9955 230.477 18.1604 230.477 17.1778C230.477 16.2131 230.789 15.3824 231.414 14.6857C232.049 13.989 232.911 13.6406 234 13.6406C234.581 13.6406 235.099 13.7657 235.555 14.0158V15.0207C235.144 14.7438 234.661 14.6053 234.108 14.6053C233.339 14.6053 232.723 14.8554 232.259 15.3556C231.803 15.8469 231.575 16.4588 231.575 17.1912C231.584 17.9237 231.807 18.5355 232.245 19.0268C232.683 19.5092 233.304 19.7503 234.108 19.7503C234.626 19.7503 235.108 19.6029 235.555 19.3082V20.3131Z" fill="#353535"></path>
  <path d="M228.997 20.5537H227.938V13.7607H228.997V20.5537ZM228.956 11.1346C229.09 11.2686 229.157 11.4338 229.157 11.6303C229.157 11.8268 229.09 11.9921 228.956 12.1261C228.822 12.2511 228.657 12.3136 228.461 12.3136C228.264 12.3136 228.099 12.2511 227.965 12.1261C227.84 11.9921 227.777 11.8268 227.777 11.6303C227.777 11.4338 227.84 11.2686 227.965 11.1346C228.099 11.0006 228.264 10.9336 228.461 10.9336C228.657 10.9336 228.822 11.0006 228.956 11.1346Z" fill="#353535"></path>
  <path d="M226.004 20.5547H224.945V11.082H226.004V20.5547Z" fill="#353535"></path>
  <path d="M218.471 23.1921H217.426V13.7595H218.471V14.7912C218.944 14.032 219.645 13.6523 220.574 13.6523C221.477 13.6523 222.182 13.9828 222.691 14.6438C223.209 15.2959 223.468 16.1132 223.468 17.0957C223.468 18.1408 223.196 18.9983 222.651 19.6683C222.115 20.3292 221.414 20.6597 220.548 20.6597C219.654 20.6597 218.962 20.2801 218.471 19.5209V23.1921ZM218.471 17.1627C218.471 18.0292 218.672 18.6678 219.074 19.0787C219.476 19.4896 219.922 19.6951 220.414 19.6951C220.985 19.6951 221.454 19.4717 221.82 19.0251C222.187 18.5696 222.37 17.9265 222.37 17.0957C222.37 16.3544 222.191 15.7559 221.834 15.3004C221.477 14.8448 221.025 14.617 220.481 14.617C219.936 14.617 219.462 14.818 219.06 15.22C218.667 15.613 218.471 16.2606 218.471 17.1627Z" fill="#353535"></path>
  <path d="M211.002 23.1921H209.957V13.7595H211.002V14.7912C211.476 14.032 212.177 13.6523 213.106 13.6523C214.008 13.6523 214.713 13.9828 215.223 14.6438C215.741 15.2959 216 16.1132 216 17.0957C216 18.1408 215.727 18.9983 215.182 19.6683C214.646 20.3292 213.945 20.6597 213.079 20.6597C212.186 20.6597 211.493 20.2801 211.002 19.5209V23.1921ZM211.002 17.1627C211.002 18.0292 211.203 18.6678 211.605 19.0787C212.007 19.4896 212.454 19.6951 212.945 19.6951C213.517 19.6951 213.986 19.4717 214.352 19.0251C214.718 18.5696 214.901 17.9265 214.901 17.0957C214.901 16.3544 214.722 15.7559 214.365 15.3004C214.008 14.8448 213.557 14.617 213.012 14.617C212.467 14.617 211.994 14.818 211.592 15.22C211.199 15.613 211.002 16.2606 211.002 17.1627Z" fill="#353535"></path>
  <path d="M203.346 16.7488L203.172 17.258H206.375L206.2 16.7354L204.793 12.3943C204.686 12.7784 204.204 14.2299 203.346 16.7488ZM202.06 20.554H200.895L204.043 11.5234H205.544L208.639 20.554H207.473L206.683 18.1825H202.864L202.06 20.554Z" fill="#353535"></path>
  <path d="M195.07 20.5553H194.012L194.025 13.7623H195.07V14.9548C195.427 14.1151 196.044 13.6953 196.919 13.6953C197.08 13.6953 197.205 13.7042 197.294 13.7221V14.7672C197.107 14.7047 196.915 14.6734 196.718 14.6734C196.245 14.6734 195.852 14.8922 195.539 15.3299C195.227 15.7676 195.07 16.2723 195.07 16.844V20.5553Z" fill="#353535"></path>
  <path d="M192.121 20.2047C191.594 20.4816 190.951 20.6201 190.192 20.6201C189.165 20.6201 188.334 20.3075 187.7 19.6822C187.074 19.048 186.762 18.2128 186.762 17.1767C186.762 16.0959 187.043 15.2428 187.606 14.6176C188.169 13.9923 188.892 13.6797 189.776 13.6797C190.625 13.6797 191.299 13.9521 191.8 14.497C192.3 15.0419 192.55 15.8145 192.55 16.8149C192.55 17.1008 192.528 17.3643 192.483 17.6054H187.847C187.927 18.2754 188.182 18.789 188.611 19.1463C189.039 19.5036 189.602 19.6822 190.299 19.6822C191.058 19.6822 191.666 19.5259 192.121 19.2133V20.2047ZM189.776 14.6042C189.267 14.6042 188.834 14.7873 188.477 15.1535C188.119 15.5197 187.91 16.0423 187.847 16.7211H191.491V16.4532C191.491 15.8904 191.34 15.4438 191.036 15.1133C190.732 14.7739 190.312 14.6042 189.776 14.6042Z" fill="#353535"></path>
  <path d="M183.558 20.5547H182.258L179.887 13.7617H180.985L181.923 16.629L182.915 19.724C182.995 19.3399 183.33 18.3083 183.92 16.629L184.884 13.7617H185.983L183.558 20.5547Z" fill="#353535"></path>
  <path d="M178.648 20.5547H177.59V11.082H178.648V20.5547Z" fill="#353535"></path>
  <path d="M175.657 20.5537H174.598V13.7607H175.657V20.5537ZM175.617 11.1346C175.751 11.2686 175.818 11.4338 175.818 11.6303C175.818 11.8268 175.751 11.9921 175.617 12.1261C175.483 12.2511 175.317 12.3136 175.121 12.3136C174.924 12.3136 174.759 12.2511 174.625 12.1261C174.5 11.9921 174.438 11.8268 174.438 11.6303C174.438 11.4338 174.5 11.2686 174.625 11.1346C174.759 11.0006 174.924 10.9336 175.121 10.9336C175.317 10.9336 175.483 11.0006 175.617 11.1346Z" fill="#353535"></path>
  <path d="M172.931 18.154C172.931 18.949 172.659 19.5653 172.114 20.003C171.569 20.4318 170.868 20.6462 170.011 20.6462C169.064 20.6462 168.26 20.4541 167.599 20.07V18.9044C168.251 19.3956 169.046 19.6413 169.984 19.6413C170.546 19.6413 170.989 19.5162 171.31 19.2661C171.632 19.016 171.793 18.6542 171.793 18.1808C171.793 17.9843 171.752 17.8101 171.672 17.6583C171.6 17.4975 171.475 17.3546 171.297 17.2295C171.127 17.0956 170.962 16.9884 170.801 16.908C170.649 16.8187 170.439 16.7115 170.171 16.5864C170.118 16.5596 170.037 16.5239 169.93 16.4792C169.546 16.3095 169.251 16.1711 169.046 16.0639C168.849 15.9567 168.613 15.8004 168.336 15.5949C168.068 15.3806 167.871 15.1349 167.746 14.858C167.621 14.5811 167.559 14.2595 167.559 13.8933C167.559 13.1251 167.831 12.5267 168.376 12.0979C168.93 11.6602 169.622 11.4414 170.453 11.4414C171.23 11.4414 171.891 11.5799 172.436 11.8568V12.9956C171.891 12.6383 171.239 12.4597 170.479 12.4597C169.935 12.4597 169.501 12.5892 169.18 12.8482C168.858 13.0983 168.697 13.4288 168.697 13.8397C168.697 14.0541 168.738 14.2462 168.818 14.4159C168.907 14.5856 169.059 14.7464 169.274 14.8982C169.488 15.0411 169.671 15.1528 169.823 15.2332C169.975 15.3046 170.211 15.4118 170.533 15.5547C170.837 15.6887 171.069 15.7959 171.23 15.8763C171.391 15.9478 171.596 16.0683 171.846 16.2381C172.105 16.3988 172.297 16.5596 172.422 16.7204C172.556 16.8723 172.672 17.0777 172.771 17.3367C172.878 17.5868 172.931 17.8593 172.931 18.154Z" fill="#353535"></path>
  <path d="M280.646 37.2036C280.646 37.7842 280.441 38.2442 280.03 38.5836C279.628 38.923 279.074 39.0927 278.369 39.0927C277.547 39.0927 276.881 38.9543 276.372 38.6774V37.6457C276.971 38.003 277.614 38.1817 278.302 38.1817C278.712 38.1817 279.025 38.1013 279.239 37.9405C279.454 37.7797 279.561 37.5609 279.561 37.284C279.561 36.9624 279.44 36.7123 279.199 36.5336C278.967 36.355 278.574 36.154 278.02 35.9307C277.511 35.7342 277.1 35.4886 276.788 35.1938C276.484 34.899 276.332 34.5015 276.332 34.0013C276.332 33.4386 276.542 32.992 276.962 32.6615C277.391 32.3221 277.922 32.1523 278.556 32.1523C279.262 32.1523 279.829 32.2506 280.258 32.4471V33.452C279.847 33.2019 279.284 33.0768 278.57 33.0768C278.212 33.0768 277.926 33.1617 277.712 33.3314C277.507 33.4922 277.404 33.7021 277.404 33.9611C277.404 34.1219 277.435 34.2648 277.498 34.3899C277.56 34.506 277.681 34.6221 277.859 34.7382C278.047 34.8544 278.181 34.9348 278.261 34.9794C278.351 35.0151 278.538 35.0955 278.824 35.2206C279.396 35.4528 279.842 35.7163 280.164 36.0111C280.486 36.3059 280.646 36.7034 280.646 37.2036Z" fill="#353535"></path>
  <path d="M275.062 38.7701C274.634 39.0291 274.107 39.1586 273.481 39.1586C272.409 39.1586 271.556 38.8192 270.922 38.1404C270.297 37.4526 269.984 36.6174 269.984 35.6349C269.984 34.6702 270.297 33.8395 270.922 33.1427C271.556 32.446 272.418 32.0977 273.508 32.0977C274.089 32.0977 274.607 32.2227 275.062 32.4728V33.4777C274.652 33.2008 274.169 33.0623 273.615 33.0623C272.847 33.0623 272.231 33.3125 271.766 33.8127C271.311 34.3039 271.083 34.9158 271.083 35.6482C271.092 36.3807 271.315 36.9926 271.753 37.4838C272.191 37.9662 272.811 38.2074 273.615 38.2074C274.133 38.2074 274.616 38.06 275.062 37.7652V38.7701Z" fill="#353535"></path>
  <path d="M268.504 39.0107H267.446V32.2177H268.504V39.0107ZM268.464 29.5916C268.598 29.7256 268.665 29.8908 268.665 30.0873C268.665 30.2839 268.598 30.4491 268.464 30.5831C268.33 30.7081 268.165 30.7707 267.968 30.7707C267.772 30.7707 267.607 30.7081 267.473 30.5831C267.348 30.4491 267.285 30.2839 267.285 30.0873C267.285 29.8908 267.348 29.7256 267.473 29.5916C267.607 29.4576 267.772 29.3906 267.968 29.3906C268.165 29.3906 268.33 29.4576 268.464 29.5916Z" fill="#353535"></path>
  <path d="M265.981 38.8344C265.686 38.9952 265.356 39.0756 264.99 39.0756C263.65 39.0756 262.98 38.3922 262.98 37.0256V33.0731H261.895V32.2156H262.98V30.5273H264.038V32.2156H265.914V33.0731H264.038V37.0524C264.038 37.7759 264.378 38.1377 265.057 38.1377C265.405 38.1377 265.713 38.0349 265.981 37.8295V38.8344Z" fill="#353535"></path>
  <path d="M259.053 38.8376C258.705 39.7576 258.289 40.4052 257.807 40.7804C257.333 41.1555 256.789 41.3431 256.172 41.3431C255.94 41.3431 255.752 41.3208 255.61 41.2761V40.3248C255.744 40.3606 255.895 40.3784 256.065 40.3784C256.967 40.3784 257.606 39.8648 257.981 38.8376L255.234 32.2188H256.427L257.311 34.4563L258.504 37.5379C258.575 37.3057 258.932 36.2785 259.575 34.4563L260.366 32.2188H261.505L259.053 38.8376Z" fill="#353535"></path>
  <path d="M254.226 39.0118H253.168V29.5391H254.226V39.0118Z" fill="#353535"></path>
  <path d="M248.726 38.1923C249.208 38.1923 249.592 38.0583 249.878 37.7903C250.164 37.5134 250.307 37.1651 250.307 36.7452V35.8743H249.128C248.556 35.8743 248.127 35.986 247.842 36.2093C247.556 36.4326 247.413 36.714 247.413 37.0534C247.413 37.3928 247.525 37.6697 247.748 37.8841C247.971 38.0896 248.297 38.1923 248.726 38.1923ZM250.32 38.2057C249.972 38.7863 249.338 39.0766 248.418 39.0766C247.784 39.0766 247.27 38.889 246.877 38.5138C246.493 38.1387 246.301 37.6653 246.301 37.0936C246.301 36.4415 246.546 35.9369 247.038 35.5796C247.538 35.2134 248.217 35.0302 249.074 35.0302H250.307V34.6819C250.307 34.1459 250.186 33.744 249.945 33.476C249.704 33.1991 249.298 33.0607 248.726 33.0607C248.002 33.0607 247.359 33.2527 246.797 33.6368V32.5783C247.306 32.2657 247.976 32.1094 248.806 32.1094C250.512 32.1094 251.365 32.9758 251.365 34.7087V39.0096H250.32V38.2057Z" fill="#353535"></path>
  <path d="M244.906 39.0118H243.848V34.6171C243.848 34.1169 243.718 33.7373 243.459 33.4782C243.209 33.2103 242.879 33.0763 242.468 33.0763C241.959 33.0763 241.516 33.2728 241.141 33.6658C240.775 34.0588 240.592 34.6037 240.592 35.3004V39.0118H239.547V32.2188H240.592V33.3979C240.994 32.5493 241.708 32.125 242.736 32.125C243.397 32.125 243.924 32.326 244.317 32.7279C244.71 33.1299 244.906 33.6658 244.906 34.3357V39.0118Z" fill="#353535"></path>
  <path d="M232.94 35.2059L232.766 35.715H235.968L235.794 35.1925L234.387 30.8514C234.28 31.2355 233.798 32.687 232.94 35.2059ZM231.654 39.011H230.488L233.637 29.9805H235.138L238.233 39.011H237.067L236.276 36.6395H232.458L231.654 39.011Z" fill="#353535"></path>
  <path d="M223.476 38.1923C223.958 38.1923 224.342 38.0583 224.628 37.7903C224.914 37.5134 225.057 37.1651 225.057 36.7452V35.8743H223.878C223.306 35.8743 222.877 35.986 222.592 36.2093C222.306 36.4326 222.163 36.714 222.163 37.0534C222.163 37.3928 222.275 37.6697 222.498 37.8841C222.721 38.0896 223.047 38.1923 223.476 38.1923ZM225.07 38.2057C224.722 38.7863 224.088 39.0766 223.168 39.0766C222.534 39.0766 222.02 38.889 221.627 38.5138C221.243 38.1387 221.051 37.6653 221.051 37.0936C221.051 36.4415 221.296 35.9369 221.788 35.5796C222.288 35.2134 222.967 35.0302 223.824 35.0302H225.057V34.6819C225.057 34.1459 224.936 33.744 224.695 33.476C224.454 33.1991 224.048 33.0607 223.476 33.0607C222.752 33.0607 222.109 33.2527 221.547 33.6368V32.5783C222.056 32.2657 222.726 32.1094 223.556 32.1094C225.262 32.1094 226.115 32.9758 226.115 34.7087V39.0096H225.07V38.2057Z" fill="#353535"></path>
  <path d="M219.989 38.8344C219.694 38.9952 219.364 39.0756 218.997 39.0756C217.658 39.0756 216.988 38.3922 216.988 37.0256V33.0731H215.902V32.2156H216.988V30.5273H218.046V32.2156H219.922V33.0731H218.046V37.0524C218.046 37.7759 218.386 38.1377 219.064 38.1377C219.413 38.1377 219.721 38.0349 219.989 37.8295V38.8344Z" fill="#353535"></path>
  <path d="M212.202 38.1923C212.685 38.1923 213.069 38.0583 213.355 37.7903C213.641 37.5134 213.783 37.1651 213.783 36.7452V35.8743H212.604C212.033 35.8743 211.604 35.986 211.318 36.2093C211.032 36.4326 210.889 36.714 210.889 37.0534C210.889 37.3928 211.001 37.6697 211.224 37.8841C211.448 38.0896 211.774 38.1923 212.202 38.1923ZM213.797 38.2057C213.449 38.7863 212.814 39.0766 211.894 39.0766C211.26 39.0766 210.746 38.889 210.353 38.5138C209.969 38.1387 209.777 37.6653 209.777 37.0936C209.777 36.4415 210.023 35.9369 210.514 35.5796C211.014 35.2134 211.693 35.0302 212.551 35.0302H213.783V34.6819C213.783 34.1459 213.663 33.744 213.422 33.476C213.181 33.1991 212.774 33.0607 212.202 33.0607C211.479 33.0607 210.836 33.2527 210.273 33.6368V32.5783C210.782 32.2657 211.452 32.1094 212.283 32.1094C213.989 32.1094 214.842 32.9758 214.842 34.7087V39.0096H213.797V38.2057Z" fill="#353535"></path>
  <path d="M204.186 39.011H201.453V29.9805H204.133C205.464 29.9805 206.553 30.3958 207.402 31.2265C208.26 32.0483 208.688 33.1157 208.688 34.4288C208.688 35.7329 208.291 36.8226 207.496 37.698C206.71 38.5734 205.607 39.011 204.186 39.011ZM204.119 30.9452H202.552V38.0597H204.173C205.29 38.0597 206.134 37.7158 206.705 37.0281C207.277 36.3313 207.563 35.4649 207.563 34.4288C207.563 33.4462 207.241 32.62 206.598 31.95C205.964 31.2801 205.138 30.9452 204.119 30.9452Z" fill="#353535"></path>
  <path d="M195.07 39.0124H194.012L194.025 32.2193H195.07V33.4118C195.427 32.5722 196.044 32.1523 196.919 32.1523C197.08 32.1523 197.205 32.1613 197.294 32.1791V33.2242C197.107 33.1617 196.915 33.1304 196.718 33.1304C196.245 33.1304 195.852 33.3493 195.539 33.787C195.227 34.2246 195.07 34.7293 195.07 35.301V39.0124Z" fill="#353535"></path>
  <path d="M192.121 38.6618C191.594 38.9387 190.951 39.0771 190.192 39.0771C189.165 39.0771 188.334 38.7645 187.7 38.1392C187.074 37.505 186.762 36.6699 186.762 35.6337C186.762 34.5529 187.043 33.6999 187.606 33.0746C188.169 32.4493 188.892 32.1367 189.776 32.1367C190.625 32.1367 191.299 32.4092 191.8 32.954C192.3 33.4989 192.55 34.2715 192.55 35.272C192.55 35.5578 192.528 35.8213 192.483 36.0625H187.847C187.927 36.7324 188.182 37.246 188.611 37.6033C189.039 37.9606 189.602 38.1392 190.299 38.1392C191.058 38.1392 191.666 37.9829 192.121 37.6703V38.6618ZM189.776 33.0612C189.267 33.0612 188.834 33.2443 188.477 33.6105C188.119 33.9768 187.91 34.4993 187.847 35.1782H191.491V34.9102C191.491 34.3475 191.34 33.9008 191.036 33.5704C190.732 33.2309 190.312 33.0612 189.776 33.0612Z" fill="#353535"></path>
  <path d="M183.558 39.0118H182.258L179.887 32.2188H180.985L181.923 35.086L182.915 38.1811C182.995 37.797 183.33 36.7653 183.92 35.086L184.884 32.2188H185.983L183.558 39.0118Z" fill="#353535"></path>
  <path d="M178.648 39.0118H177.59V29.5391H178.648V39.0118Z" fill="#353535"></path>
  <path d="M175.657 39.0107H174.598V32.2177H175.657V39.0107ZM175.617 29.5916C175.751 29.7256 175.818 29.8908 175.818 30.0873C175.818 30.2839 175.751 30.4491 175.617 30.5831C175.483 30.7081 175.317 30.7707 175.121 30.7707C174.924 30.7707 174.759 30.7081 174.625 30.5831C174.5 30.4491 174.438 30.2839 174.438 30.0873C174.438 29.8908 174.5 29.7256 174.625 29.5916C174.759 29.4576 174.924 29.3906 175.121 29.3906C175.317 29.3906 175.483 29.4576 175.617 29.5916Z" fill="#353535"></path>
  <path d="M172.931 36.6111C172.931 37.406 172.659 38.0224 172.114 38.4601C171.569 38.8888 170.868 39.1032 170.011 39.1032C169.064 39.1032 168.26 38.9111 167.599 38.527V37.3614C168.251 37.8527 169.046 38.0983 169.984 38.0983C170.546 38.0983 170.989 37.9732 171.31 37.7231C171.632 37.473 171.793 37.1113 171.793 36.6379C171.793 36.4414 171.752 36.2672 171.672 36.1153C171.6 35.9545 171.475 35.8116 171.297 35.6866C171.127 35.5526 170.962 35.4454 170.801 35.365C170.649 35.2757 170.439 35.1685 170.171 35.0434C170.118 35.0167 170.037 34.9809 169.93 34.9363C169.546 34.7665 169.251 34.6281 169.046 34.5209C168.849 34.4137 168.613 34.2574 168.336 34.052C168.068 33.8376 167.871 33.5919 167.746 33.315C167.621 33.0381 167.559 32.7166 167.559 32.3504C167.559 31.5822 167.831 30.9837 168.376 30.555C168.93 30.1173 169.622 29.8984 170.453 29.8984C171.23 29.8984 171.891 30.0369 172.436 30.3138V31.4527C171.891 31.0954 171.239 30.9167 170.479 30.9167C169.935 30.9167 169.501 31.0462 169.18 31.3053C168.858 31.5554 168.697 31.8859 168.697 32.2968C168.697 32.5111 168.738 32.7032 168.818 32.8729C168.907 33.0426 169.059 33.2034 169.274 33.3552C169.488 33.4982 169.671 33.6098 169.823 33.6902C169.975 33.7617 170.211 33.8688 170.533 34.0118C170.837 34.1458 171.069 34.2529 171.23 34.3333C171.391 34.4048 171.596 34.5254 171.846 34.6951C172.105 34.8559 172.297 35.0167 172.422 35.1774C172.556 35.3293 172.672 35.5347 172.771 35.7938C172.878 36.0439 172.931 36.3163 172.931 36.6111Z" fill="#353535"></path>
  <path d="M344.087 58.0922C343.792 58.253 343.461 58.3334 343.095 58.3334C341.755 58.3334 341.085 57.6501 341.085 56.2834V52.3309H340V51.4734H341.085V49.7852H342.144V51.4734H344.02V52.3309H342.144V56.3102C342.144 57.0337 342.483 57.3955 343.162 57.3955C343.51 57.3955 343.819 57.2928 344.087 57.0873V58.0922Z" fill="#353535"></path>
  <path d="M338.941 58.2696H337.883V53.8749C337.883 53.3747 337.753 52.9951 337.494 52.7361C337.244 52.4681 336.914 52.3341 336.503 52.3341C335.994 52.3341 335.552 52.5306 335.176 52.9236C334.81 53.3167 334.627 53.8615 334.627 54.5582V58.2696H333.582V51.4766H334.627V52.6557C335.029 51.8071 335.744 51.3828 336.771 51.3828C337.432 51.3828 337.959 51.5838 338.352 51.9857C338.745 52.3877 338.941 52.9236 338.941 53.5936V58.2696Z" fill="#353535"></path>
  <path d="M331.672 57.9196C331.145 58.1965 330.502 58.3349 329.743 58.3349C328.715 58.3349 327.885 58.0223 327.25 57.397C326.625 56.7628 326.312 55.9277 326.312 54.8915C326.312 53.8107 326.594 52.9577 327.157 52.3324C327.719 51.7072 328.443 51.3945 329.327 51.3945C330.176 51.3945 330.85 51.667 331.35 52.2118C331.851 52.7567 332.101 53.5294 332.101 54.5298C332.101 54.8156 332.078 55.0791 332.034 55.3203H327.398C327.478 55.9902 327.733 56.5038 328.161 56.8611C328.59 57.2184 329.153 57.397 329.85 57.397C330.609 57.397 331.216 57.2407 331.672 56.9281V57.9196ZM329.327 52.319C328.818 52.319 328.385 52.5021 328.028 52.8684C327.67 53.2346 327.46 53.7571 327.398 54.436H331.042V54.168C331.042 53.6053 330.89 53.1587 330.587 52.8282C330.283 52.4887 329.863 52.319 329.327 52.319Z" fill="#353535"></path>
  <path d="M324.967 58.2696H323.908V53.8749C323.908 52.8477 323.475 52.3341 322.609 52.3341C322.18 52.3341 321.796 52.5306 321.457 52.9236C321.117 53.3077 320.947 53.8526 320.947 54.5582V58.2696H319.889V53.8749C319.889 52.8477 319.456 52.3341 318.589 52.3341C318.161 52.3341 317.776 52.5306 317.437 52.9236C317.098 53.3077 316.928 53.8526 316.928 54.5582V58.2696H315.883V51.4766H316.928V52.5753C317.303 51.7803 317.942 51.3828 318.844 51.3828C319.889 51.3828 320.55 51.825 320.827 52.7093C321.023 52.2805 321.296 51.9545 321.644 51.7312C322.001 51.4989 322.399 51.3828 322.837 51.3828C323.542 51.3828 324.074 51.5838 324.431 51.9857C324.788 52.3877 324.967 52.9281 324.967 53.607V58.2696Z" fill="#353535"></path>
  <path d="M309.459 60.9069H308.414V51.4744H309.459V52.5061C309.933 51.7468 310.634 51.3672 311.563 51.3672C312.465 51.3672 313.171 51.6977 313.68 52.3587C314.198 53.0107 314.457 53.828 314.457 54.8106C314.457 55.8557 314.184 56.7132 313.639 57.3831C313.104 58.0441 312.402 58.3746 311.536 58.3746C310.643 58.3746 309.95 57.995 309.459 57.2357V60.9069ZM309.459 54.8776C309.459 55.744 309.66 56.3827 310.062 56.7936C310.464 57.2045 310.911 57.4099 311.402 57.4099C311.974 57.4099 312.443 57.1866 312.809 56.74C313.175 56.2844 313.358 55.6413 313.358 54.8106C313.358 54.0692 313.179 53.4707 312.822 53.0152C312.465 52.5597 312.014 52.3319 311.469 52.3319C310.924 52.3319 310.451 52.5329 310.049 52.9348C309.656 53.3278 309.459 53.9754 309.459 54.8776Z" fill="#353535"></path>
  <path d="M306.999 54.8932C306.999 55.9026 306.713 56.7377 306.141 57.3987C305.57 58.0597 304.784 58.3902 303.783 58.3902C302.81 58.3902 302.037 58.0642 301.465 57.4121C300.902 56.7511 300.621 55.9204 300.621 54.92C300.621 53.9107 300.911 53.071 301.492 52.4011C302.082 51.7222 302.845 51.3828 303.783 51.3828C304.81 51.3828 305.601 51.7133 306.155 52.3743C306.717 53.0353 306.999 53.8749 306.999 54.8932ZM301.72 54.9066C301.72 55.6123 301.907 56.2152 302.283 56.7154C302.658 57.2067 303.158 57.4523 303.783 57.4523C304.462 57.4523 304.985 57.2111 305.351 56.7288C305.717 56.2375 305.9 55.6301 305.9 54.9066C305.9 54.1563 305.726 53.54 305.378 53.0576C305.029 52.5663 304.498 52.3207 303.783 52.3207C303.14 52.3207 302.635 52.5708 302.269 53.071C301.903 53.5712 301.72 54.1831 301.72 54.9066Z" fill="#353535"></path>
  <path d="M299.144 58.2696H298.086V48.7969H299.144V58.2696Z" fill="#353535"></path>
  <path d="M296.121 57.9196C295.594 58.1965 294.951 58.3349 294.192 58.3349C293.165 58.3349 292.334 58.0223 291.7 57.397C291.074 56.7628 290.762 55.9277 290.762 54.8915C290.762 53.8107 291.043 52.9577 291.606 52.3324C292.169 51.7072 292.892 51.3945 293.776 51.3945C294.625 51.3945 295.299 51.667 295.8 52.2118C296.3 52.7567 296.55 53.5294 296.55 54.5298C296.55 54.8156 296.528 55.0791 296.483 55.3203H291.847C291.927 55.9902 292.182 56.5038 292.611 56.8611C293.039 57.2184 293.602 57.397 294.299 57.397C295.058 57.397 295.666 57.2407 296.121 56.9281V57.9196ZM293.776 52.319C293.267 52.319 292.834 52.5021 292.477 52.8684C292.119 53.2346 291.91 53.7571 291.847 54.436H295.491V54.168C295.491 53.6053 295.34 53.1587 295.036 52.8282C294.732 52.4887 294.312 52.319 293.776 52.319Z" fill="#353535"></path>
  <path d="M287.566 58.2696H286.266L283.895 51.4766H284.993L285.931 54.3438L286.923 57.4389C287.003 57.0548 287.338 56.0231 287.927 54.3438L288.892 51.4766H289.991L287.566 58.2696Z" fill="#353535"></path>
  <path d="M282.625 57.9196C282.098 58.1965 281.455 58.3349 280.696 58.3349C279.668 58.3349 278.838 58.0223 278.204 57.397C277.578 56.7628 277.266 55.9277 277.266 54.8915C277.266 53.8107 277.547 52.9577 278.11 52.3324C278.672 51.7072 279.396 51.3945 280.28 51.3945C281.129 51.3945 281.803 51.667 282.303 52.2118C282.804 52.7567 283.054 53.5294 283.054 54.5298C283.054 54.8156 283.031 55.0791 282.987 55.3203H278.351C278.431 55.9902 278.686 56.5038 279.115 56.8611C279.543 57.2184 280.106 57.397 280.803 57.397C281.562 57.397 282.169 57.2407 282.625 56.9281V57.9196ZM280.28 52.319C279.771 52.319 279.338 52.5021 278.981 52.8684C278.623 53.2346 278.413 53.7571 278.351 54.436H281.995V54.168C281.995 53.6053 281.843 53.1587 281.54 52.8282C281.236 52.4887 280.816 52.319 280.28 52.319Z" fill="#353535"></path>
  <path d="M271.733 58.2688H269V49.2383H271.68C273.011 49.2383 274.1 49.6536 274.949 50.4843C275.806 51.3061 276.235 52.3735 276.235 53.6866C276.235 54.9907 275.838 56.0804 275.043 56.9558C274.257 57.8312 273.154 58.2688 271.733 58.2688ZM271.666 50.203H270.099V57.3176H271.72C272.836 57.3176 273.681 56.9737 274.252 56.2859C274.824 55.5892 275.11 54.7227 275.11 53.6866C275.11 52.704 274.788 51.8778 274.145 51.2079C273.511 50.5379 272.685 50.203 271.666 50.203Z" fill="#353535"></path>
  <path d="M264.066 58.2696H263.008V53.8749C263.008 53.3747 262.878 52.9951 262.619 52.7361C262.369 52.4681 262.039 52.3341 261.628 52.3341C261.119 52.3341 260.677 52.5306 260.301 52.9236C259.935 53.3167 259.752 53.8615 259.752 54.5582V58.2696H258.707V51.4766H259.752V52.6557C260.154 51.8071 260.869 51.3828 261.896 51.3828C262.557 51.3828 263.084 51.5838 263.477 51.9857C263.87 52.3877 264.066 52.9236 264.066 53.5936V58.2696Z" fill="#353535"></path>
  <path d="M257.292 54.8932C257.292 55.9026 257.006 56.7377 256.434 57.3987C255.863 58.0597 255.077 58.3902 254.076 58.3902C253.102 58.3902 252.33 58.0642 251.758 57.4121C251.195 56.7511 250.914 55.9204 250.914 54.92C250.914 53.9107 251.204 53.071 251.785 52.4011C252.374 51.7222 253.138 51.3828 254.076 51.3828C255.103 51.3828 255.894 51.7133 256.448 52.3743C257.01 53.0353 257.292 53.8749 257.292 54.8932ZM252.013 54.9066C252.013 55.6123 252.2 56.2152 252.575 56.7154C252.951 57.2067 253.451 57.4523 254.076 57.4523C254.755 57.4523 255.277 57.2111 255.644 56.7288C256.01 56.2375 256.193 55.6301 256.193 54.9066C256.193 54.1563 256.019 53.54 255.671 53.0576C255.322 52.5663 254.791 52.3207 254.076 52.3207C253.433 52.3207 252.928 52.5708 252.562 53.071C252.196 53.5712 252.013 54.1831 252.013 54.9066Z" fill="#353535"></path>
  <path d="M249.438 58.2685H248.38V51.4755H249.438V58.2685ZM249.398 48.8494C249.532 48.9834 249.599 49.1486 249.599 49.3452C249.599 49.5417 249.532 49.7069 249.398 49.8409C249.264 49.966 249.099 50.0285 248.902 50.0285C248.706 50.0285 248.54 49.966 248.406 49.8409C248.281 49.7069 248.219 49.5417 248.219 49.3452C248.219 49.1486 248.281 48.9834 248.406 48.8494C248.54 48.7154 248.706 48.6484 248.902 48.6484C249.099 48.6484 249.264 48.7154 249.398 48.8494Z" fill="#353535"></path>
  <path d="M246.915 58.0922C246.62 58.253 246.289 58.3334 245.923 58.3334C244.583 58.3334 243.913 57.6501 243.913 56.2834V52.3309H242.828V51.4734H243.913V49.7852H244.972V51.4734H246.848V52.3309H244.972V56.3102C244.972 57.0337 245.311 57.3955 245.99 57.3955C246.339 57.3955 246.647 57.2928 246.915 57.0873V58.0922Z" fill="#353535"></path>
  <path d="M239.128 57.4501C239.611 57.4501 239.995 57.3161 240.281 57.0481C240.566 56.7712 240.709 56.4229 240.709 56.0031V55.1322H239.53C238.959 55.1322 238.53 55.2438 238.244 55.4671C237.958 55.6904 237.815 55.9718 237.815 56.3112C237.815 56.6506 237.927 56.9276 238.15 57.1419C238.373 57.3474 238.699 57.4501 239.128 57.4501ZM240.723 57.4635C240.374 58.0441 239.74 58.3344 238.82 58.3344C238.186 58.3344 237.672 58.1468 237.279 57.7717C236.895 57.3965 236.703 56.9231 236.703 56.3514C236.703 55.6994 236.949 55.1947 237.44 54.8374C237.94 54.4712 238.619 54.2881 239.477 54.2881H240.709V53.9397C240.709 53.4038 240.589 53.0018 240.348 52.7338C240.106 52.4569 239.7 52.3185 239.128 52.3185C238.405 52.3185 237.762 52.5105 237.199 52.8946V51.8361C237.708 51.5235 238.378 51.3672 239.209 51.3672C240.915 51.3672 241.768 52.2336 241.768 53.9665V58.2674H240.723V57.4635Z" fill="#353535"></path>
  <path d="M235.555 58.0279C235.126 58.2869 234.599 58.4165 233.974 58.4165C232.902 58.4165 232.049 58.077 231.414 57.3982C230.789 56.7104 230.477 55.8752 230.477 54.8927C230.477 53.928 230.789 53.0973 231.414 52.4005C232.049 51.7038 232.911 51.3555 234 51.3555C234.581 51.3555 235.099 51.4805 235.555 51.7306V52.7355C235.144 52.4586 234.661 52.3202 234.108 52.3202C233.339 52.3202 232.723 52.5703 232.259 53.0705C231.803 53.5617 231.575 54.1736 231.575 54.9061C231.584 55.6385 231.807 56.2504 232.245 56.7417C232.683 57.224 233.304 57.4652 234.108 57.4652C234.626 57.4652 235.108 57.3178 235.555 57.023V58.0279Z" fill="#353535"></path>
  <path d="M228.997 58.2685H227.938V51.4755H228.997V58.2685ZM228.956 48.8494C229.09 48.9834 229.157 49.1486 229.157 49.3452C229.157 49.5417 229.09 49.7069 228.956 49.8409C228.822 49.966 228.657 50.0285 228.461 50.0285C228.264 50.0285 228.099 49.966 227.965 49.8409C227.84 49.7069 227.777 49.5417 227.777 49.3452C227.777 49.1486 227.84 48.9834 227.965 48.8494C228.099 48.7154 228.264 48.6484 228.461 48.6484C228.657 48.6484 228.822 48.7154 228.956 48.8494Z" fill="#353535"></path>
  <path d="M226.004 58.2696H224.945V48.7969H226.004V58.2696Z" fill="#353535"></path>
  <path d="M218.471 60.9069H217.426V51.4744H218.471V52.5061C218.944 51.7468 219.645 51.3672 220.574 51.3672C221.477 51.3672 222.182 51.6977 222.691 52.3587C223.209 53.0107 223.468 53.828 223.468 54.8106C223.468 55.8557 223.196 56.7132 222.651 57.3831C222.115 58.0441 221.414 58.3746 220.548 58.3746C219.654 58.3746 218.962 57.995 218.471 57.2357V60.9069ZM218.471 54.8776C218.471 55.744 218.672 56.3827 219.074 56.7936C219.476 57.2045 219.922 57.4099 220.414 57.4099C220.985 57.4099 221.454 57.1866 221.82 56.74C222.187 56.2844 222.37 55.6413 222.37 54.8106C222.37 54.0692 222.191 53.4707 221.834 53.0152C221.477 52.5597 221.025 52.3319 220.481 52.3319C219.936 52.3319 219.462 52.5329 219.06 52.9348C218.667 53.3278 218.471 53.9754 218.471 54.8776Z" fill="#353535"></path>
  <path d="M211.002 60.9069H209.957V51.4744H211.002V52.5061C211.476 51.7468 212.177 51.3672 213.106 51.3672C214.008 51.3672 214.713 51.6977 215.223 52.3587C215.741 53.0107 216 53.828 216 54.8106C216 55.8557 215.727 56.7132 215.182 57.3831C214.646 58.0441 213.945 58.3746 213.079 58.3746C212.186 58.3746 211.493 57.995 211.002 57.2357V60.9069ZM211.002 54.8776C211.002 55.744 211.203 56.3827 211.605 56.7936C212.007 57.2045 212.454 57.4099 212.945 57.4099C213.517 57.4099 213.986 57.1866 214.352 56.74C214.718 56.2844 214.901 55.6413 214.901 54.8106C214.901 54.0692 214.722 53.4707 214.365 53.0152C214.008 52.5597 213.557 52.3319 213.012 52.3319C212.467 52.3319 211.994 52.5329 211.592 52.9348C211.199 53.3278 211.002 53.9754 211.002 54.8776Z" fill="#353535"></path>
  <path d="M203.346 54.4637L203.172 54.9728H206.375L206.2 54.4503L204.793 50.1092C204.686 50.4933 204.204 51.9448 203.346 54.4637ZM202.06 58.2688H200.895L204.043 49.2383H205.544L208.639 58.2688H207.473L206.683 55.8973H202.864L202.06 58.2688Z" fill="#353535"></path>
  <path d="M195.07 58.2702H194.012L194.025 51.4771H195.07V52.6696C195.427 51.83 196.044 51.4102 196.919 51.4102C197.08 51.4102 197.205 51.4191 197.294 51.437V52.482C197.107 52.4195 196.915 52.3882 196.718 52.3882C196.245 52.3882 195.852 52.6071 195.539 53.0448C195.227 53.4825 195.07 53.9871 195.07 54.5588V58.2702Z" fill="#353535"></path>
  <path d="M192.121 57.9196C191.594 58.1965 190.951 58.3349 190.192 58.3349C189.165 58.3349 188.334 58.0223 187.7 57.397C187.074 56.7628 186.762 55.9277 186.762 54.8915C186.762 53.8107 187.043 52.9577 187.606 52.3324C188.169 51.7072 188.892 51.3945 189.776 51.3945C190.625 51.3945 191.299 51.667 191.8 52.2118C192.3 52.7567 192.55 53.5294 192.55 54.5298C192.55 54.8156 192.528 55.0791 192.483 55.3203H187.847C187.927 55.9902 188.182 56.5038 188.611 56.8611C189.039 57.2184 189.602 57.397 190.299 57.397C191.058 57.397 191.666 57.2407 192.121 56.9281V57.9196ZM189.776 52.319C189.267 52.319 188.834 52.5021 188.477 52.8684C188.119 53.2346 187.91 53.7571 187.847 54.436H191.491V54.168C191.491 53.6053 191.34 53.1587 191.036 52.8282C190.732 52.4887 190.312 52.319 189.776 52.319Z" fill="#353535"></path>
  <path d="M183.558 58.2696H182.258L179.887 51.4766H180.985L181.923 54.3438L182.915 57.4389C182.995 57.0548 183.33 56.0231 183.92 54.3438L184.884 51.4766H185.983L183.558 58.2696Z" fill="#353535"></path>
  <path d="M178.648 58.2696H177.59V48.7969H178.648V58.2696Z" fill="#353535"></path>
  <path d="M175.657 58.2685H174.598V51.4755H175.657V58.2685ZM175.617 48.8494C175.751 48.9834 175.818 49.1486 175.818 49.3452C175.818 49.5417 175.751 49.7069 175.617 49.8409C175.483 49.966 175.317 50.0285 175.121 50.0285C174.924 50.0285 174.759 49.966 174.625 49.8409C174.5 49.7069 174.438 49.5417 174.438 49.3452C174.438 49.1486 174.5 48.9834 174.625 48.8494C174.759 48.7154 174.924 48.6484 175.121 48.6484C175.317 48.6484 175.483 48.7154 175.617 48.8494Z" fill="#353535"></path>
  <path d="M172.931 55.8689C172.931 56.6639 172.659 57.2802 172.114 57.7179C171.569 58.1466 170.868 58.361 170.011 58.361C169.064 58.361 168.26 58.169 167.599 57.7849V56.6192C168.251 57.1105 169.046 57.3561 169.984 57.3561C170.546 57.3561 170.989 57.2311 171.31 56.981C171.632 56.7308 171.793 56.3691 171.793 55.8957C171.793 55.6992 171.752 55.525 171.672 55.3731C171.6 55.2124 171.475 55.0694 171.297 54.9444C171.127 54.8104 170.962 54.7032 170.801 54.6228C170.649 54.5335 170.439 54.4263 170.171 54.3013C170.118 54.2745 170.037 54.2387 169.93 54.1941C169.546 54.0244 169.251 53.8859 169.046 53.7787C168.849 53.6715 168.613 53.5152 168.336 53.3098C168.068 53.0954 167.871 52.8498 167.746 52.5729C167.621 52.296 167.559 51.9744 167.559 51.6082C167.559 50.84 167.831 50.2415 168.376 49.8128C168.93 49.3751 169.622 49.1562 170.453 49.1562C171.23 49.1562 171.891 49.2947 172.436 49.5716V50.7105C171.891 50.3532 171.239 50.1745 170.479 50.1745C169.935 50.1745 169.501 50.3041 169.18 50.5631C168.858 50.8132 168.697 51.1437 168.697 51.5546C168.697 51.769 168.738 51.961 168.818 52.1307C168.907 52.3004 169.059 52.4612 169.274 52.6131C169.488 52.756 169.671 52.8676 169.823 52.948C169.975 53.0195 170.211 53.1267 170.533 53.2696C170.837 53.4036 171.069 53.5108 171.23 53.5911C171.391 53.6626 171.596 53.7832 171.846 53.9529C172.105 54.1137 172.297 54.2745 172.422 54.4352C172.556 54.5871 172.672 54.7925 172.771 55.0516C172.878 55.3017 172.931 55.5741 172.931 55.8689Z" fill="#353535"></path>
  <rect x="151.43" y="0.5" width="0.802326" height="69" fill="#353535"></rect>
  <g clip-path="url(#clip0_5767_6363)">
    <path d="M30.3624 31.356H27.335V14.6722C27.335 13.3547 27.4191 11.749 27.5875 9.85508H27.5155C27.3254 10.6775 27.0661 11.4823 26.7404 12.261L17.9289 31.356H16.4534L7.62197 12.4025C7.28253 11.5802 7.02298 10.7271 6.84689 9.85508H6.77745C6.87293 10.8492 6.92096 12.4662 6.92153 14.7061V31.356H4V6.51172H8.0004L15.9292 23.837C16.393 24.7997 16.7844 25.7957 17.1 26.8166H17.2268C17.8268 25.2231 18.2411 24.2067 18.4697 23.7675L26.5607 6.51172H30.3624V31.356Z" fill="#353535"></path>
    <path d="M38.3708 31.3549H35.4197V13.6139H38.3708V31.3549ZM38.8759 7.25529C38.8815 7.50484 38.8327 7.7526 38.7331 7.98144C38.6334 8.21028 38.4852 8.41474 38.2987 8.58066C37.9234 8.91795 37.4375 9.10598 36.9328 9.10918C36.4282 9.11238 35.9399 8.93052 35.5604 8.59802C35.3751 8.42832 35.2292 8.22026 35.1326 7.98836C35.0361 7.75646 34.9913 7.50629 35.0014 7.25529C34.9996 7.01399 35.0475 6.77491 35.142 6.55288C35.2365 6.33085 35.3756 6.13063 35.5508 5.96465C35.7311 5.78505 35.946 5.64403 36.1825 5.55017C36.419 5.45631 36.6722 5.41158 36.9265 5.4187C37.1821 5.4117 37.4364 5.4556 37.6748 5.54784C37.9133 5.64007 38.1309 5.77881 38.3152 5.95597C38.4943 6.12177 38.6366 6.32333 38.7329 6.5476C38.8292 6.77187 38.8773 7.01385 38.8742 7.2579" fill="#353535"></path>
    <path d="M54.8488 30.5339C53.3029 31.3952 51.5543 31.8263 49.7851 31.782C48.2031 31.807 46.6416 31.4218 45.2527 30.6641C43.928 29.9339 42.8428 28.836 42.128 27.503C41.3708 26.0925 40.986 24.5122 41.0101 22.9115C40.9508 21.6172 41.1527 20.3242 41.6038 19.1097C42.0549 17.8951 42.7459 16.7838 43.6357 15.842C44.5529 14.9414 45.646 14.2396 46.8467 13.7805C48.0474 13.3214 49.3299 13.1149 50.614 13.1739C52.0876 13.1448 53.5484 13.4533 54.8844 14.0757V16.986C53.5929 16.0897 52.0602 15.6055 50.4882 15.5972C49.6155 15.5672 48.7467 15.7276 47.9423 16.0673C47.1378 16.4069 46.417 16.9177 45.8299 17.564C44.6007 18.9656 43.9585 20.7868 44.0367 22.6494C43.9388 24.4436 44.5505 26.2044 45.7396 27.5516C46.3304 28.1576 47.043 28.6315 47.8305 28.9418C48.6179 29.2521 49.4622 29.3918 50.3076 29.3517C51.9455 29.3432 53.5374 28.8089 54.8488 27.8276V30.5304" fill="#353535"></path>
    <path d="M67.6265 16.4893C66.9522 16.0682 66.1632 15.8685 65.3698 15.9181C64.7305 15.9156 64.1014 16.0776 63.5429 16.3886C62.9844 16.6997 62.5154 17.1492 62.1809 17.694C61.3096 19.0712 60.8819 20.6826 60.9554 22.3106V31.3547H58V13.6137H60.9554V17.2696H61.0274C61.3715 16.1429 62.0275 15.1366 62.9196 14.3671C63.7389 13.6684 64.7834 13.2898 65.8602 13.3013C66.4587 13.2763 67.0568 13.3583 67.6265 13.5434V16.4884" fill="#353535"></path>
    <path d="M81.5172 22.5131C81.6406 20.6735 81.0933 18.8515 79.9766 17.3844C79.4222 16.7767 78.7386 16.3009 77.9762 15.9921C77.2138 15.6833 76.3919 15.5493 75.5708 15.5999C74.7323 15.559 73.8949 15.7014 73.1169 16.0171C72.339 16.3327 71.6392 16.8141 71.0662 17.4278C69.8823 18.875 69.2901 20.7166 69.4084 22.5825C69.2994 24.3959 69.8966 26.181 71.0748 27.5637C71.6526 28.1665 72.3528 28.6384 73.1284 28.9476C73.904 29.2567 74.7369 29.396 75.5708 29.3561C76.3919 29.4087 77.2144 29.2774 77.9783 28.9716C78.7421 28.6659 79.4281 28.1935 79.9861 27.5889C81.0952 26.1387 81.6394 24.3347 81.5172 22.5131ZM84.5446 22.409C84.6017 23.6514 84.4104 24.8928 83.9819 26.0605C83.5535 27.2282 82.8964 28.2987 82.0492 29.2094C81.1729 30.0793 80.1252 30.7573 78.9727 31.2003C77.8202 31.6434 76.5881 31.8418 75.3547 31.7829C74.152 31.84 72.9505 31.647 71.8261 31.2162C70.7018 30.7853 69.679 30.1259 68.8225 29.2797C67.9952 28.3992 67.3529 27.3618 66.9335 26.2288C66.5142 25.0957 66.3263 23.8901 66.3809 22.6832C66.3127 21.4153 66.4992 20.1465 66.9294 18.9518C67.3596 17.7571 68.0249 16.6608 68.8858 15.7274C69.7995 14.8508 70.8839 14.1717 72.0715 13.7325C73.2591 13.2933 74.5245 13.1035 75.7887 13.1748C76.9745 13.1085 78.161 13.2942 79.2698 13.7197C80.3787 14.1452 81.3848 14.8008 82.222 15.6432C83.8517 17.5078 84.6867 19.9364 84.5481 22.409" fill="#353535"></path>
    <path d="M97.3346 26.6073C97.3496 27.3334 97.1896 28.0525 96.8681 28.7037C96.5466 29.355 96.0731 29.9193 95.4876 30.349C94.0597 31.3686 92.329 31.8754 90.5767 31.7872C88.9846 31.8236 87.4095 31.4538 86 30.7127V27.6636C87.356 28.7618 89.0479 29.3611 90.7928 29.3613C93.1352 29.3613 94.3066 28.5356 94.3072 26.8842C94.3174 26.5781 94.2615 26.2735 94.1433 25.991C94.0251 25.7085 93.8474 25.4548 93.6224 25.2472C92.6646 24.5408 91.6159 23.9669 90.5047 23.5408C89.2056 23.0872 88.0238 22.3501 87.045 21.3831C86.3404 20.5246 85.9806 19.4345 86.0356 18.3253C86.0309 17.6116 86.195 16.9069 86.5145 16.2687C86.834 15.6305 87.2998 15.0769 87.8739 14.6529C89.2106 13.6333 90.861 13.1116 92.5409 13.1774C93.9019 13.1576 95.2502 13.4417 96.4875 14.0089V16.868C95.2615 16.0172 93.7986 15.5745 92.3066 15.6025C91.467 15.5626 90.6385 15.8072 89.9553 16.2969C89.6741 16.5007 89.4462 16.7694 89.2909 17.08C89.1356 17.3906 89.0574 17.7341 89.063 18.0814C89.0416 18.4145 89.0916 18.7484 89.2097 19.0607C89.3278 19.3729 89.5113 19.6563 89.7478 19.8919C90.6067 20.5365 91.5615 21.042 92.5774 21.39C93.9546 21.87 95.2139 22.6378 96.2714 23.6424C96.9907 24.4584 97.371 25.5184 97.3346 26.6055" fill="#353535"></path>
    <path d="M114.147 22.5159C114.269 20.6763 113.722 18.8544 112.606 17.3871C112.051 16.7795 111.368 16.3038 110.605 15.995C109.843 15.6862 109.021 15.5521 108.2 15.6026C107.361 15.5618 106.524 15.7041 105.746 16.0198C104.968 16.3355 104.268 16.8169 103.695 17.4305C102.513 18.8786 101.922 20.72 102.041 22.5853C101.932 24.3988 102.53 26.1839 103.708 27.5665C104.286 28.1685 104.987 28.6397 105.762 28.9483C106.538 29.2568 107.37 29.3956 108.204 29.3554C109.025 29.4081 109.847 29.2767 110.611 28.971C111.374 28.6653 112.06 28.1928 112.618 27.5882C113.727 26.1381 114.272 24.3341 114.15 22.5124M117.177 22.4082C117.234 23.6508 117.043 24.8922 116.614 26.0599C116.186 27.2276 115.528 28.2981 114.681 29.2087C113.805 30.0785 112.757 30.7564 111.605 31.1993C110.453 31.6422 109.221 31.8404 107.987 31.7813C106.785 31.8386 105.583 31.6458 104.459 31.2149C103.334 30.784 102.312 30.1245 101.455 29.2781C100.628 28.3976 99.9857 27.3602 99.5663 26.2272C99.147 25.0942 98.959 23.8886 99.0137 22.6817C98.9455 21.4138 99.132 20.1451 99.5621 18.9504C99.9921 17.7558 100.657 16.6594 101.518 15.7259C102.431 14.849 103.515 14.1696 104.703 13.73C105.89 13.2904 107.156 13.1 108.42 13.1706C109.606 13.1045 110.792 13.2902 111.901 13.7157C113.01 14.1412 114.016 14.7967 114.853 15.6391C116.482 17.5041 117.316 19.9325 117.177 22.4048" fill="#353535"></path>
    <path d="M128.154 7.57968C127.549 7.26073 126.874 7.0998 126.19 7.11185C124.124 7.11185 123.091 8.36489 123.09 10.871V13.6085H127.415V16.0162H123.09V31.3495H120.135V16.0162H117V13.6085H120.135V10.7321C120.1 9.92995 120.23 9.12917 120.515 8.37858C120.8 7.62798 121.235 6.9433 121.793 6.36628C122.345 5.81571 123.004 5.38409 123.729 5.09806C124.454 4.81204 125.23 4.67768 126.009 4.70328C126.737 4.67653 127.464 4.78211 128.154 5.01488V7.57968Z" fill="#353535"></path>
    <path d="M138.777 31.1762C137.912 31.5916 136.959 31.788 136 31.7481C132.782 31.7481 131.172 30.0041 131.171 26.5161V16.0139H128V13.6088H131.171V9.27767L134.126 8.35938V13.6088H138.776V16.0165H134.126V26.0309C134.045 26.9238 134.267 27.818 134.757 28.5688C135.03 28.843 135.361 29.0529 135.726 29.1833C136.09 29.3138 136.479 29.3615 136.864 29.3231C137.545 29.3384 138.214 29.1382 138.774 28.7511V31.1762" fill="#353535"></path>
    <path d="M45.6313 48.2825C45.6313 44.9901 43.6133 43.3442 39.5774 43.3447H36.0274V53.5319H39.1989C40.8997 53.6454 42.5871 53.1646 43.9727 52.1718C44.5311 51.696 44.9715 51.0971 45.2591 50.4222C45.5468 49.7473 45.6748 49.0149 45.6313 48.2825ZM48.802 48.1263C48.8401 49.2282 48.6271 50.3244 48.1791 51.3318C47.7312 52.3393 47.06 53.2317 46.2163 53.9416C44.2997 55.4804 41.8868 56.266 39.4315 56.1505H36.0274V65.5557H33V40.7148H40.0999C42.8634 40.7148 45.0044 41.3647 46.5227 42.6643C47.2904 43.3448 47.8942 44.1902 48.2889 45.1372C48.6836 46.0841 48.859 47.1081 48.802 48.1324" fill="#353535"></path>
    <path d="M60.6255 56.5901L56.1564 57.1976C55.0162 57.2712 53.913 57.6316 52.9493 58.2453C52.623 58.5448 52.3702 58.9157 52.2108 59.3289C52.0514 59.7422 51.9895 60.1867 52.0301 60.6278C52.0162 61.0375 52.0986 61.4448 52.2708 61.8168C52.4429 62.1889 52.7 62.5153 53.0213 62.7699C53.7472 63.3286 54.6466 63.6138 55.5618 63.5754C56.2377 63.5957 56.9104 63.4736 57.536 63.217C58.1617 62.9604 58.7263 62.575 59.1933 62.086C59.6674 61.5912 60.0381 61.0069 60.284 60.3673C60.5299 59.7278 60.646 59.0456 60.6255 58.3607V56.5901ZM63.5808 65.5647H60.6255V62.7925H60.5534C60.0475 63.5977 59.3795 64.2889 58.5919 64.8219C57.8043 65.3549 56.9144 65.7181 55.9788 65.8884C55.0432 66.0587 54.0823 66.0323 53.1575 65.8111C52.2326 65.5898 51.3639 65.1784 50.6067 64.603C50.076 64.1376 49.6566 63.559 49.3793 62.9099C49.102 62.2608 48.9739 61.5578 49.0044 60.8526C49.0044 57.5492 51.0348 55.6203 55.0957 55.0659L60.6272 54.3204C60.6272 51.3184 59.36 49.8168 56.8256 49.8157C54.6266 49.8083 52.4955 50.5767 50.8072 51.9856V49.071C51.6647 48.5435 52.603 48.1603 53.5846 47.9366C54.7199 47.5986 55.8956 47.415 57.0799 47.3906C61.4162 47.3906 63.586 49.6025 63.5895 54.0261V65.5647" fill="#353535"></path>
    <path d="M77.623 50.6993C76.95 50.279 76.1626 50.0794 75.3707 50.1282C74.7312 50.1253 74.1019 50.2872 73.5432 50.5983C72.9845 50.9093 72.5153 51.359 72.1809 51.9041C71.3097 53.2813 70.8819 54.8927 70.9554 56.5207V65.5648H68V47.8238H70.9554V51.4796H71.0274C71.3715 50.3529 72.0275 49.3466 72.9196 48.5772C73.7383 47.8793 74.7818 47.501 75.8576 47.5122C76.4561 47.4872 77.0542 47.5692 77.6239 47.7544L77.623 50.6993Z" fill="#353535"></path>
    <path d="M89.7757 65.391C88.9107 65.8065 87.9569 66.0029 86.9982 65.963C83.7781 65.963 82.1683 64.219 82.1689 60.731V50.2287H79V47.8236H82.1715V43.4925L85.1269 42.5742V47.8236H89.7757V50.2322H85.1269V60.2458C85.0446 61.1387 85.267 62.0332 85.7579 62.7837C86.0311 63.0583 86.3621 63.2685 86.7268 63.399C87.0915 63.5295 87.4808 63.5769 87.8662 63.5379C88.547 63.5532 89.2153 63.3531 89.7757 62.9659V65.391Z" fill="#353535"></path>
    <path d="M108.306 65.5649H105.354V55.4471C105.354 51.6929 103.925 49.8158 101.065 49.8158C100.379 49.8027 99.6985 49.9375 99.0694 50.2112C98.4403 50.4848 97.8776 50.8909 97.4196 51.4016C96.422 52.5074 95.8951 53.9588 95.951 55.4471V65.5649H93V47.8239H95.951V50.7689H96.0231C96.6269 49.7059 97.5106 48.8288 98.5782 48.2332C99.6458 47.6376 100.856 47.3462 102.078 47.3908C102.946 47.3347 103.815 47.4776 104.619 47.8086C105.423 48.1395 106.141 48.6497 106.718 49.3003C107.867 50.8559 108.43 52.7679 108.306 54.6981V65.5649Z" fill="#353535"></path>
    <path d="M123.065 54.9979C123.128 53.6176 122.689 52.2613 121.83 51.1789C121.402 50.7171 120.877 50.3557 120.293 50.1206C119.709 49.8855 119.081 49.7824 118.452 49.8188C117.801 49.8081 117.154 49.9284 116.551 50.1725C115.947 50.4166 115.398 50.7795 114.938 51.2396C113.929 52.2574 113.284 53.5786 113.1 54.9996H123.065M126.092 57.4073H113.064C112.994 59.0917 113.586 60.7366 114.713 61.9901C115.296 62.5372 115.984 62.9598 116.735 63.2323C117.486 63.5048 118.285 63.6214 119.083 63.575C121.15 63.5832 123.161 62.9004 124.795 61.6351V64.2858C122.888 65.5131 120.645 66.1128 118.38 66.0009C117.236 66.0646 116.093 65.8782 115.028 65.4548C113.964 65.0313 113.005 64.3809 112.218 63.549C110.739 61.9155 110 59.6547 110.001 56.7668C109.981 55.0987 110.361 53.4501 111.109 51.9592C111.791 50.5716 112.85 49.4037 114.163 48.5889C115.463 47.7912 116.962 47.3769 118.488 47.3937C119.528 47.3361 120.568 47.5072 121.534 47.8948C122.501 48.2824 123.371 48.8773 124.083 49.6374C125.423 51.1337 126.092 53.2272 126.092 55.9179V57.4073Z" fill="#353535"></path>
    <path d="M138.619 50.6993C137.946 50.2793 137.158 50.0797 136.366 50.1282C135.727 50.1254 135.098 50.2874 134.539 50.5984C133.98 50.9094 133.511 51.3591 133.177 51.9041C132.305 53.2813 131.878 54.8927 131.951 56.5207V65.5648H129V47.8238H131.951V51.4796H132.023C132.367 50.353 133.023 49.3467 133.914 48.5772C134.733 47.8797 135.777 47.5015 136.852 47.5122C137.451 47.4872 138.049 47.5692 138.619 47.7544V50.6993Z" fill="#353535"></path>
  </g>
  <defs>
    <clipPath id="clip0_5767_6363">
      <rect width="141.461" height="61.2997" fill="white" transform="translate(0.539062 4.69922)"></rect>
    </clipPath>
  </defs>
</svg>
