<?xml version="1.0" encoding="UTF-8"?>
<svg xmlns="http://www.w3.org/2000/svg" width="60" height="18" viewBox="0 0 60 18" fill="none">
  <path opacity="0.3" fill-rule="evenodd" clip-rule="evenodd" d="M49.6179 7.75068C48.9505 8.41803 48.9505 9.50002 49.6179 10.1674L56.8679 17.4175C57.5353 18.0848 58.6173 18.0848 59.2846 17.4175C59.952 16.7501 59.952 15.6681 59.2846 15.0008L53.2429 8.95903L59.2846 2.9173C59.952 2.24995 59.952 1.16796 59.2846 0.500605C58.6173 -0.166746 57.5353 -0.166746 56.868 0.500604L49.6179 7.75068Z" fill="#94D9DB"></path>
  <path opacity="0.44" fill-rule="evenodd" clip-rule="evenodd" d="M37.3405 7.75068C36.6732 8.41803 36.6732 9.50002 37.3405 10.1674L44.5906 17.4175C45.258 18.0848 46.3399 18.0848 47.0073 17.4175C47.6747 16.7501 47.6747 15.6681 47.0073 15.0008L40.9656 8.95903L47.0073 2.9173C47.6747 2.24995 47.6747 1.16796 47.0073 0.500605C46.3399 -0.166746 45.258 -0.166746 44.5906 0.500604L37.3405 7.75068Z" fill="#94D9DB"></path>
  <path opacity="0.6" fill-rule="evenodd" clip-rule="evenodd" d="M25.0593 7.75068C24.3919 8.41803 24.3919 9.50002 25.0593 10.1674L32.3094 17.4175C32.9767 18.0848 34.0587 18.0848 34.726 17.4175C35.3934 16.7501 35.3934 15.6681 34.726 15.0008L28.6843 8.95903L34.7261 2.9173C35.3934 2.24995 35.3934 1.16796 34.7261 0.500605C34.0587 -0.166746 32.9767 -0.166746 32.3094 0.500604L25.0593 7.75068Z" fill="#94D9DB"></path>
  <path fill-rule="evenodd" clip-rule="evenodd" d="M12.7819 7.75068C12.1146 8.41803 12.1146 9.50002 12.7819 10.1674L20.032 17.4175C20.6994 18.0848 21.7814 18.0848 22.4487 17.4175C23.1161 16.7501 23.1161 15.6681 22.4487 15.0008L16.407 8.95903L22.4487 2.9173C23.1161 2.24995 23.1161 1.16796 22.4487 0.500605C21.7814 -0.166746 20.6994 -0.166746 20.032 0.500604L12.7819 7.75068Z" fill="#94D9DB"></path>
  <path fill-rule="evenodd" clip-rule="evenodd" d="M0.500683 7.75068C-0.166669 8.41803 -0.166669 9.50002 0.500683 10.1674L7.75076 17.4175C8.41811 18.0848 9.5001 18.0848 10.1675 17.4175C10.8348 16.7501 10.8348 15.6681 10.1675 15.0008L4.12572 8.95903L10.1675 2.9173C10.8348 2.24995 10.8348 1.16796 10.1675 0.500605C9.50011 -0.166746 8.41811 -0.166746 7.75076 0.500604L0.500683 7.75068Z" fill="#94D9DB"></path>
</svg>
