<svg xmlns="http://www.w3.org/2000/svg" xmlns:xlink="http://www.w3.org/1999/xlink" width="160" zoomAndPan="magnify" viewBox="0 0 120 60" height="80" preserveAspectRatio="xMidYMid meet" version="1.0"><defs><g/><clipPath id="6fcf6494b5"><path d="M 3 9.945312 L 44 9.945312 L 44 42.945312 L 3 42.945312 Z M 3 9.945312 " clip-rule="nonzero"/></clipPath></defs><g clip-path="url(#6fcf6494b5)"><path fill="#3eb7bb" d="M 12.75 29.816406 L 13.015625 29.816406 L 14.675781 32.691406 L 16.621094 32.691406 L 16.621094 33.300781 L 11.660156 33.300781 L 11.660156 34.515625 L 15.726562 34.515625 L 17.535156 37.648438 L 19.1875 37.648438 L 19.1875 38.253906 L 11.636719 38.253906 L 11.636719 38.863281 L 11.640625 38.863281 L 11.640625 39.46875 L 18.582031 39.46875 L 18.597656 39.492188 C 19.359375 40.816406 20.679688 41.578125 22.207031 41.578125 L 25.875 41.578125 C 25.957031 41.578125 26.039062 41.574219 26.121094 41.570312 C 27.023438 41.519531 27.84375 41.207031 28.503906 40.660156 C 28.886719 40.347656 29.222656 39.949219 29.488281 39.492188 L 29.734375 39.0625 L 29.75 39.035156 L 32.628906 34.050781 L 33.335938 32.828125 L 39.328125 32.828125 L 36.207031 38.230469 C 35.910156 38.746094 35.464844 39.023438 34.882812 39.058594 C 34.472656 38.285156 33.65625 37.753906 32.722656 37.753906 C 31.375 37.753906 30.285156 38.847656 30.285156 40.195312 C 30.285156 41.539062 31.375 42.632812 32.722656 42.632812 C 33.558594 42.632812 34.292969 42.210938 34.734375 41.574219 L 34.773438 41.574219 C 36.308594 41.574219 37.621094 40.8125 38.386719 39.488281 L 41.527344 34.046875 L 42.234375 32.824219 L 43.644531 30.382812 C 43.386719 30.335938 43.117188 30.3125 42.847656 30.3125 L 31.878906 30.3125 L 30.429688 32.828125 L 28.296875 36.519531 L 27.308594 38.230469 C 27.277344 38.292969 27.238281 38.347656 27.195312 38.398438 C 26.882812 38.832031 26.4375 39.058594 25.875 39.058594 L 22.207031 39.058594 C 21.574219 39.058594 21.09375 38.777344 20.773438 38.230469 L 14.492188 27.351562 C 14.171875 26.800781 14.171875 26.242188 14.492188 25.695312 L 20.265625 15.695312 L 20.753906 14.851562 C 22.035156 14.777344 23.050781 13.714844 23.050781 12.417969 C 23.050781 11.070312 21.960938 9.980469 20.613281 9.980469 C 19.265625 9.980469 18.175781 11.070312 18.175781 12.417969 C 18.175781 12.878906 18.300781 13.316406 18.53125 13.683594 L 18.355469 13.984375 L 17.699219 15.125 L 19.101562 15.125 L 19.101562 15.734375 L 12.5625 15.734375 L 12.5625 16.949219 L 16.648438 16.949219 L 15.8125 18.390625 L 17.710938 18.390625 L 17.710938 18.996094 L 9.714844 18.996094 L 9.714844 20.214844 L 14.761719 20.214844 L 13.042969 23.179688 L 14.976562 23.179688 L 14.976562 23.789062 L 9.710938 23.789062 L 9.710938 25.003906 L 12.039062 25.003906 C 11.644531 25.984375 11.636719 27.03125 12.019531 28.011719 L 13.441406 28.011719 L 13.441406 28.621094 L 3.796875 28.621094 L 3.796875 29.835938 L 12.746094 29.835938 Z M 12.75 29.816406 " fill-opacity="1" fill-rule="evenodd"/></g><path fill="#3eb7bb" d="M 29.03125 11.464844 L 26.125 11.464844 L 24.675781 13.980469 L 23.585938 15.875 L 21.785156 18.988281 L 20.382812 21.425781 L 18.644531 24.429688 C 18.585938 24.527344 18.535156 24.628906 18.488281 24.726562 C 17.933594 25.878906 17.933594 27.148438 18.488281 28.300781 C 18.539062 28.402344 18.585938 28.5 18.644531 28.601562 L 20.382812 31.605469 L 21.785156 34.039062 L 21.953125 34.324219 C 21.746094 34.683594 21.628906 35.097656 21.628906 35.539062 C 21.628906 36.886719 22.722656 37.976562 24.066406 37.976562 C 25.414062 37.976562 26.507812 36.886719 26.507812 35.539062 C 26.507812 34.222656 25.457031 33.144531 24.152344 33.101562 L 20.824219 27.339844 C 20.503906 26.789062 20.503906 26.230469 20.824219 25.679688 L 26.117188 16.515625 L 27.207031 14.628906 L 27.585938 13.972656 L 34.777344 13.972656 C 35.410156 13.972656 35.894531 14.253906 36.210938 14.796875 L 39.523438 20.53125 L 33.535156 20.53125 L 32.636719 18.980469 L 32.160156 18.160156 C 32.292969 17.855469 32.367188 17.527344 32.367188 17.175781 C 32.367188 15.828125 31.277344 14.738281 29.929688 14.738281 C 28.582031 14.738281 27.492188 15.828125 27.492188 17.175781 C 27.492188 18.523438 28.582031 19.613281 29.929688 19.613281 C 29.988281 19.613281 30.039062 19.613281 30.09375 19.609375 L 30.628906 20.53125 L 32.078125 23.046875 L 43.878906 23.046875 L 42.429688 20.53125 L 41.53125 18.980469 L 38.390625 13.542969 C 37.625 12.214844 36.3125 11.453125 34.777344 11.453125 L 29.035156 11.453125 Z M 29.03125 11.464844 " fill-opacity="1" fill-rule="evenodd"/><path fill="#d9d9d9" d="M 5.636719 16.816406 L 10.191406 16.816406 L 10.191406 18.027344 L 5.636719 18.027344 Z M 5.636719 16.816406 " fill-opacity="1" fill-rule="evenodd"/><path fill="#d9d9d9" d="M 3.980469 21.953125 L 8.867188 21.953125 L 8.867188 23.164062 L 3.980469 23.164062 Z M 3.980469 21.953125 " fill-opacity="1" fill-rule="evenodd"/><path fill="#d9d9d9" d="M 6.707031 31.289062 L 10.886719 31.289062 L 10.886719 32.503906 L 6.707031 32.503906 Z M 6.707031 31.289062 " fill-opacity="1" fill-rule="evenodd"/><path fill="#d9d9d9" d="M 6.761719 36.660156 L 12.097656 36.660156 L 12.097656 37.875 L 6.761719 37.875 Z M 6.761719 36.660156 " fill-opacity="1" fill-rule="evenodd"/><path fill="#d9d9d9" d="M 0 30.382812 L 4.132812 30.382812 L 4.132812 31.59375 L 0 31.59375 Z M 0 30.382812 " fill-opacity="1" fill-rule="evenodd"/><g fill="#3eb7bb" fill-opacity="1"><g transform="translate(46.726045, 39.727383)"><g><path d="M 33.40625 -27.453125 L 40.59375 -27.453125 L 32.9375 0 L 25.265625 0 L 20.453125 -17.40625 L 15.6875 0 L 8.015625 0 L 0.234375 -27.453125 L 7.390625 -27.453125 L 12.15625 -7.703125 L 17.046875 -27.453125 L 24.640625 -27.453125 L 29.328125 -8.015625 Z M 33.40625 -27.453125 "/></g></g></g><g fill="#3eb7bb" fill-opacity="1"><g transform="translate(91.234981, 39.727383)"><g><path d="M 20.8125 -27.53125 L 27.5 -27.53125 L 27.5 0 L 20.8125 0 L 9.625 -17.328125 L 9.625 0 L 2.9375 0 L 2.9375 -27.53125 L 9.625 -27.53125 L 20.8125 -10.203125 Z M 20.8125 -27.53125 "/></g></g></g></svg>